<svg id="Layer_1" data-name="Layer 1" xmlns="http://www.w3.org/2000/svg" xmlns:xlink="http://www.w3.org/1999/xlink" viewBox="0 0 474.41 186.94"><defs><style>.cls-1,.cls-2{fill:none;}.cls-2{clip-rule:evenodd;}.cls-3{fill:#fff;}.cls-4{clip-path:url(#clip-path);}.cls-5{clip-path:url(#clip-path-2);}.cls-6{fill:url(#linear-gradient);}</style><clipPath id="clip-path"><path id="SVGID" class="cls-1" d="M16.72,37.51V149.43h112V37.51ZM101.2,84.82a3.75,3.75,0,0,1-2.72,2.26l-.4.16a4.2,4.2,0,0,1-.85.2,1.87,1.87,0,0,0-.47.23,1,1,0,0,0-.32.34,1.47,1.47,0,0,0-.17.42,6.39,6.39,0,0,0-.16,1.14c0,.59,0,1.21,0,1.84v22.64a3.72,3.72,0,0,1-3.72,3.72,3.82,3.82,0,0,1-1.85-.49,9,9,0,0,1-.91-.6l0,0c-.13-.08-.26-.16-.38-.25L88,115.53c-.45-.34-.89-.7-1.3-1.07l-1-.85c-.36-.3-.73-.62-1.09-.94-.15-.12-.31-.25-.46-.39a6.3,6.3,0,0,1-.83-.87,10.24,10.24,0,0,1-3.16,2.22,11.83,11.83,0,0,1-5.5,1.05,14.84,14.84,0,0,1-5.48-1.32A35.88,35.88,0,0,1,65,111.13l-.23-.15-.37-.23-.27-.18a3.53,3.53,0,0,1-.6-.41,7.43,7.43,0,0,1-1.1-.8c-.4-.28-.79-.57-1.18-.86s-.93-.69-1.41-1.07-1.2-1-1.81-1.47l-1.72-1.39h0l-.41-.26a1.58,1.58,0,0,1-.24-.15l-.12-.06a4.34,4.34,0,0,1-.64-.37l-.18-.09a6.27,6.27,0,0,0-.92-.41,9.23,9.23,0,0,0-1.9-.35,2.41,2.41,0,0,0-1.1.14,4.68,4.68,0,0,0-1.15.69,14.85,14.85,0,0,0-1.49,1.38l-.17.17c-.36.33-.7.66-1,1l-1.24,1.26q-.54.54-1.14,1a10.37,10.37,0,0,1-1.6,1.12l-.1.07a8.77,8.77,0,0,1-2.29.84,7.75,7.75,0,0,1-2.68.09l-.14,0a8.39,8.39,0,0,1-2.87-1.08l-.12-.07-1.16-.76c-.43-.3-.85-.61-1.24-.92-1.4-1.08-2.78-2.21-4.07-3.33-.25-.21-.46-.4-.62-.56l-.29-.28a3.88,3.88,0,0,1-1.15-2.73A3.76,3.76,0,0,1,32,97.71c.22.13.43.26.65.42l.57.43.13.1a4.08,4.08,0,0,0,1-.72c.6-.58,1.26-1.25,1.87-1.92a25.18,25.18,0,0,1,2.53-2.42c.47-.38.93-.73,1.43-1.07a9.51,9.51,0,0,1,2.11-1.07,10.82,10.82,0,0,1,4.44-.64,14.47,14.47,0,0,1,5,1.23,24.76,24.76,0,0,1,3.9,2.22q1.45,1,2.82,2c.9.69,1.81,1.4,2.71,2.13l.11.1.68.59c.17.14.34.28.53.42l.32.26a.1.1,0,0,0,0,0,3.68,3.68,0,0,1,.45.28,2.11,2.11,0,0,1,.27.18,1.64,1.64,0,0,1,.22.14,6.32,6.32,0,0,1,.56.33c.47.26.94.51,1.42.75s1,.47,1.57.68a8.1,8.1,0,0,0,2,.37,3.75,3.75,0,0,0,1.54-.23,3.87,3.87,0,0,0,1.56-1,1.73,1.73,0,0,0,.27-.35c-.36,0-.72,0-1.07-.09A4.57,4.57,0,0,1,69,99.83l-.16-.13c-.45-.33-.82-.6-1.18-.88s-.71-.55-1.09-.85c-.71-.55-1.41-1.15-2.09-1.78a7.3,7.3,0,0,1-1-1A3.72,3.72,0,0,1,65.24,89l-.06,0-.41-.28c-.15-.08-.29-.17-.41-.25a5,5,0,0,1-.5-.38L63,87.4,62,86.57c-.43-.32-.84-.65-1.23-1s-.54-.48-.83-.72a6.83,6.83,0,0,1-1.16-1.12,3.7,3.7,0,0,1-1-2.56,6.44,6.44,0,0,1,1.21-3.8,9,9,0,0,1,2.11-2.07A10.75,10.75,0,0,1,63.45,74a13.53,13.53,0,0,1,2.22-.62,13.23,13.23,0,0,1,4.17-.08,15.87,15.87,0,0,1,2,.36,8.38,8.38,0,0,1,2.52,1.06c.45.26.88.54,1.29.83A3.73,3.73,0,0,1,79,73.5H92.11a3.72,3.72,0,0,1,1.67.39,5.29,5.29,0,0,1,1.52,1.16s0,0,0,0a2.79,2.79,0,0,1,.44.4l2,2.17c.39.43.74.84,1.1,1.26l.87,1a7,7,0,0,1,.53.62c.18.24.33.46.48.7s.1.21.16.31l0-.12c.06.1.1.21.15.31A3.69,3.69,0,0,1,101.2,84.82Z"/></clipPath><clipPath id="clip-path-2"><path id="SVGID-2" data-name="SVGID" class="cls-2" d="M107.81,82.55l4.52,4.52,4.52-4.52a6.38,6.38,0,1,0-9,0M79.12,53.87l4.52,4.52a6.39,6.39,0,1,0,0-9ZM61.78,58.39l4.52-4.52-4.52-4.51a6.38,6.38,0,1,0,0,9ZM63,59.59a8.07,8.07,0,1,1,0-11.42l4.52,4.51,4-4L61.89,39a.84.84,0,0,1,1.19-1.19l9.63,9.63,9.63-9.63A.84.84,0,0,1,83.53,39L73.9,48.66l4,4,4.52-4.51a8.05,8.05,0,1,1,0,11.42h0l-9.74-9.73L63,59.58Zm53.88,44.8-4.52-4.52-4.52,4.52a6.38,6.38,0,1,0,9,0Zm-3.33-5.71L118,103.2a8.07,8.07,0,1,1-11.42,0l2.55-2.55h0l7.19-7.18-9.74-9.73v0a8.08,8.08,0,0,1,0-11.4A8.08,8.08,0,0,1,118,83.74l-4.52,4.51,4,4,9.63-9.63a.84.84,0,0,1,1.19,1.19l-9.63,9.63,9.63,9.63a.84.84,0,0,1,0,1.19.86.86,0,0,1-1.19,0l-9.63-9.63Zm-34.4,34.38,4.52,4.52a6.38,6.38,0,1,0,0-9Zm-11.63,1.19L63,138.77a8.06,8.06,0,1,1,0-11.42h0l5.12,5.11,4.62,4.62,4.62-4.62,5.12-5.11h0a8.07,8.07,0,1,1,0,11.42l-4.52-4.52-4,4,9.63,9.63a.84.84,0,0,1,0,1.19.86.86,0,0,1-1.19,0l-9.63-9.63-9.63,9.63a.86.86,0,0,1-1.19,0,.84.84,0,0,1,0-1.19l9.63-9.63Zm-1.19-1.19-4.52-4.51a6.38,6.38,0,1,0,0,9ZM37.61,104.39l-4.52-4.52-4.52,4.52a6.38,6.38,0,1,0,9,0ZM31.9,88.25l-4.52-4.51a8.07,8.07,0,1,1,11.43,0v0l-9.74,9.73,9.74,9.73h0a8.06,8.06,0,1,1-11.43,0l4.52-4.52-4-4-9.63,9.63a.86.86,0,0,1-1.19,0,.84.84,0,0,1,0-1.19l9.63-9.63-9.63-9.63a.84.84,0,0,1,1.19-1.19l9.63,9.63Zm1.19-1.18,4.52-4.52a6.38,6.38,0,1,0-9,0Zm70.14,39.67H106V124a2.77,2.77,0,0,0-4.73-2h0a2.77,2.77,0,0,0,2,4.73ZM39.42,60.19V63a2.76,2.76,0,1,0,2.77-2.78ZM106,63V60.19h-2.77a2.77,2.77,0,0,0-2,4.74h0A2.78,2.78,0,0,0,106,63ZM39.42,126.74h2.77a2.76,2.76,0,0,0,2-4.73h0a2.77,2.77,0,0,0-4.73,2Zm61.31-60.09L96.41,71a6.8,6.8,0,0,1,1.47,4.23v8.2a.85.85,0,0,1-1.69,0V75.2a5.18,5.18,0,0,0-1.52-3.67h0A5.18,5.18,0,0,0,91,70h-8.2a.84.84,0,1,1,0-1.68H91a6.78,6.78,0,0,1,4.23,1.46l4.32-4.32a4.46,4.46,0,0,1,3.69-6.95h3.62a.85.85,0,0,1,.84.84V63h0a4.45,4.45,0,0,1-7,3.68Zm-1.19,54.82-4.32-4.31A6.84,6.84,0,0,1,91,118.62h-8.2a.84.84,0,1,1,0-1.68H91a5.21,5.21,0,0,0,5.2-5.2v-8.2a.85.85,0,0,1,1.69,0v8.2A6.83,6.83,0,0,1,96.41,116l4.32,4.31a4.46,4.46,0,0,1,7,3.69v3.61a.84.84,0,0,1-.84.84h-3.62a4.45,4.45,0,0,1-3.69-6.95Zm-53.66-56,4.32,4.32a6.78,6.78,0,0,1,4.23-1.46h8.2a.84.84,0,1,1,0,1.68h-8.2a5.18,5.18,0,0,0-3.67,1.52h0a5.18,5.18,0,0,0-1.52,3.67v8.2a.85.85,0,0,1-1.69,0V75.2A6.8,6.8,0,0,1,49,71l-4.32-4.32a4.38,4.38,0,0,1-2.5.77A4.47,4.47,0,0,1,37.73,63V59.35a.85.85,0,0,1,.85-.84h3.61a4.45,4.45,0,0,1,3.69,6.95Zm-1.19,54.82L49,116a6.83,6.83,0,0,1-1.47-4.23v-8.2a.85.85,0,0,1,1.69,0v8.2a5.18,5.18,0,0,0,1.52,3.67h0a5.18,5.18,0,0,0,3.67,1.52h8.2a.84.84,0,1,1,0,1.68h-8.2a6.84,6.84,0,0,1-4.23-1.46l-4.32,4.31a4.5,4.5,0,0,1,.77,2.5,4.46,4.46,0,0,1-4.46,4.45H38.58a.84.84,0,0,1-.85-.84V124a4.46,4.46,0,0,1,7-3.69ZM75.94,64.22l-1.72,1.72a5.88,5.88,0,0,1,2.69,1.53l4.89,4.9a.83.83,0,0,1,0,1.18.84.84,0,0,1-1.19,0l-4.89-4.89a4.24,4.24,0,0,0-3-1.24h0a4.28,4.28,0,0,0-3,1.24l-4.89,4.89a.84.84,0,0,1-1.19,0,.83.83,0,0,1,0-1.18l4.89-4.9a5.94,5.94,0,0,1,2.81-1.57l-1.68-1.68a4.45,4.45,0,1,1,6.3,0ZM72.79,65l2-2a2.77,2.77,0,1,0-3.92,0ZM92.64,85.57a.84.84,0,0,1,1.19-1.19l4.89,4.89a5.9,5.9,0,0,1,1.58,2.86L102,90.4a4.45,4.45,0,1,1,0,6.3l-1.76-1.76a5.79,5.79,0,0,1-1.55,2.72l-4.89,4.9a.84.84,0,0,1-1.19-1.19l4.89-4.89a4.24,4.24,0,0,0,1.24-3h0a4.24,4.24,0,0,0-1.24-3ZM42.2,95.45l2-2-2-2a2.77,2.77,0,1,0,0,3.92Zm2.94-.56-1.75,1.75a4.45,4.45,0,1,1,0-6.3l1.74,1.74a5.94,5.94,0,0,1,1.57-2.81l4.9-4.89a.84.84,0,0,1,1.19,0,.86.86,0,0,1,0,1.19l-4.9,4.89a4.27,4.27,0,0,0,0,6l4.9,4.89a.86.86,0,0,1,0,1.19.84.84,0,0,1-1.19,0l-4.9-4.9A5.88,5.88,0,0,1,45.14,94.89Zm29.56,29-2-2-2,2a2.78,2.78,0,1,0,3.93,0ZM74.18,121l1.71,1.7a4.46,4.46,0,1,1-6.31,0l1.7-1.69a5.88,5.88,0,0,1-2.77-1.56l-4.89-4.89a.84.84,0,0,1,1.19-1.19l4.89,4.9a4.27,4.27,0,0,0,3,1.23h0a4.28,4.28,0,0,0,3-1.24l4.89-4.9a.84.84,0,0,1,1.19,1.19l-4.89,4.89A5.87,5.87,0,0,1,74.18,121ZM83.5,82.69A15.26,15.26,0,1,0,88,93.47,15.22,15.22,0,0,0,83.5,82.69ZM72.71,76.54a17,17,0,1,1-12,5A16.92,16.92,0,0,1,72.71,76.54Zm28.55,17,2,2a2.77,2.77,0,1,0,0-3.92Z"/></clipPath><linearGradient id="linear-gradient" x1="43.78" y1="159.25" x2="101.46" y2="28.09" gradientUnits="userSpaceOnUse"><stop offset="0" stop-color="#aa825f"/><stop offset="1" stop-color="#ddbc91"/></linearGradient></defs><path class="cls-3" d="M235.61,96.11a3.47,3.47,0,0,1,.71.58c.41.39.62.64.62.75a5.48,5.48,0,0,1-.75,2,16.67,16.67,0,0,1-1.24,1.79c-.5.61-1,1.2-1.62,1.78a8.41,8.41,0,0,1-2,1.46c-.33.16-.65.3-1,.41a2.87,2.87,0,0,1-1,.17,4.46,4.46,0,0,1-1.5-.08c-.5-.11-1-.22-1.41-.34a22.12,22.12,0,0,1-2.66-1.12c-.83-.41-1.72-.81-2.66-1.2a2.47,2.47,0,0,1-.71-.42c-.19-.17-.4-.33-.62-.5a2.75,2.75,0,0,1-.58-.37c-.17-.14-.34-.26-.5-.38l-1.91-1.53c-.67-.53-1.31-1-1.92-1.54l-.41-.38a4.21,4.21,0,0,1-.42-.37c-.33.5-.68,1-1,1.46a15.08,15.08,0,0,1-1.2,1.37l-.75.75c.78.61,1.54,1.24,2.29,1.91s1.51,1.33,2.28,2c.45.39.89.79,1.33,1.21a5.18,5.18,0,0,1,1.08,1.45,15.4,15.4,0,0,1,1.75,4.49,20,20,0,0,1,.41,4.78,8.69,8.69,0,0,1-1.49,4.53,11.16,11.16,0,0,1-5,4.32,13.84,13.84,0,0,1-6.52,1.25,19,19,0,0,1-7.11-1.7,59.11,59.11,0,0,1-6.44-3.45,1.49,1.49,0,0,0-.42-.29,5.51,5.51,0,0,1-.5-.3l-.12-.12a2.17,2.17,0,0,0,.37.21,2.21,2.21,0,0,0-.29-.13.67.67,0,0,1-.29-.21,2.52,2.52,0,0,1-.29-.16,2.48,2.48,0,0,0-.29-.17,7.58,7.58,0,0,0-1-.7,4.46,4.46,0,0,1-.91-.71c-.78-.55-1.54-1.11-2.29-1.66s-1.51-1.14-2.29-1.75c-1-.77-2-1.58-3-2.41s-2-1.66-3.07-2.49l-.17-.17-1.25-.75a.83.83,0,0,0-.16-.12.64.64,0,0,1-.17-.13l-.33-.16-.33-.17a4.34,4.34,0,0,1-.63-.37,3.28,3.28,0,0,0-.7-.38,18.25,18.25,0,0,0-2.66-1.16,23.11,23.11,0,0,0-4.66-.87,10.61,10.61,0,0,0-4.65.62,14.73,14.73,0,0,0-3.79,2.2,34.41,34.41,0,0,0-3.2,2.95c-.72.67-1.4,1.33-2,2s-1.32,1.36-2,2.08c-.5.49-1,1-1.58,1.45a12.44,12.44,0,0,1-1.83,1.29,8.55,8.55,0,0,1-2.24.83,6.7,6.7,0,0,1-2.41.08,8.17,8.17,0,0,1-2.83-1.08c-.61-.38-1.22-.79-1.83-1.2s-1.19-.85-1.74-1.29q-3.66-2.82-6.9-5.65a7.49,7.49,0,0,1-.67-.59c-.16-.16-.32-.31-.45-.45s-.18-.24-.13-.29.1,0,.29.08.39.24.58.37.43.32.71.54l1,.75a3.16,3.16,0,0,0,1.16.5,6.45,6.45,0,0,0,4.57-.17,13.83,13.83,0,0,0,3.58-2.41q1.91-1.81,3.66-3.74a38.27,38.27,0,0,1,3.74-3.57c.61-.5,1.26-1,1.95-1.46a9.92,9.92,0,0,1,2.2-1.12,12.28,12.28,0,0,1,5.07-.75,18.94,18.94,0,0,1,6.36,1.58,35.24,35.24,0,0,1,5.7,3.25c1.6,1.1,3.15,2.23,4.65,3.36s3,2.32,4.49,3.53l1.25,1.09c.38.33.8.66,1.24,1a2.28,2.28,0,0,0,.34.29,4.28,4.28,0,0,1,.33.29,1.15,1.15,0,0,1,.21.13.58.58,0,0,0,.2.12.66.66,0,0,0,.34.21.76.76,0,0,1,.33.21.21.21,0,0,0,.16.08l.17.17.33.17a.88.88,0,0,0,.17.12l.17.12a.61.61,0,0,0,.37.21.73.73,0,0,1,.37.21c1.06.61,2.12,1.18,3.2,1.7s2.21,1,3.37,1.46a20.29,20.29,0,0,0,5.11,1,13,13,0,0,0,5.2-.75,13.1,13.1,0,0,0,5.11-3.24,9.26,9.26,0,0,0,2.62-5.41,11.3,11.3,0,0,0,.08-2.41,15.72,15.72,0,0,0-.33-2.41c-.11-.44-.21-.86-.29-1.24s-.18-.78-.29-1.17a9.49,9.49,0,0,1-1.75.75,8.85,8.85,0,0,1-2.7.42,21.87,21.87,0,0,1-2.7-.17,1.5,1.5,0,0,1-.92-.42c-.33-.27-.58-.47-.74-.58-.61-.44-1.21-.88-1.79-1.33s-1.18-.91-1.79-1.41A43.48,43.48,0,0,1,193.63,96a5.8,5.8,0,0,1-1.16-1.16l-.17-.17a21.51,21.51,0,0,0,3,.12,9.13,9.13,0,0,0,2.91-.54A8.94,8.94,0,0,0,200.45,93a16.83,16.83,0,0,0,1.91-1.79,18.6,18.6,0,0,0,3.58-5.82,17.93,17.93,0,0,0,1.2-4.74,14.89,14.89,0,0,0-.21-4.9h-1.74a15.13,15.13,0,0,0-4.66.75,22.05,22.05,0,0,0-2.2,1,10.86,10.86,0,0,0-2,1.37,6.88,6.88,0,0,0-1.49,1.83,4.78,4.78,0,0,0-.58,2.37c-.34-.22-.61-.41-.84-.58a6,6,0,0,1-.58-.33c-.16-.11-.22-.17-.16-.17-.61-.44-1.21-.88-1.79-1.33s-1.18-.91-1.79-1.41a19.93,19.93,0,0,1-1.74-1.42c-.56-.49-1.14-1-1.75-1.49a5.8,5.8,0,0,1-1.16-1.16l-.17-.17a4.67,4.67,0,0,1,.87-2.79,9.06,9.06,0,0,1,2.12-2.07,11.47,11.47,0,0,1,2.71-1.42,17,17,0,0,1,2.78-.79,13.6,13.6,0,0,1,2.58-.25,19.58,19.58,0,0,1,2.57.17,23.6,23.6,0,0,1,2.79.5,8.13,8.13,0,0,1,2.53,1.08,21,21,0,0,1,2.21,1.45c.69.53,1.4,1.1,2.12,1.71,1,.77,2.09,1.59,3.11,2.45s2,1.76,3,2.7a10.19,10.19,0,0,1,2.08,2.66,22.33,22.33,0,0,1,1.21,3.41,11.89,11.89,0,0,1,.37,3.57,16.48,16.48,0,0,1-1.66,6.74,6.86,6.86,0,0,1-.42.87c-.16.31-.33.6-.5.87l2,.75a10.71,10.71,0,0,0,2,.5,3.79,3.79,0,0,0,2-.17,8.44,8.44,0,0,0,2.74-1.83,16.9,16.9,0,0,0,2.41-2.82,12.14,12.14,0,0,0,.75-1.37,6.78,6.78,0,0,0,.5-1.54q.57.33.87.54l.54.37c.17.12.25.14.25.09.61.44,1.2.9,1.79,1.37l1.78,1.45A41.72,41.72,0,0,1,235.61,96.11Zm11.06-17.45c.05,0,.08.09.08.12s0,.07.08.13H224.22a2.13,2.13,0,0,1-.83-.59,7.55,7.55,0,0,0-.83-.74l-3.49-3.74a20.48,20.48,0,0,1-1.7-1.92c-.53-.66-1.07-1.33-1.62-2-.23-.28-.42-.53-.59-.75s-.36-.47-.58-.75a.37.37,0,0,0-.08-.25h22.61a2.48,2.48,0,0,1,.83.67,9.14,9.14,0,0,0,.83.75l3.49,3.74c.56.61,1.11,1.24,1.66,1.91l1.67,2a8.37,8.37,0,0,1,.58.67A8.13,8.13,0,0,1,246.67,78.66Z"/><path class="cls-3" d="M246.67,78.66a.46.46,0,0,0,.16.25,1.59,1.59,0,0,1-.45.08c-.14,0-1.76.53-1.87.58a9.41,9.41,0,0,0-3,1.37,8.58,8.58,0,0,0-2.28,2.37A8.84,8.84,0,0,0,238,86.14a18.06,18.06,0,0,0-.41,3c-.06,1.16-.09,2.34-.09,3.53v39a9.39,9.39,0,0,1-.91-.58c-.22-.17-.42-.31-.58-.42s-.22-.14-.17-.08l-2-1.5a24.42,24.42,0,0,1-1.92-1.58L230.08,126c-.63-.53-1.26-1.07-1.87-1.63a7.83,7.83,0,0,1-.66-.54,5,5,0,0,1-.67-.7c0-.06,0-.09,0-.09s0,0,0-.08V86.47c0-1.11,0-2.24,0-3.41a27.42,27.42,0,0,1,.12-3.41,1.8,1.8,0,0,1,.05-.37,2.76,2.76,0,0,0,0-.37h-2.16a2.08,2.08,0,0,1-.84-.59l-.74-.74c-.61-.61-1.21-1.24-1.79-1.87s-1.18-1.26-1.79-1.87-1.11-1.25-1.66-1.92l-1.66-2-.59-.75a8.14,8.14,0,0,1-.49-.75q-.09-.08-.09-.12s0-.07-.08-.13h18.45a2.39,2.39,0,0,1,.83.67,9,9,0,0,0,.84.75l3.49,3.74a10.13,10.13,0,0,0,.91,1,2.29,2.29,0,0,0,.5.42L242,76.33c.61.5,1.22,1,1.83,1.58.28.22.51.43.71.62S246.45,78.44,246.67,78.66Z"/><path class="cls-3" d="M254.73,78.32a7.55,7.55,0,0,0-.83-.74l-3.49-3.74a22.13,22.13,0,0,1-1.71-1.92c-.52-.66-1.06-1.33-1.62-2l-.58-.75-.58-.75a.37.37,0,0,0-.08-.25h50a2.58,2.58,0,0,1,.83.67,9.14,9.14,0,0,0,.83.75L301,73.34c.55.61,1.11,1.24,1.66,1.91s1.11,1.33,1.66,2a6.91,6.91,0,0,1,.59.67c.16.22.33.47.5.75.05,0,.08.09.08.12s0,.07.08.13h-50A2.06,2.06,0,0,1,254.73,78.32Zm21.11,26.94v19.86a.24.24,0,0,1,.09.17,2.15,2.15,0,0,1-.09,1,2.31,2.31,0,0,1-.58.91,1.83,1.83,0,0,1-1.58.33,6.66,6.66,0,0,1-1.95-.45,15.13,15.13,0,0,1-1.87-.88,7,7,0,0,1-1.33-1.33,4.18,4.18,0,0,1-.58-.5l-.5-.49c-.61-.72-1.24-1.42-1.87-2.08s-1.26-1.36-1.87-2.08a8.73,8.73,0,0,0-.92-1.08,7.88,7.88,0,0,1-.91-1.08l-.25-.25q-1.58-1.66-3.08-3.58c-.27-.27-.55-.56-.83-.87s-.55-.62-.83-1a.64.64,0,0,0-.17-.13.42.42,0,0,1-.16-.21c-.11,0-.17,0-.17-.16l-.08-.09-1.5-1.49c-.5-.5-1-1-1.49-1.58-1.28-1.39-2.5-2.77-3.66-4.16l-.83-1-.83-1a1.1,1.1,0,0,1-.25-.34l-.17-.33a13.26,13.26,0,0,1-.71-2,4.94,4.94,0,0,1-.12-2.08,2.93,2.93,0,0,1,2.08-2.49,6,6,0,0,1,1.66-.42c.55,0,1.14-.08,1.75-.08s1.21.08,1.82.08h35a2.58,2.58,0,0,1,.83.66,4.19,4.19,0,0,0,.42.38c.16.14.3.26.41.37l3.49,3.74a22.13,22.13,0,0,1,1.71,1.92c.52.66,1.06,1.33,1.62,2a4.87,4.87,0,0,1,.58.71c.17.25.36.51.58.79a.33.33,0,0,0,.09.25Zm-10.06,11a1.88,1.88,0,0,0,.42-.83V105.26h-1.08a7.14,7.14,0,0,1-1.08-.09h-2.41a13.73,13.73,0,0,0-2.37.21,3.52,3.52,0,0,0-2,1.12,3.21,3.21,0,0,0-.83,1.91,6,6,0,0,0,.25,2.17,2.74,2.74,0,0,0,.38.45,3.38,3.38,0,0,1,.37.46l1.58,1.75c.5.55,1,1.13,1.49,1.74a8.23,8.23,0,0,1,.59.63c.16.19.33.37.5.54a7.92,7.92,0,0,0,1.41.54,4,4,0,0,0,1.49.12A1.64,1.64,0,0,0,265.78,116.23Z"/><path class="cls-3" d="M307.43,79.16c0,.06.1.08.17.17a1.61,1.61,0,0,1-.26.09l-.58.15a12.91,12.91,0,0,0-3,1.37,8.61,8.61,0,0,0-2.29,2.37,9,9,0,0,0-1.16,2.83,19.21,19.21,0,0,0-.42,3c-.05,1.16-.08,2.34-.08,3.53v39a9.39,9.39,0,0,1-.91-.58c-.22-.17-.42-.31-.58-.42s-.23-.14-.17-.08l-2-1.5c-.66-.5-1.3-1-1.91-1.58L292.34,126c-.64-.53-1.26-1.07-1.87-1.63a7.83,7.83,0,0,1-.66-.54,4.51,4.51,0,0,1-.67-.7c0-.06,0-.09,0-.09s0,0,0-.08V86.47c0-1.11,0-2.24,0-3.41a27.42,27.42,0,0,1,.12-3.41,1.73,1.73,0,0,1,0-.37,1.73,1.73,0,0,0,0-.37h-2.16a2.06,2.06,0,0,1-.83-.59l-.75-.74c-.6-.61-1.2-1.24-1.78-1.87s-1.18-1.26-1.79-1.87-1.11-1.25-1.66-1.92l-1.67-2-.58-.75c-.16-.22-.33-.47-.5-.75-.05-.05-.08-.09-.08-.12s0-.07-.08-.13h18.45c.33.17.15,0,.38.25a9.14,9.14,0,0,0,.83.75l3.49,3.74a11.64,11.64,0,0,0,.91,1,9.66,9.66,0,0,0,1,.84l1.91,1.58c.61.5,1.22,1,1.83,1.58.28.22.51.43.71.62S307.39,79.09,307.43,79.16Z"/><path class="cls-3" d="M299.12,52.8v1a6,6,0,0,1-.63,1.87,8.08,8.08,0,0,1-1.12,1.62,15.42,15.42,0,0,1-1.45,1.58c-.53.5-1,1-1.54,1.5s-1,.9-1.46,1.37a15.86,15.86,0,0,0-1.29,1.46,4.6,4.6,0,0,0-.66,1.08,1.87,1.87,0,0,0-.08,1.24.17.17,0,0,0,0,.13.16.16,0,0,1,0,.12c.11.17.15.25.12.25a.7.7,0,0,1-.2-.12l-.34-.29c-.11-.11-.19-.2-.25-.25-.55-.5-1.08-1-1.57-1.5a19.48,19.48,0,0,1-1.42-1.58l-1.87-2c-.63-.69-1.26-1.39-1.87-2.12-.33-.44-.68-.88-1-1.33s-.7-.88-1-1.33a3.43,3.43,0,0,1-.29-.54,1.23,1.23,0,0,1,0-.7,2.22,2.22,0,0,1,.46-1.37,9.77,9.77,0,0,1,.95-1.13A13.2,13.2,0,0,1,284,50.19l1.54-1.38a26.32,26.32,0,0,0,2.74-3A4.94,4.94,0,0,0,289.39,42a2.45,2.45,0,0,1,.83.66,6.86,6.86,0,0,0,.83.75l3.49,3.74c.56.61,1.11,1.25,1.67,1.91l1.66,2a7.5,7.5,0,0,1,1.08,1.5c.06,0,.08.09.08.12S299.06,52.75,299.12,52.8Z"/><path class="cls-3" d="M371.85,78.66s.08.09.08.12,0,.07.09.13H311.5a2.06,2.06,0,0,1-.83-.59l-.75-.74a44.76,44.76,0,0,1-3.49-3.74c-1.22-1.28-2.35-2.58-3.41-3.91a4.23,4.23,0,0,0-.54-.75,5.56,5.56,0,0,1-.54-.75.36.36,0,0,1-.08-.25h60.43a2.48,2.48,0,0,1,.83.67,9.14,9.14,0,0,0,.83.75l3.49,3.74c.56.61,1.11,1.24,1.67,1.91s1.1,1.33,1.66,2a8.37,8.37,0,0,1,.58.67A8.13,8.13,0,0,1,371.85,78.66ZM359.8,96c.22.27.42.52.62.74a7.19,7.19,0,0,1,.54.75.17.17,0,0,0,0,.13.16.16,0,0,1,0,.12h-13.8c-1.22,0-2.43,0-3.65,0s-2.47,0-3.74,0c-1.83-.11-3.68-.25-5.53-.41a26.19,26.19,0,0,0-5.53.08,18.34,18.34,0,0,0-2.45.5,6.37,6.37,0,0,0-2.2,1.08,6.67,6.67,0,0,0-1.87,2,10.73,10.73,0,0,0-1.13,2.58,14.35,14.35,0,0,0-.37,2.83,19,19,0,0,0,.12,2.82,25,25,0,0,0,.5,2.83,18.64,18.64,0,0,0,.92,2.83,28.28,28.28,0,0,0,2.66,4.9c0,.06.08.17.25.33a.83.83,0,0,0,.12.21,1.15,1.15,0,0,1,.13.21c.11.11.16.19.16.25l1.5,1.49q2.07,2.25,4.07,4.49t3.91,4.66l.66.79a6.15,6.15,0,0,1,.46.58c.14.19.18.32.13.37s-.17,0-.34-.16-.34-.35-.54-.54l-.7-.71c-1-1-2-2-2.87-3s-1.84-2.07-2.79-3.12a7.55,7.55,0,0,1-.74-.83l-1.67-1.83-1.66-1.83q-2.08-2.16-4-4.45c-1.3-1.52-2.57-3.09-3.78-4.69a44.58,44.58,0,0,1-3.54-5.53,22.35,22.35,0,0,1-2.2-6.19,24.57,24.57,0,0,1-.37-5.62,8.35,8.35,0,0,1,2-5.19,7.25,7.25,0,0,1,4.49-2.54,27.81,27.81,0,0,1,5.32-.37l2.83.17,2.82.16a30.25,30.25,0,0,0,3.12.17H351.4a1.2,1.2,0,0,1,.75.58,9.14,9.14,0,0,1,.83.75q1.83,1.9,3.49,3.74c.61.66,1.18,1.32,1.71,1.95S359.24,95.28,359.8,96Zm-31.26,28.84a5.16,5.16,0,0,1-.58-.66,4.38,4.38,0,0,0,.5.58A.07.07,0,0,0,328.54,124.79Z"/><path class="cls-3" d="M371.85,78.66s0,.14.17.25a1.65,1.65,0,0,1-.46.08c-.14,0-1.85.53-2,.58a9.35,9.35,0,0,0-3,1.37,8.61,8.61,0,0,0-2.29,2.37,9,9,0,0,0-1.16,2.83,18.06,18.06,0,0,0-.41,3c-.06,1.16-.09,2.34-.09,3.53v39a9.39,9.39,0,0,1-.91-.58c-.22-.17-.42-.31-.58-.42s-.23-.14-.17-.08l-2-1.5c-.66-.5-1.3-1-1.91-1.58L355.18,126c-.64-.53-1.26-1.07-1.87-1.63a7.83,7.83,0,0,1-.66-.54,4.51,4.51,0,0,1-.67-.7c0-.06,0-.09,0-.09s0,0,0-.08V86.47c0-1.11,0-2.24,0-3.41a27.42,27.42,0,0,1,.12-3.41,2.76,2.76,0,0,1,0-.37,1.8,1.8,0,0,0,.05-.37H349.9a2.13,2.13,0,0,1-.83-.59l-.75-.74c-.6-.61-1.2-1.24-1.78-1.87s-1.18-1.26-1.79-1.87-1.11-1.25-1.66-1.92-1.11-1.33-1.66-2c-.23-.28-.42-.53-.59-.75s-.33-.47-.5-.75c0-.05-.08-.09-.08-.12s0-.07-.08-.13h18.45a2.48,2.48,0,0,1,.83.67,10.72,10.72,0,0,0,.83.75l3.5,3.74a10.13,10.13,0,0,0,.91,1,2.29,2.29,0,0,0,.5.42l1.91,1.58c.61.5,1.22,1,1.83,1.58.28.22.51.43.71.62S371.63,78.44,371.85,78.66Z"/><path class="cls-3" d="M422.22,98.77c.06.06.08.1.08.13s0,.07.09.12v.83a3.84,3.84,0,0,1-.09.83,12.57,12.57,0,0,1-.37,2.29,6,6,0,0,1-1,2.12,9.38,9.38,0,0,1-2,2c-.78.58-1.58,1.12-2.41,1.62a32,32,0,0,1-6.74,3c-1,.39-2,.73-3,1s-2,.62-3,1c-1.44.56-2.92,1.18-4.44,1.88a12.54,12.54,0,0,0-3.95,2.78,7.16,7.16,0,0,0-1.25,1.66,5.6,5.6,0,0,0-.46,4.45,10.27,10.27,0,0,0,1,2.29,2,2,0,0,1-.91-.42,2.56,2.56,0,0,0-.42-.33,2.39,2.39,0,0,1-.41-.34l-2-1.49c-.66-.5-1.3-1-1.91-1.5l-1.87-1.54c-.64-.52-1.26-1.06-1.87-1.62a8.78,8.78,0,0,1-.79-.7,3.78,3.78,0,0,1-.62-.79,4.38,4.38,0,0,0-.38-.75,4.37,4.37,0,0,1-.37-.75,8.53,8.53,0,0,1-.54-2.2,4.62,4.62,0,0,1,.29-2.2,7.61,7.61,0,0,1,1.08-1.83,8.87,8.87,0,0,1,1.5-1.5,15.75,15.75,0,0,1,4.19-2.49q2.3-.91,4.62-1.75c.94-.33,1.91-.65,2.91-1s2-.66,3-1c-1.05-.95-2.07-1.89-3-2.83s-1.93-1.91-2.87-2.91l-1.46.5-1.37.5L388,99.31a36.17,36.17,0,0,0-3.32,1.62,39.92,39.92,0,0,0-3.74,2,20.48,20.48,0,0,0-3.41,2.62,9.32,9.32,0,0,0-1.7,2.37,2.81,2.81,0,0,0,0,2.78l.16.17c.11.16.14.25.09.25a.61.61,0,0,1-.29-.13,2.78,2.78,0,0,1-.38-.25c-.11-.08-.16-.09-.16,0L372,108.25c-.72-.61-1.42-1.18-2.12-1.71s-1.37-1.09-2-1.7c-.33-.28-.65-.55-1-.83s-.59-.55-.87-.83l-.5-.5a3.14,3.14,0,0,1-.75-2.58A5.34,5.34,0,0,1,366,97.69a16,16,0,0,1,2.78-2.49,35,35,0,0,1,3.2-2c1.22-.66,2.44-1.29,3.66-1.87s2.47-1.15,3.74-1.7,2.34-.87,3.53-1.29,2.4-.84,3.62-1.29c-.72-1.11-1.4-2.24-2-3.41s-1.26-2.35-1.87-3.57a14,14,0,0,1-1.37-4.49,9.67,9.67,0,0,1,.54-4.57,8.71,8.71,0,0,1,2.45-3.78,8.54,8.54,0,0,1,4-2l1.28-.17a3.55,3.55,0,0,1,1.29.09,7.15,7.15,0,0,1,1.42.29c.44.14.88.29,1.33.46.61.27,1.16.55,1.66.83s1,.58,1.5.91c.94.67,1.88,1.36,2.82,2.08s1.86,1.44,2.74,2.16q2.83,2.25,5.32,4.57c.39.39.77.79,1.13,1.21a7.13,7.13,0,0,1,1.78,4.44A10.79,10.79,0,0,1,409,88.3a11.17,11.17,0,0,1-3.82,3.91,32.75,32.75,0,0,1-4.9,2.49,28.69,28.69,0,0,1-2.91,1.08c.72,1.11,1.45,2.16,2.2,3.16s1.51,2,2.29,3a28.58,28.58,0,0,0,5.57-3,23,23,0,0,0,1.91-1.62,21.36,21.36,0,0,0,2-2c.59-.72,3-3.7,3.12-4.56s.12-1.7.12-2.53l.92.54.62.37c.19.12.26.17.21.17l1.95,1.5c.64.49-1.73,3.09-1.12,3.59s1.32,1.08,2,1.58,1.26,1,1.87,1.58Zm-30.09-14a16.35,16.35,0,0,0,4.66-3.24,11.08,11.08,0,0,0,2.66-5.16,10.38,10.38,0,0,0,.24-1.29,8.87,8.87,0,0,0,.09-1.28,9.1,9.1,0,0,0-3.91,1.41A8.39,8.39,0,0,0,393,78.66a10.29,10.29,0,0,0-.95,4.32,3,3,0,0,0,0,.91A6,6,0,0,0,392.13,84.81Zm45.14-6.15c.05,0,.08.09.08.12s0,.07.08.13H414.82a2.06,2.06,0,0,1-.83-.59,7.55,7.55,0,0,0-.83-.74l-3.49-3.74a20.48,20.48,0,0,1-1.7-1.92c-.53-.66-1.07-1.33-1.63-2l-.58-.75c-.16-.22-.36-.47-.58-.75a.37.37,0,0,0-.08-.25h22.61a2.48,2.48,0,0,1,.83.67,9.14,9.14,0,0,0,.83.75l3.49,3.74c.55.61,1.11,1.24,1.66,1.91l1.67,2a8.37,8.37,0,0,1,.58.67C436.93,78.13,437.1,78.38,437.27,78.66Z"/><path class="cls-3" d="M433.77,78.6c0,.06.06.14.17.25-.17.06,0,.06-.17.06a2.4,2.4,0,0,0-.66.11,15.71,15.71,0,0,0-3.87,1.92A8.58,8.58,0,0,0,427,83.31a9.07,9.07,0,0,0-1.17,2.83,18.06,18.06,0,0,0-.41,3c-.06,1.16-.08,2.34-.08,3.53v39a9.74,9.74,0,0,1-.92-.58c-.22-.17-.41-.31-.58-.42s-.22-.14-.17-.08l-2-1.5a24.26,24.26,0,0,1-1.91-1.58L417.86,126c-.64-.53-1.26-1.07-1.87-1.63a6.6,6.6,0,0,1-.67-.54,5,5,0,0,1-.66-.7c0-.06,0-.09-.05-.09s0,0,0-.08V86.47c0-1.11,0-2.24,0-3.41a27.4,27.4,0,0,1,.13-3.41,1.73,1.73,0,0,1,0-.37,1.73,1.73,0,0,0,0-.37h-2.16a2.06,2.06,0,0,1-.83-.59l-.75-.74c-.61-.61-1.21-1.24-1.79-1.87s-1.18-1.26-1.79-1.87-1.1-1.25-1.66-1.92l-1.66-2c-.22-.28-.42-.53-.58-.75a6.51,6.51,0,0,1-.5-.75c-.06-.05-.08-.09-.08-.12s0-.07-.09-.13h18.46a2.48,2.48,0,0,1,.83.67,9.14,9.14,0,0,0,.83.75l3.49,3.74a11.64,11.64,0,0,0,.91,1,2.29,2.29,0,0,0,.5.42l1.91,1.58c.61.5,1.22,1,1.83,1.58a8.06,8.06,0,0,1,.71.62C432.51,78.73,433.55,78.38,433.77,78.6Z"/><path class="cls-3" d="M457.55,79.16a.19.19,0,0,1,.07.12.26.26,0,0,0,.07.12,1,1,0,0,1-.39.09.65.65,0,0,0-.31.08,7.39,7.39,0,0,0-2.58,1.37,8.06,8.06,0,0,0-1.94,2.37,10,10,0,0,0-1,2.83,20.3,20.3,0,0,0-.35,3c-.05,1.16-.06,2.34,0,3.53s0,2.37,0,3.54v35.49a8.79,8.79,0,0,1-.78-.58,5.35,5.35,0,0,0-.53-.42c-.17-.11-.22-.14-.18-.08l-1.69-1.5a22.07,22.07,0,0,1-1.63-1.58L444.74,126c-.55-.53-1.08-1.07-1.59-1.63a7.08,7.08,0,0,1-.57-.54,2.64,2.64,0,0,1-.49-.7L442,123V86.47c0-1.11,0-2.24,0-3.41a31.94,31.94,0,0,1,.11-3.41,2.62,2.62,0,0,1,0-.37,1.73,1.73,0,0,0,0-.37h-1.84a1.75,1.75,0,0,1-.7-.59l-.64-.74a44.22,44.22,0,0,1-3-3.74c-1-1.28-2-2.58-2.89-3.91-.19-.28-.35-.53-.49-.75a6.46,6.46,0,0,1-.43-.75.41.41,0,0,1-.07-.25H447.6l-.92-1.08-.28-.33-.85-1c-.33-.33-.65-.66-1-1s-.6-.66-.88-1h-.07l-.07-.09-.42-.49a2,2,0,0,1-.5-.42,3.33,3.33,0,0,0-.42-.42,16,16,0,0,0-2-1.74,48.73,48.73,0,0,0-4-3,10.31,10.31,0,0,0-1-.59c-.33-.16-.68-.33-1.06-.49a15,15,0,0,0-2.4-1.09c-.8-.27-1.6-.52-2.4-.74a23.38,23.38,0,0,0-5.44-.67,13.41,13.41,0,0,0-4.45,1,18,18,0,0,0-4.09,2.28A21,21,0,0,0,412,60.58a17.24,17.24,0,0,0-2.55,4.11,15.4,15.4,0,0,0-.86,4.65c-.19,1.69.68,3.53,1.24,5.24.1.28.2.56.32.83s.25.56.39.84a.75.75,0,0,1,.17.29,1.09,1.09,0,0,0,.18.29,7.52,7.52,0,0,0,.56.91c.24.33.33.53.29.58s-.14,0-.29-.16l-.45-.54-.6-.71c-1-1.22-2.7-2.6-3.67-3.84s-2.28-2.56-3.22-3.89c-.66-1-1.34-1.86-1.93-2.91a12.65,12.65,0,0,1-1.3-3.49,13.21,13.21,0,0,1-.15-5.07,13.93,13.93,0,0,1,1.56-4.78,19.32,19.32,0,0,1,2.82-4,17.64,17.64,0,0,1,8-5.15,14.26,14.26,0,0,1,5-.46,24.06,24.06,0,0,1,5,1,28.48,28.48,0,0,1,4.73,2.07,30.74,30.74,0,0,1,4.31,2.91A37.54,37.54,0,0,1,435.63,53q1.94,2,3.84,4.16l4.17,4.9a12.12,12.12,0,0,0,.88,1.08,13.83,13.83,0,0,1,.89,1.08c.18.17.35.34.49.5l.5.58.21.25.14.17.07.08q1.49,1.67,2.82,3.45c.9,1.19,1.79,2.4,2.69,3.62.14.22.4.57.77,1l1.24,1.53c.45.56.87,1.07,1.27,1.54a11.29,11.29,0,0,0,.88,1Zm-10.91-.75a2.25,2.25,0,0,1,.34.5H425.61a2.06,2.06,0,0,1-.83-.59,7.5,7.5,0,0,0-.84-.74l-3.49-3.74a22,22,0,0,1-1.7-1.92c-.53-.66-1.07-1.33-1.62-2a3.73,3.73,0,0,1-.92-1.17.89.89,0,0,1-.33-.58h21.37a2.48,2.48,0,0,1,.83.67,9.14,9.14,0,0,0,.83.75l3.49,3.74c.56.61,1.11,1.24,1.67,1.91l1.66,2a6,6,0,0,1,.46.54C446.32,78,446.48,78.19,446.64,78.41Z"/><g class="cls-4"><g class="cls-5"><rect class="cls-6" x="16.72" y="37.51" width="111.98" height="111.91"/></g></g><path class="cls-3" d="M91.24,93.41a2.2,2.2,0,0,1,.41.34c.24.23.36.37.36.44a3.06,3.06,0,0,1-.43,1.18,9.9,9.9,0,0,1-.72,1c-.29.36-.61.7-.94,1a5,5,0,0,1-1.14.85l-.55.24a1.89,1.89,0,0,1-.6.09,2.55,2.55,0,0,1-.87-.05l-.82-.19a12.72,12.72,0,0,1-1.54-.65c-.49-.24-1-.47-1.55-.7a1.38,1.38,0,0,1-.41-.24c-.11-.1-.23-.19-.36-.29a1.66,1.66,0,0,1-.34-.22,1.94,1.94,0,0,0-.29-.21l-1.1-.9c-.39-.3-.76-.6-1.11-.89L79,94.07l-.25-.22q-.28.44-.6.84a7.42,7.42,0,0,1-.7.8l-.43.43q.67.54,1.32,1.11l1.33,1.16c.26.22.51.46.77.7a2.9,2.9,0,0,1,.63.84,9,9,0,0,1,1,2.61,11.84,11.84,0,0,1,.24,2.77,5.05,5.05,0,0,1-.87,2.63,6.42,6.42,0,0,1-2.86,2.5,8.13,8.13,0,0,1-3.79.73,11.17,11.17,0,0,1-4.12-1,34.23,34.23,0,0,1-3.74-2,.74.74,0,0,0-.24-.17l-.29-.17-.07-.07.21.12-.16-.07a.45.45,0,0,1-.17-.13l-.17-.09-.17-.1a5.15,5.15,0,0,0-.58-.41,2.6,2.6,0,0,1-.53-.41l-1.33-1-1.32-1c-.58-.45-1.16-.92-1.74-1.4s-1.17-1-1.78-1.45l-.1-.1-.72-.43a.3.3,0,0,0-.1-.07l-.09-.07-.2-.1-.19-.1a2.12,2.12,0,0,1-.36-.21,1.75,1.75,0,0,0-.41-.22,10.41,10.41,0,0,0-1.54-.68,14.15,14.15,0,0,0-2.7-.5,6.15,6.15,0,0,0-2.7.36,8.45,8.45,0,0,0-2.2,1.28,17.68,17.68,0,0,0-1.85,1.71c-.42.38-.82.77-1.19,1.16l-1.18,1.2c-.29.29-.59.57-.91.84a7.23,7.23,0,0,1-1.06.75,4.6,4.6,0,0,1-1.31.48,3.85,3.85,0,0,1-1.4.05,4.75,4.75,0,0,1-1.63-.62l-1.07-.7c-.35-.24-.69-.49-1-.75-1.41-1.09-2.75-2.19-4-3.28-.16-.13-.29-.24-.39-.34l-.26-.26c-.08-.08-.11-.14-.07-.17s.05,0,.17,0a3,3,0,0,1,.33.21c.12.08.25.19.41.32l.58.43a1.89,1.89,0,0,0,.68.29,3.74,3.74,0,0,0,2.65-.1,7.92,7.92,0,0,0,2.07-1.39c.74-.71,1.45-1.43,2.12-2.17a23.69,23.69,0,0,1,2.17-2.08c.36-.29.73-.57,1.14-.84A5.64,5.64,0,0,1,43.55,95a7.14,7.14,0,0,1,3-.44,11,11,0,0,1,3.68.92,19.8,19.8,0,0,1,3.31,1.88q1.4,1,2.7,2c.87.66,1.73,1.35,2.6,2l.73.63c.22.19.46.39.72.58l.19.17a1,1,0,0,1,.19.17c.07,0,.11,0,.12.07l.13.07a.31.31,0,0,0,.19.12.5.5,0,0,1,.19.12.14.14,0,0,0,.1,0l.09.1.2.09a.28.28,0,0,0,.09.07l.1.08a.48.48,0,0,0,.22.12.33.33,0,0,1,.21.12q.91.53,1.86,1t1.95.84a11.66,11.66,0,0,0,3,.58A7.78,7.78,0,0,0,75,104a5.33,5.33,0,0,0,1.52-3.13,6.5,6.5,0,0,0,0-1.4,9.08,9.08,0,0,0-.19-1.4c-.06-.25-.12-.49-.17-.72s-.1-.45-.17-.67a5.66,5.66,0,0,1-1,.43,5.25,5.25,0,0,1-1.57.24,11.46,11.46,0,0,1-1.56-.1.86.86,0,0,1-.53-.24,4.86,4.86,0,0,0-.44-.33c-.35-.26-.7-.52-1-.78s-.69-.53-1-.82a23.51,23.51,0,0,1-2-1.68,3.32,3.32,0,0,1-.67-.68l-.1-.1a12.67,12.67,0,0,0,1.74.08,5.32,5.32,0,0,0,1.68-.32,5.23,5.23,0,0,0,1.31-.74A10.26,10.26,0,0,0,74,87.19a10.41,10.41,0,0,0,.7-2.74,9.05,9.05,0,0,0-.12-2.85h-1a9.06,9.06,0,0,0-2.7.43c-.41.17-.84.36-1.27.58a5.82,5.82,0,0,0-1.18.8,3.82,3.82,0,0,0-.87,1.06,2.7,2.7,0,0,0-.34,1.37c-.19-.12-.35-.24-.48-.33a3.4,3.4,0,0,1-.34-.2c-.1-.06-.13-.09-.1-.09l-1-.77c-.34-.26-.69-.53-1-.82s-.69-.53-1-.82-.66-.58-1-.87a3.13,3.13,0,0,1-.68-.68l-.1-.09A2.69,2.69,0,0,1,62,79.55a5.19,5.19,0,0,1,1.23-1.2,6.69,6.69,0,0,1,1.57-.82,9.2,9.2,0,0,1,1.61-.46,7.34,7.34,0,0,1,1.5-.15,12,12,0,0,1,1.49.1,14.44,14.44,0,0,1,1.62.29,4.81,4.81,0,0,1,1.47.63,10.85,10.85,0,0,1,1.28.84q.6.47,1.23,1c.61.45,1.21.92,1.8,1.42s1.17,1,1.72,1.57a6.07,6.07,0,0,1,1.2,1.54,12.58,12.58,0,0,1,.7,2,6.85,6.85,0,0,1,.22,2.07,9.75,9.75,0,0,1-1,3.91,3.23,3.23,0,0,1-.24.5c-.1.18-.19.35-.29.51l1.16.43a5.67,5.67,0,0,0,1.13.29,2.19,2.19,0,0,0,1.14-.09,5,5,0,0,0,1.59-1.06,10.62,10.62,0,0,0,1.4-1.64,8.83,8.83,0,0,0,.43-.8,4,4,0,0,0,.29-.89c.22.13.39.23.5.31l.32.22c.09.06.14.08.14,0,.36.26.7.52,1,.79l1,.85A23.4,23.4,0,0,1,91.24,93.41Zm6.42-10.12a.13.13,0,0,1,0,.07s0,0,0,.07H84.64a1.22,1.22,0,0,1-.49-.33,4.2,4.2,0,0,0-.48-.44l-2-2.17a10.34,10.34,0,0,1-1-1.11c-.31-.38-.62-.77-.94-1.15l-.34-.44L79,77.36a.22.22,0,0,0,0-.15H92.11a1.53,1.53,0,0,1,.48.39,4.8,4.8,0,0,0,.49.43l2,2.17,1,1.11,1,1.16c.13.13.24.26.34.38Z"/><path class="cls-3" d="M97.1,83.34s.59,0,.65.09c-.09,0,.08,0,0,0a4.63,4.63,0,0,0-1.33.31,8,8,0,0,0-1.78.87A4.82,4.82,0,0,0,93.32,86a5,5,0,0,0-.68,1.64,10.43,10.43,0,0,0-.24,1.73c0,.68-.05,1.36-.05,2v22.64a5.6,5.6,0,0,1-.53-.34l-.34-.24c-.09-.06-.12-.08-.09,0l-1.16-.87a14.26,14.26,0,0,1-1.11-.92L88,110.75c-.37-.31-.74-.62-1.09-.94-.13-.1-.26-.2-.38-.31a3.87,3.87,0,0,1-.39-.41s0,0,0,0,0,0,0-.05V87.82c0-.64,0-1.3,0-2a16,16,0,0,1,.07-2,1.8,1.8,0,0,1,0-.22.89.89,0,0,0,0-.22H85a1.27,1.27,0,0,1-.48-.33l-.43-.44c-.36-.35-.7-.71-1-1.08s-.68-.73-1-1.09-.64-.72-1-1.11l-1-1.15-.34-.44c-.1-.13-.19-.27-.29-.43a.18.18,0,0,1-.05-.07s0,0,0-.08H90a1.53,1.53,0,0,1,.48.39A4,4,0,0,0,91,78l2,2.17a5.23,5.23,0,0,0,.53.58,1.17,1.17,0,0,0,.29.24l1.11.92c.35.29.7.59,1.06.91a5.24,5.24,0,0,1,.41.37C96.54,83.33,97,83.21,97.1,83.34Z"/></svg>