<svg id="Layer_1" data-name="Layer 1" xmlns="http://www.w3.org/2000/svg" xmlns:xlink="http://www.w3.org/1999/xlink" viewBox="0 0 220.01 218.15"><defs><style>.cls-1{fill-rule:evenodd;}.cls-2{fill:url(#linear-gradient);}.cls-3{fill:#3eace0;}.cls-4{fill:#394085;}</style><linearGradient id="linear-gradient" x1="33.59" y1="134.06" x2="186.42" y2="134.06" gradientTransform="matrix(1, 0, 0, -1, 0, 220.15)" gradientUnits="userSpaceOnUse"><stop offset="0" stop-color="#3fb2e6"/><stop offset="0.12" stop-color="#3baae0"/><stop offset="0.28" stop-color="#3d98d0"/><stop offset="0.49" stop-color="#3c7ab6"/><stop offset="0.71" stop-color="#3a4e92"/><stop offset="0.78" stop-color="#394085"/></linearGradient></defs><path class="cls-1" d="M182.39,168.82c0,4.75-1.25,6.49-3.63,6.49h-1.88V163.8H179c2.51,0,3.37,2,3.37,5Zm-8.95,21.82q3.45,0,3.45-.69V178.52h1.5c4.26,0,7.85-2.26,7.85-9.3,0-5.93-2.47-8.45-7.85-8.45h-4.22c-.56,0-.72.21-.72.73v29.14Zm-15.08-29.88c-2.38,0-3.57.24-3.57.73v20.43c0,4.94.85,9.12,7.67,9.12a15.52,15.52,0,0,0,7.25-1.53V160.74c-3.46,0-3.49,0-3.49.74v25.6a9.26,9.26,0,0,1-3.76.77c-3.58,0-4.1-2.4-4.1-5.85V160.76Zm-18.51,15.62c0-9.22,1.19-12.46,4.17-12.46s3.93,3,3.93,11.56-1.07,12-4.14,12S139.85,184.31,139.85,176.38Zm-3.88-.85c0,12.29,2.18,15.49,7.68,15.49s8.07-3.88,8.07-15.62-2.05-15-7.6-15S136,164.17,136,175.53ZM129.78,169c0,4.53-1.23,6.27-3.63,6.27h-1.88V163.8h2.13c2.53,0,3.38,2,3.38,5.25Zm-9,21.6c3.41,0,3.45,0,3.45-.69V178.52h1.5a5.14,5.14,0,0,0,.85-.05c1,1.42,3,5,3.5,12.17.76,0,1.49.08,2,.08,1.63,0,1.75-.22,1.75-.85-.43-6.74-2.68-10.53-4-12.29,2.22-1.25,3.71-3.8,3.71-8.37,0-5.93-2.48-8.45-7.85-8.45h-4.23a.71.71,0,0,0-.73.73v29.13Zm-8-30.27c-5.64,0-9.13,2.65-9.13,16,0,12,2.31,14.64,8,14.64a8.71,8.71,0,0,0,5.8-1.88l0-16H112c-.55,0-.8.25-.8.72V176h3.11v10.58a2.91,2.91,0,0,1-2.48,1c-2.78,0-4.39-1.36-4.39-11.48,0-9.55,1.79-12.49,6.14-12.49a5.45,5.45,0,0,1,3.37,1,5.72,5.72,0,0,0,.47-2.18C117.4,161.39,115.69,160.37,112.84,160.37ZM90.74,169c0,4.53-1.23,6.27-3.62,6.27H85.24V163.8h2.13c2.51,0,3.37,2,3.37,5.25Zm-9,21.6c3.42,0,3.46,0,3.46-.69V178.52h1.49a5.26,5.26,0,0,0,.87-.05c1,1.42,3,5,3.49,12.17.77,0,1.5.08,2,.08,1.61,0,1.75-.22,1.75-.85-.44-6.74-2.7-10.53-4-12.29,2.21-1.25,3.71-3.8,3.71-8.37,0-5.93-2.48-8.45-7.86-8.45H82.51a.71.71,0,0,0-.73.73v29.15Zm-10.12-3.12V176h5.76c.65,0,.65-.55.65-3.2H71.66v-8.92h6.79c.65,0,.65-.3.65-3.12H68.9c-.68,0-.72.73-.72.73v29.14H78.29c.69,0,.69-.22.69-3.12H71.66ZM61,190.64c3.51,0,3.46,0,3.46-.69V160.77c-3.54,0-3.46,0-3.46.73v11.43H54.17V160.77c-3.5,0-3.46,0-3.46.73v29.14c3.51,0,3.46,0,3.46-.69V176.13H61v14.51Zm-27.09,0c2.33,0,3.5-.23,3.5-.69v-14a5.66,5.66,0,0,1,1.74,1.15c2.4,2.61,3.55,6.87,4.78,13.53.85.08,1.66.13,2.44.13,1.2,0,1.45-.22,1.41-.85-1.11-8.15-3.46-13.66-6.82-16.22l6.87-11.91c.35-.68-.13-1-1.41-1a10.75,10.75,0,0,0-2.22.26l-6.78,12.68V160.76c-2.33,0-3.5.24-3.5.73v29.15Z"/><path class="cls-2" d="M49.22,42.45l120.65.16v87.56l-15.67-.07a30,30,0,0,0,3.05-4.13,31.41,31.41,0,0,0,3.75-9.32c.37-1.34.36-1.58.25-1.84-1-2.28-8.6-1.22-15.5.23a18.55,18.55,0,0,1-.92,2.37,21.32,21.32,0,0,1-9.4,9.63,21.67,21.67,0,0,1-13.68,1.79A23.09,23.09,0,0,1,111,123.94a21.26,21.26,0,0,1-6.53-24.11,22,22,0,0,1,22.31-14.4A20.86,20.86,0,0,1,135,87.68a33.75,33.75,0,0,1,4,2.67c.79.61,1.43,1.13,1.87,1.53l10.63-10.34a36,36,0,0,0-11.92-8.18,38.05,38.05,0,0,0-11.7-2.75,37.27,37.27,0,0,0-10.46.61A36.56,36.56,0,0,0,99.21,81.38a37.69,37.69,0,0,0-9.56,16.28,38.21,38.21,0,0,0-1.3,9.55,39.5,39.5,0,0,0,.77,7.87,33.76,33.76,0,0,0,3,9,34.32,34.32,0,0,0,4.51,6.73,39.6,39.6,0,0,0,7.25,7,35.86,35.86,0,0,0,8.41,4.65,37.2,37.2,0,0,0,7.41,1.92s2.23.36,4.56.48c4.52.22,28.91.24,62.18,0V27.11H33.59V144.9H49.46L49.18,42.44Z"/><polygon class="cls-3" points="73.97 74.92 45.85 110.21 73.97 145.48 93.65 145.48 65.53 110.21 93.65 74.92 73.97 74.92"/><polygon class="cls-4" points="125.16 101.31 161.23 101.31 161.25 116.01 125.16 116.01 125.16 101.31"/></svg>