<svg id="Layer_1" data-name="Layer 1" xmlns="http://www.w3.org/2000/svg" viewBox="0 0 220.01 218.15"><defs><style>.cls-1,.cls-2{fill:#fff;}.cls-1{fill-rule:evenodd;}</style></defs><path class="cls-1" d="M191.26,176.15c0,5.32-1.39,7.28-4.07,7.28h-2.11V170.51h2.41c2.82,0,3.79,2.25,3.79,5.65Zm-10,24.48c2.59,0,3.89-.25,3.89-.76V187h1.68c4.78,0,8.81-2.54,8.81-10.45,0-6.65-2.78-9.48-8.81-9.48H182c-.62,0-.8.24-.8.82v32.7Zm-16.92-33.54c-2.68,0-4,.28-4,.82v22.94c0,5.55.95,10.24,8.61,10.24a17.31,17.31,0,0,0,8.14-1.72V167.08c-3.88,0-3.92,0-3.92.82v28.74a10.32,10.32,0,0,1-4.22.86c-4,0-4.6-2.68-4.6-6.55V167.09Zm-20.78,17.54c0-10.35,1.34-14,4.68-14s4.41,3.4,4.41,13-1.19,13.47-4.65,13.47S143.51,193.54,143.51,184.63Zm-4.36-.95c0,13.8,2.45,17.38,8.63,17.38s9.06-4.35,9.06-17.53-2.3-16.87-8.54-16.87S139.15,170.92,139.15,183.68Zm-7-7.29c0,5.08-1.38,7-4.07,7H126V170.51h2.39c2.84,0,3.79,2.25,3.79,5.9Zm-10,24.24c3.83,0,3.89,0,3.89-.76V187h1.68a5.38,5.38,0,0,0,.95-.06c1.14,1.59,3.4,5.56,3.92,13.65.86.06,1.68.1,2.3.1,1.83,0,2-.24,2-1-.48-7.56-3-11.82-4.5-13.8,2.49-1.39,4.17-4.26,4.17-9.39,0-6.65-2.78-9.49-8.82-9.49H123a.8.8,0,0,0-.82.82v32.71Zm-9-34c-6.33,0-10.25,3-10.25,18,0,13.46,2.59,16.43,9,16.43a9.8,9.8,0,0,0,6.52-2.11l0-18h-6.28c-.62,0-.9.28-.9.8v2.49h3.49v11.88a3.25,3.25,0,0,1-2.78,1.15c-3.11,0-4.93-1.53-4.93-12.88,0-10.73,2-14,6.9-14a6.14,6.14,0,0,1,3.78,1.14,6.47,6.47,0,0,0,.53-2.44C118.31,167.81,116.39,166.66,113.19,166.66Zm-24.81,9.73c0,5.08-1.38,7-4.07,7H82.2V170.51h2.39c2.82,0,3.79,2.25,3.79,5.9ZM78.32,200.63c3.84,0,3.88,0,3.88-.76V187h1.68a5.49,5.49,0,0,0,1-.06c1.15,1.59,3.4,5.56,3.92,13.65.86.06,1.68.1,2.3.1,1.81,0,2-.24,2-1-.48-7.56-3-11.82-4.5-13.8,2.49-1.39,4.17-4.26,4.17-9.39,0-6.65-2.79-9.49-8.82-9.49H79.14a.8.8,0,0,0-.82.82v32.71ZM67,197.14V184.21h6.47c.72,0,.72-.61.72-3.58H67v-10h7.62c.73,0,.73-.33.73-3.5H63.86c-.77,0-.81.82-.81.82v32.7H74.41c.76,0,.76-.24.76-3.49H67Zm-12,3.49c3.93,0,3.88,0,3.88-.76V167.11c-4,0-3.88,0-3.88.82v12.83H47.33V167.11c-3.94,0-3.88,0-3.88.82v32.7c3.93,0,3.88,0,3.88-.76V184.35h7.61v16.28Zm-30.41,0c2.61,0,3.92-.25,3.92-.76V184.11a6.12,6.12,0,0,1,2,1.29c2.69,2.93,4,7.71,5.36,15.18,1,.09,1.87.15,2.74.15,1.35,0,1.63-.24,1.59-1-1.25-9.15-3.88-15.33-7.66-18.2l7.71-13.37c.39-.77-.14-1.16-1.58-1.16a11.55,11.55,0,0,0-2.49.3l-7.62,14.23V167.09c-2.61,0-3.92.28-3.92.82v32.71Z"/><path class="cls-2" d="M41.77,34.29l135.44.17v98.3l-17.59-.08A33.67,33.67,0,0,0,163,128a35.08,35.08,0,0,0,4.21-10.47c.42-1.5.4-1.77.28-2-1.1-2.57-9.65-1.37-17.4.25a19.42,19.42,0,0,1-1,2.66,23.92,23.92,0,0,1-10.55,10.81,24.23,24.23,0,0,1-15.36,2,25.83,25.83,0,0,1-12.1-5.49,23.87,23.87,0,0,1-7.33-27.07,24.69,24.69,0,0,1,25-16.16A23.78,23.78,0,0,1,138,85.05a39.25,39.25,0,0,1,4.5,3c.89.69,1.6,1.28,2.1,1.72l11.93-11.61A40.63,40.63,0,0,0,143.17,69,43.22,43.22,0,0,0,130,65.89a42,42,0,0,0-11.74.69A41,41,0,0,0,97.88,78,42.28,42.28,0,0,0,87.16,96.26,43.65,43.65,0,0,0,85.69,107a44.85,44.85,0,0,0,.86,8.82A36.47,36.47,0,0,0,95,133.48a43.84,43.84,0,0,0,8.14,7.89,40.25,40.25,0,0,0,9.43,5.23,41.75,41.75,0,0,0,8.32,2.15s2.51.4,5.12.54c5.08.25,32.45.27,69.81,0V17.06H24.22V149.29H42l-.3-115Z"/><polygon class="cls-2" points="69.56 70.73 37.99 110.34 69.56 149.95 91.65 149.95 60.08 110.34 91.65 70.73 69.56 70.73"/><polygon class="cls-2" points="127.02 100.36 167.5 100.36 167.53 116.86 127.02 116.86 127.02 100.36"/></svg>