<svg width="211" height="83" viewBox="0 0 211 83" fill="none" xmlns="http://www.w3.org/2000/svg">
<path d="M104.791 42.672C104.907 42.7435 105.013 42.8301 105.106 42.9295C105.289 43.1027 105.382 43.2137 105.382 43.2625C105.33 43.5775 105.217 43.8792 105.049 44.1505C104.882 44.4271 104.698 44.6926 104.497 44.9452C104.275 45.2161 104.052 45.478 103.777 45.7355C103.514 45.9942 103.214 46.2127 102.887 46.3838C102.74 46.4548 102.598 46.517 102.442 46.5658C102.3 46.6171 102.149 46.6427 101.998 46.6413C101.775 46.6672 101.549 46.6552 101.33 46.6058C101.108 46.5569 100.886 46.5081 100.703 46.4548C100.299 46.3149 99.9033 46.1488 99.5202 45.9575C99.1511 45.7755 98.7552 45.5979 98.3372 45.4247C98.2222 45.3807 98.1154 45.3177 98.0214 45.2383C97.9369 45.1628 97.8435 45.0917 97.7456 45.0163C97.6531 44.9725 97.5664 44.9173 97.4877 44.852C97.412 44.7898 97.3364 44.7365 97.2653 44.6833L96.4158 44.004C96.1178 43.7686 95.8331 43.56 95.5618 43.3202L95.3795 43.1515C95.3136 43.1009 95.2512 43.0461 95.1927 42.9872C95.0459 43.2092 94.8902 43.4312 94.7479 43.6354C94.5824 43.8488 94.4042 44.0519 94.2142 44.2437L93.8806 44.5767C94.2275 44.8475 94.5656 45.1273 94.8991 45.4247C95.2327 45.7222 95.5707 46.0152 95.9132 46.3127C96.1133 46.4859 96.309 46.6635 96.5047 46.85C96.7014 47.0348 96.864 47.2527 96.9851 47.4937C97.3477 48.1134 97.6104 48.7861 97.7634 49.4873C97.9093 50.1848 97.9705 50.8974 97.9458 51.6096C97.9171 52.3286 97.6875 53.0252 97.2831 53.6208C96.7527 54.4696 95.9775 55.1383 95.0592 55.5389C94.152 55.956 93.1568 56.1465 92.1594 56.0939C91.0663 56.049 89.9923 55.7927 88.9971 55.3391C88.0116 54.8879 87.0551 54.3764 86.1329 53.8073C86.0785 53.754 86.0153 53.7104 85.9461 53.6786C85.8696 53.6381 85.7954 53.5936 85.7237 53.5454L85.6703 53.4921C85.722 53.5285 85.7771 53.5597 85.8349 53.5853C85.7933 53.563 85.7502 53.5437 85.7059 53.5276C85.6552 53.5088 85.6106 53.4765 85.5769 53.4344C85.5324 53.4135 85.4893 53.3898 85.4479 53.3633C85.4067 53.3353 85.3636 53.3101 85.3189 53.2878C85.1793 53.1725 85.0306 53.0685 84.8742 52.9771C84.7262 52.8899 84.5901 52.784 84.4694 52.6618C84.1225 52.4176 83.7845 52.169 83.4509 51.9248C83.1174 51.6806 82.7793 51.4186 82.4324 51.1478C81.9877 50.8059 81.5429 50.4463 81.0981 50.0778C80.6534 49.7093 80.2086 49.3408 79.7327 48.9722L79.6571 48.8968L79.1012 48.5638C79.0797 48.5432 79.0558 48.5253 79.03 48.5105C79.0017 48.4956 78.9762 48.4761 78.9544 48.4528L78.8076 48.3817L78.6608 48.3063C78.563 48.2595 78.4692 48.2045 78.3806 48.142C78.2841 48.0733 78.1796 48.0167 78.0693 47.9733C77.6893 47.7705 77.2937 47.5983 76.8862 47.4582C76.2105 47.2589 75.5159 47.1294 74.8136 47.0719C74.1123 47.0085 73.4057 47.1026 72.7455 47.3472C72.138 47.5871 71.5698 47.9163 71.0598 48.324C70.5582 48.7302 70.0828 49.1677 69.6366 49.6338C69.3164 49.9313 69.0139 50.2243 68.7471 50.5218C68.4802 50.8192 68.16 51.1256 67.8575 51.4453C67.6352 51.6628 67.4128 51.8893 67.1548 52.0891C66.9013 52.304 66.6289 52.4957 66.3409 52.6618C66.0277 52.8306 65.6924 52.9546 65.3446 53.0303C64.9924 53.1068 64.6293 53.1188 64.2727 53.0658C63.8269 52.9857 63.4 52.8231 63.0141 52.5863C62.7428 52.4176 62.4715 52.2356 62.2002 52.0535C61.9289 51.8715 61.6709 51.6762 61.4263 51.4808C60.341 50.6461 59.3181 49.8099 58.3574 48.9722C58.2529 48.8909 58.1534 48.8034 58.0594 48.7103C57.9882 48.6392 57.9171 48.5726 57.8593 48.5105C57.8014 48.4483 57.7792 48.4039 57.8015 48.3817C57.8237 48.3595 57.8459 48.3817 57.9304 48.4172C58.0149 48.4528 58.1039 48.5238 58.1884 48.5815C58.2729 48.6392 58.3796 48.7236 58.5042 48.8213L58.9489 49.1543C59.1042 49.2622 59.2797 49.3377 59.4649 49.3763C60.1289 49.5998 60.8519 49.5729 61.4974 49.3008C62.081 49.0295 62.6183 48.6684 63.0897 48.2308C63.656 47.695 64.1986 47.1415 64.7175 46.5702C65.2356 46.0051 65.7913 45.4755 66.3809 44.9852C66.6522 44.7632 66.9413 44.5412 67.2482 44.337C67.5524 44.1312 67.8811 43.9641 68.2267 43.8397C68.9465 43.5716 69.7149 43.4581 70.4816 43.5067C71.4582 43.5747 72.4154 43.8121 73.3103 44.2082C74.1985 44.6094 75.0472 45.0925 75.8455 45.6512C76.5571 46.1396 77.2465 46.6413 77.9136 47.143C78.5808 47.6447 79.2479 48.1731 79.9106 48.7103L80.4666 49.1942C80.6356 49.3408 80.8224 49.4873 81.0181 49.6382C81.0641 49.686 81.1148 49.7291 81.1693 49.767C81.2204 49.8074 81.2694 49.8503 81.3161 49.8957C81.3492 49.9116 81.3805 49.9309 81.4095 49.9535C81.4352 49.9771 81.4655 49.9952 81.4984 50.0067C81.538 50.0527 81.5908 50.0852 81.6496 50.1C81.7059 50.1177 81.7565 50.1499 81.7964 50.1932C81.8049 50.204 81.8157 50.2128 81.828 50.2189C81.8403 50.2251 81.8538 50.2284 81.8676 50.2287L81.9432 50.3042L82.09 50.3797C82.113 50.4004 82.1383 50.4183 82.1656 50.433L82.2412 50.4863C82.283 50.536 82.3415 50.5691 82.4057 50.5795C82.4686 50.5936 82.5259 50.626 82.5703 50.6727C83.0417 50.9436 83.5132 51.1966 83.9935 51.4275C84.4739 51.6584 84.9765 51.8715 85.4924 52.0757C86.2277 52.3206 86.9916 52.4698 87.7651 52.5197C88.5507 52.567 89.3377 52.4537 90.0779 52.1867C90.9375 51.8908 91.7159 51.3982 92.3506 50.7482C92.9958 50.0992 93.4059 49.254 93.5159 48.3462C93.566 47.9918 93.5779 47.6331 93.5515 47.2762C93.5303 46.9163 93.4813 46.5585 93.4047 46.2062C93.3558 46.0108 93.3113 45.8243 93.2757 45.6556C93.2402 45.4869 93.1957 45.3093 93.1468 45.1361C92.8992 45.2729 92.6384 45.3845 92.3684 45.4691C91.9802 45.593 91.5751 45.6559 91.1676 45.6556C90.7661 45.6552 90.3651 45.63 89.9667 45.5801C89.8128 45.5671 89.6682 45.5012 89.5575 45.3937C89.4108 45.2738 89.2996 45.185 89.2284 45.1361C88.9571 44.9408 88.6902 44.7454 88.4323 44.5456C88.1743 44.3458 87.9075 44.1416 87.6361 43.9196C87.1086 43.5138 86.6024 43.0811 86.1195 42.6231C85.924 42.4767 85.7502 42.3033 85.6036 42.1081L85.528 42.0326C85.971 42.0814 86.4168 42.0992 86.8623 42.0859C87.3039 42.0768 87.741 41.9958 88.1565 41.8462C88.5136 41.7099 88.8492 41.523 89.1528 41.2912C89.4562 41.0487 89.7402 40.7829 90.0023 40.4964C90.6883 39.7406 91.2282 38.8645 91.5945 37.9124C91.8679 37.2385 92.0475 36.5304 92.1283 35.8079C92.2178 35.0825 92.1862 34.3473 92.0349 33.6323H91.261C90.5569 33.6344 89.8575 33.7467 89.1884 33.9653C88.8543 34.0953 88.5277 34.2435 88.2099 34.4093C87.8916 34.5783 87.5932 34.7823 87.3204 35.0175C87.0542 35.2483 86.83 35.5231 86.6577 35.8301C86.4819 36.1526 86.3931 36.5152 86.3997 36.8823C86.2485 36.7846 86.1284 36.7003 86.0261 36.6248C85.9375 36.5808 85.8513 36.5319 85.7681 36.4783C85.697 36.4294 85.6703 36.4028 85.697 36.4028C85.4257 36.2074 85.1588 36.0121 84.9009 35.8123C84.6429 35.6125 84.376 35.4083 84.1047 35.1863C83.8351 34.9908 83.5767 34.7803 83.3308 34.5558C83.0818 34.3382 82.8238 34.1118 82.5525 33.8942C82.357 33.7478 82.1832 33.5744 82.0366 33.3792L81.961 33.3037C81.9539 32.8601 82.0895 32.426 82.3479 32.065C82.6096 31.7091 82.9281 31.3986 83.2908 31.1459C83.6626 30.883 84.068 30.6709 84.4961 30.5155C84.8975 30.3637 85.3112 30.2464 85.7326 30.1647C86.1106 30.0913 86.4949 30.0542 86.8801 30.0537C87.2623 30.0538 87.6442 30.079 88.0231 30.1292C88.4408 30.1783 88.8552 30.2524 89.264 30.3512C89.6636 30.4461 90.0442 30.6082 90.3892 30.8307C90.7301 31.0245 91.0584 31.2395 91.3722 31.4745C91.679 31.7098 91.9948 31.9629 92.3151 32.2337C92.7598 32.5756 93.2446 32.9397 93.6983 33.3215C94.1519 33.7033 94.5878 34.1029 95.0326 34.5203C95.4046 34.8599 95.7172 35.259 95.9577 35.7013C96.1778 36.1906 96.3578 36.6969 96.4958 37.2153C96.6307 37.7323 96.6862 38.2667 96.6604 38.8004C96.6299 39.8389 96.3782 40.859 95.9221 41.7929C95.869 41.9259 95.8066 42.0549 95.7353 42.1792C95.6641 42.3168 95.5885 42.4455 95.5129 42.5654L96.4024 42.8984C96.6911 43.0008 96.989 43.0751 97.292 43.1204C97.5899 43.1755 97.8972 43.1494 98.1815 43.0449C98.6372 42.8567 99.0513 42.5806 99.4001 42.2324C99.8024 41.8556 100.162 41.4357 100.472 40.9804C100.596 40.785 100.708 40.5818 100.806 40.3721C100.907 40.1539 100.981 39.9243 101.028 39.6884C101.197 39.786 101.326 39.8659 101.415 39.9281L101.655 40.0924C101.731 40.1457 101.766 40.1545 101.766 40.1323C102.038 40.3277 102.3 40.5319 102.562 40.7406L103.354 41.3844C103.855 41.7884 104.335 42.2182 104.791 42.672ZM109.71 34.9243C109.732 34.9243 109.745 34.9643 109.745 34.9776C109.745 34.9909 109.745 35.0087 109.781 35.0353H99.7248C99.5823 34.9791 99.4557 34.8892 99.3557 34.7734C99.2409 34.6549 99.1175 34.5451 98.9865 34.4448L97.4343 32.7843C97.1647 32.5162 96.9121 32.2314 96.6782 31.9318C96.4425 31.6388 96.2023 31.3413 95.9577 31.0438C95.8554 30.9195 95.7709 30.8085 95.6953 30.7108C95.6196 30.6131 95.5351 30.5021 95.4373 30.3778C95.4394 30.3377 95.4268 30.2982 95.4017 30.2668H105.458C105.601 30.3381 105.727 30.4396 105.827 30.5643C105.943 30.6827 106.066 30.7939 106.196 30.8973L107.748 32.5578C107.997 32.8287 108.242 33.1084 108.487 33.4059L109.229 34.2938C109.321 34.3884 109.407 34.4877 109.487 34.5913C109.568 34.6981 109.642 34.8093 109.71 34.9243Z" fill="white"/>
<path d="M109.71 34.9246C109.721 34.9684 109.746 35.0074 109.781 35.0356C109.716 35.057 109.649 35.0689 109.581 35.0711C109.519 35.0711 108.798 35.3064 108.749 35.3286C108.272 35.4514 107.82 35.6573 107.415 35.9369C107.012 36.2191 106.668 36.5764 106.401 36.9891C106.146 37.3727 105.961 37.798 105.854 38.2456C105.756 38.6838 105.695 39.1293 105.671 39.5776C105.645 40.0926 105.631 40.6166 105.631 41.1449V58.4606C105.492 58.3826 105.356 58.2966 105.227 58.2031C105.129 58.1276 105.04 58.0655 104.969 58.0166C104.897 57.9678 104.871 57.9545 104.893 57.9811L104.003 57.3151C103.707 57.0959 103.422 56.8618 103.15 56.6136L102.331 55.9432C102.051 55.7079 101.771 55.4681 101.499 55.2195C101.397 55.1449 101.299 55.0649 101.206 54.9797C101.097 54.886 100.997 54.7819 100.908 54.6689C100.908 54.6423 100.908 54.629 100.908 54.629C100.908 54.629 100.908 54.629 100.908 54.5935V38.3922C100.908 37.8993 100.908 37.3976 100.908 36.8781C100.894 36.3729 100.912 35.8672 100.961 35.3641C100.963 35.3087 100.97 35.2537 100.984 35.1998C100.987 35.1452 100.987 35.0903 100.984 35.0356H100.023C99.8784 34.9808 99.7499 34.8907 99.6493 34.7736L99.3201 34.4451C99.0488 34.1742 98.782 33.8945 98.524 33.6148C98.266 33.3351 97.9992 33.0554 97.7279 32.7845C97.4566 32.5137 97.2342 32.2295 96.9896 31.9321L96.2513 31.0441L95.9889 30.7111C95.9101 30.6042 95.8374 30.493 95.7709 30.3781C95.7442 30.3544 95.7309 30.3367 95.7309 30.3248C95.7309 30.3248 95.7309 30.2937 95.6953 30.2671H103.901C104.045 30.3372 104.171 30.4389 104.27 30.5646C104.388 30.6832 104.513 30.7945 104.644 30.8976L106.196 32.5581C106.321 32.7149 106.456 32.8633 106.601 33.0021C106.666 33.0745 106.741 33.1373 106.823 33.1886L107.633 33.8901C107.904 34.1121 108.175 34.3341 108.447 34.5916C108.571 34.6893 108.673 34.7825 108.762 34.8669C108.851 34.9512 109.612 34.8269 109.71 34.9246Z" fill="white"/>
<path d="M113.294 34.7736C113.179 34.6552 113.056 34.5454 112.925 34.4451L111.372 32.7845C111.103 32.5153 110.849 32.2307 110.612 31.9321C110.381 31.639 110.14 31.3416 109.891 31.0441L109.633 30.7111L109.375 30.3781C109.378 30.338 109.365 30.2985 109.34 30.2671H131.578C131.72 30.3395 131.846 30.4408 131.947 30.5646C132.063 30.683 132.187 30.7942 132.316 30.8976L133.873 32.5625C134.118 32.8334 134.367 33.1131 134.611 33.4106C134.856 33.708 135.105 34.0011 135.35 34.2985C135.443 34.392 135.531 34.4913 135.612 34.596C135.683 34.6937 135.759 34.8047 135.834 34.929C135.857 34.929 135.87 34.969 135.87 34.9823C135.87 34.9956 135.87 35.0134 135.906 35.04H113.667C113.522 34.9843 113.394 34.8926 113.294 34.7736ZM122.683 46.7348V55.5525C122.694 55.5616 122.704 55.573 122.711 55.586C122.718 55.599 122.722 55.6133 122.723 55.628C122.745 55.777 122.731 55.9292 122.683 56.0719C122.63 56.2251 122.542 56.3635 122.425 56.476C122.327 56.5524 122.212 56.6054 122.09 56.6308C121.969 56.6562 121.843 56.6533 121.722 56.6225C121.425 56.5999 121.132 56.5325 120.855 56.4227C120.569 56.3115 120.291 56.181 120.023 56.032C119.8 55.8626 119.601 55.664 119.432 55.4415C119.339 55.3755 119.253 55.3012 119.174 55.2195L118.951 55.0019C118.68 54.6822 118.4 54.3715 118.119 54.0784C117.839 53.7854 117.559 53.4746 117.288 53.1549C117.165 52.9843 117.028 52.8239 116.879 52.6754C116.73 52.528 116.594 52.3675 116.474 52.1959L116.363 52.0849C115.894 51.5935 115.438 51.0637 114.993 50.4954C114.873 50.3755 114.748 50.2468 114.624 50.1091C114.499 49.9715 114.379 49.8339 114.254 49.6651C114.233 49.6418 114.207 49.6223 114.179 49.6074C114.146 49.5848 114.121 49.5521 114.108 49.5142C114.059 49.5142 114.032 49.5142 114.032 49.4431L113.997 49.4032L113.329 48.7416C113.107 48.5196 112.885 48.2976 112.667 48.0401C112.097 47.423 111.555 46.8103 111.039 46.1931L110.67 45.7491L110.301 45.3051C110.254 45.2624 110.216 45.2112 110.189 45.1542L110.114 45.0077C109.985 44.7206 109.879 44.4236 109.798 44.1197C109.715 43.8191 109.696 43.5043 109.745 43.1962C109.773 42.9414 109.875 42.7006 110.04 42.5039C110.204 42.3072 110.424 42.1634 110.67 42.0906C110.906 41.9935 111.154 41.9307 111.408 41.9041C111.653 41.9041 111.915 41.8686 112.186 41.8686C112.458 41.8686 112.724 41.9041 112.996 41.9041H128.562C128.705 41.9752 128.83 42.075 128.932 42.1972C128.99 42.2576 129.052 42.3139 129.118 42.3659C129.19 42.4281 129.252 42.4813 129.301 42.5302L130.853 44.1907C131.123 44.4599 131.377 44.7445 131.614 45.0432C131.845 45.3362 132.085 45.6337 132.334 45.9312C132.43 46.0279 132.516 46.1334 132.592 46.2464C132.668 46.3574 132.752 46.4728 132.85 46.5971C132.849 46.6174 132.851 46.6377 132.858 46.6568C132.865 46.6759 132.876 46.6934 132.89 46.7081L122.683 46.7348ZM118.208 51.6187C118.301 51.5134 118.365 51.3867 118.395 51.2502V46.7348H117.915C117.754 46.7336 117.593 46.7203 117.435 46.6948H116.363C116.009 46.6954 115.657 46.7266 115.309 46.7881C114.965 46.8501 114.652 47.0251 114.419 47.2853C114.205 47.5192 114.075 47.8176 114.05 48.1334C114.028 48.4586 114.065 48.7852 114.161 49.0968C114.21 49.1693 114.267 49.2363 114.33 49.2966C114.391 49.3598 114.446 49.4281 114.495 49.5009L115.197 50.2778C115.42 50.522 115.642 50.7796 115.86 51.0504C115.952 51.139 116.04 51.2323 116.122 51.3301C116.194 51.4145 116.269 51.4944 116.345 51.5699C116.546 51.6695 116.756 51.7498 116.972 51.8096C117.188 51.8688 117.412 51.8869 117.635 51.8629C117.743 51.8654 117.852 51.8436 117.951 51.7991C118.05 51.7545 118.138 51.6883 118.208 51.6054V51.6187Z" fill="white"/>
<path d="M136.734 35.1466C136.734 35.1732 136.779 35.1821 136.81 35.2221C136.773 35.2386 136.734 35.252 136.694 35.262L136.436 35.3286C135.967 35.4736 135.519 35.678 135.102 35.9369C134.698 36.2189 134.352 36.5762 134.083 36.9891C133.841 37.3755 133.666 37.8005 133.568 38.2456C133.47 38.684 133.408 39.1294 133.381 39.5776C133.359 40.0926 133.345 40.6166 133.345 41.1449V58.4606C133.205 58.3826 133.07 58.2966 132.94 58.2031C132.843 58.1276 132.754 58.0655 132.682 58.0166C132.611 57.9678 132.58 57.9545 132.607 57.9811L131.717 57.3151C131.424 57.0931 131.139 56.8711 130.868 56.6136L130.023 55.9432C129.738 55.7079 129.462 55.4681 129.191 55.2195C129.089 55.1449 128.991 55.0649 128.898 54.9797C128.787 54.8871 128.687 54.7829 128.6 54.6689C128.6 54.6423 128.6 54.629 128.6 54.629C128.6 54.629 128.6 54.629 128.6 54.5935V38.3922C128.6 37.8993 128.6 37.3976 128.6 36.8781C128.586 36.3729 128.604 35.8672 128.653 35.3641C128.647 35.3095 128.647 35.2545 128.653 35.1998C128.659 35.1452 128.659 35.0902 128.653 35.0356H127.692C127.549 34.9805 127.422 34.8904 127.323 34.7736L126.99 34.4451C126.723 34.1742 126.456 33.8945 126.198 33.6148C125.94 33.3351 125.673 33.0554 125.402 32.7845C125.13 32.5137 124.908 32.2295 124.663 31.9321L123.921 31.0441L123.663 30.7111C123.592 30.6134 123.516 30.5024 123.44 30.3781C123.418 30.3559 123.405 30.3381 123.405 30.3248C123.405 30.3115 123.405 30.2937 123.369 30.2671H131.575C131.722 30.3426 131.642 30.2671 131.744 30.3781C131.86 30.4965 131.983 30.6077 132.113 30.7111L133.665 32.3716C133.792 32.5273 133.927 32.6756 134.07 32.8156C134.21 32.9498 134.358 33.0744 134.515 33.1886L135.364 33.8901C135.636 34.1121 135.907 34.3341 136.178 34.5916C136.303 34.6893 136.405 34.7825 136.494 34.8669C136.583 34.9512 136.716 35.1155 136.734 35.1466Z" fill="white"/>
<path d="M133.038 23.4426V23.8866C132.991 24.1769 132.896 24.4574 132.757 24.7168C132.621 24.976 132.454 25.2175 132.259 25.4361C132.061 25.6846 131.845 25.919 131.614 26.1376C131.379 26.3596 131.17 26.5816 130.93 26.8036C130.689 27.0256 130.485 27.2032 130.28 27.4119C130.076 27.616 129.884 27.8325 129.706 28.0601C129.587 28.2057 129.488 28.367 129.413 28.5396C129.338 28.7137 129.326 28.908 129.377 29.0902C129.37 29.1086 129.37 29.1294 129.377 29.1479C129.384 29.165 129.384 29.1841 129.377 29.2012C129.426 29.2766 129.444 29.3122 129.431 29.3122C129.398 29.2995 129.368 29.2815 129.342 29.2589L129.19 29.1301C129.142 29.0813 129.106 29.0413 129.079 29.0191C128.835 28.7971 128.599 28.5751 128.381 28.3531C128.158 28.1309 127.947 27.8968 127.749 27.6516L126.918 26.7636C126.638 26.4573 126.357 26.1465 126.086 25.8224C125.939 25.627 125.784 25.4317 125.641 25.2319C125.499 25.0321 125.33 24.8412 125.197 24.6414C125.146 24.5654 125.103 24.4852 125.068 24.4016C125.037 24.3002 125.037 24.1922 125.068 24.0908C125.066 23.871 125.138 23.6568 125.272 23.4825C125.4 23.3049 125.541 23.1372 125.695 22.9808C125.882 22.7325 126.089 22.4994 126.313 22.2838L126.998 21.6711C127.438 21.2591 127.845 20.8137 128.216 20.3391C128.411 20.1065 128.556 19.8361 128.641 19.5449C128.726 19.2538 128.749 18.9482 128.71 18.6475C128.853 18.7171 128.979 18.8171 129.079 18.9405C129.193 19.0613 129.317 19.1727 129.448 19.2735L131.001 20.934C131.25 21.2049 131.494 21.489 131.743 21.7821L132.482 22.67C132.669 22.8714 132.83 23.0951 132.962 23.336C132.989 23.336 132.998 23.376 132.998 23.3893C132.998 23.4026 133.011 23.4204 133.038 23.4426Z" fill="white"/>
<path d="M165.385 34.9245C165.385 34.9245 165.421 34.9645 165.421 34.9778C165.421 34.9911 165.421 35.0089 165.461 35.0355H138.544C138.401 34.9804 138.274 34.8904 138.175 34.7736L137.841 34.445C137.292 33.9215 136.774 33.3671 136.289 32.7845C135.746 32.2162 135.244 31.639 134.772 31.0485C134.704 30.9291 134.624 30.8174 134.532 30.7155C134.443 30.6113 134.362 30.4999 134.292 30.3825C134.266 30.3513 134.254 30.3116 134.256 30.2715H161.133C161.276 30.3427 161.402 30.4442 161.502 30.569C161.618 30.6874 161.742 30.7986 161.872 30.902L163.424 32.5625C163.673 32.8333 163.917 33.113 164.166 33.4105C164.416 33.708 164.656 34.001 164.905 34.2985C164.996 34.393 165.082 34.4923 165.163 34.596C165.243 34.7013 165.317 34.811 165.385 34.9245ZM160.026 42.6234C160.124 42.7432 160.213 42.8542 160.302 42.9519C160.389 43.0577 160.469 43.1689 160.542 43.2849C160.534 43.3034 160.534 43.3242 160.542 43.3426C160.549 43.3597 160.549 43.3788 160.542 43.3959H154.404C153.861 43.3959 153.323 43.3959 152.781 43.3959C152.238 43.3959 151.682 43.3959 151.117 43.3959C150.303 43.3471 149.48 43.2849 148.658 43.2139C147.839 43.139 147.014 43.1509 146.198 43.2494C145.83 43.2986 145.466 43.3727 145.108 43.4714C144.754 43.5665 144.422 43.7293 144.13 43.9509C143.794 44.1863 143.511 44.4887 143.298 44.8389C143.081 45.197 142.912 45.5822 142.796 45.9844C142.699 46.3967 142.644 46.8176 142.631 47.2409C142.618 47.659 142.636 48.0775 142.684 48.4929C142.734 48.9157 142.809 49.3352 142.907 49.7494C143.009 50.1785 143.146 50.5987 143.316 51.0059C143.638 51.7683 144.034 52.497 144.499 53.1815C144.499 53.2081 144.535 53.257 144.61 53.328C144.623 53.3615 144.641 53.393 144.664 53.4213C144.686 53.4502 144.706 53.4814 144.721 53.5145C144.77 53.5633 144.793 53.5989 144.793 53.6255L145.46 54.2871C146.074 54.953 146.677 55.6175 147.27 56.2806C147.863 56.9436 148.443 57.6333 149.009 58.3496L149.303 58.7003C149.376 58.782 149.444 58.868 149.507 58.9579C149.569 59.0422 149.587 59.0999 149.565 59.1221C149.543 59.1443 149.489 59.1221 149.414 59.0511C149.338 58.9801 149.262 58.8957 149.174 58.8113L148.862 58.4961C148.417 58.0521 147.973 57.6081 147.586 57.1641C147.199 56.7201 146.767 56.2451 146.345 55.7789C146.226 55.6643 146.116 55.5411 146.016 55.4104L145.273 54.5978L144.535 53.7853C143.918 53.146 143.325 52.4874 142.756 51.8096C142.177 51.1347 141.613 50.4376 141.074 49.7272C140.49 48.9486 139.964 48.1279 139.5 47.272C139.04 46.409 138.71 45.4829 138.521 44.5237C138.371 43.701 138.316 42.8637 138.357 42.0284C138.381 41.1814 138.695 40.3681 139.246 39.7241C139.751 39.1165 140.462 38.7151 141.243 38.5963C142.025 38.4661 142.817 38.411 143.61 38.4321L144.868 38.5076L146.122 38.5786C146.583 38.6276 147.047 38.6528 147.51 38.6541H156.29C156.36 38.6721 156.426 38.7043 156.483 38.7485C156.54 38.7928 156.588 38.8483 156.623 38.9116C156.753 39.015 156.876 39.1262 156.992 39.2446C157.535 39.807 158.052 40.3605 158.545 40.9051C158.816 41.1981 159.07 41.4912 159.305 41.7709C159.541 42.0506 159.777 42.3037 160.026 42.6234ZM146.122 55.4281C146.028 55.3379 145.942 55.2399 145.864 55.1351C145.931 55.2272 146.005 55.3134 146.087 55.3926C146.091 55.3984 146.096 55.4029 146.102 55.4053C146.109 55.4077 146.116 55.4079 146.122 55.4059V55.4281Z" fill="white"/>
<path d="M165.384 34.9246C165.384 34.9246 165.384 34.9867 165.46 35.0356C165.394 35.057 165.325 35.069 165.255 35.0711C165.193 35.0711 164.433 35.3064 164.366 35.3286C163.889 35.4508 163.437 35.6568 163.032 35.9369C162.627 36.2189 162.282 36.5762 162.013 36.9891C161.771 37.3755 161.596 37.8005 161.497 38.2456C161.399 38.6838 161.338 39.1293 161.315 39.5776C161.288 40.0926 161.275 40.6166 161.275 41.1449V58.4606C161.135 58.3826 161 58.2966 160.87 58.2031C160.772 58.1276 160.683 58.0655 160.612 58.0166C160.541 57.9678 160.51 57.9545 160.537 57.9811L159.647 57.3151C159.353 57.0931 159.069 56.8711 158.798 56.6136L157.97 55.9432C157.686 55.7079 157.41 55.4681 157.139 55.2195C157.036 55.1449 156.938 55.0649 156.845 54.9797C156.735 54.8871 156.635 54.7829 156.547 54.6689C156.547 54.6423 156.547 54.629 156.547 54.629C156.547 54.629 156.547 54.629 156.547 54.5935V38.3922C156.547 37.8993 156.547 37.3976 156.547 36.8781C156.533 36.3729 156.551 35.8672 156.6 35.3641C156.597 35.3094 156.597 35.2545 156.6 35.1998C156.614 35.146 156.621 35.091 156.623 35.0356H155.622C155.479 34.9793 155.353 34.8894 155.253 34.7736L154.919 34.4451C154.652 34.1742 154.385 33.8945 154.128 33.6148C153.87 33.3351 153.603 33.0554 153.331 32.7845C153.06 32.5137 152.838 32.2295 152.593 31.9321C152.348 31.6346 152.099 31.3416 151.855 31.0441C151.752 30.9198 151.668 30.8088 151.592 30.7111C151.517 30.6134 151.446 30.5024 151.37 30.3781C151.37 30.3559 151.334 30.3381 151.334 30.3248C151.334 30.3115 151.334 30.2937 151.299 30.2671H159.505C159.648 30.3383 159.774 30.4398 159.874 30.5646C159.991 30.6819 160.114 30.793 160.243 30.8976L161.8 32.5581C161.925 32.7149 162.06 32.8633 162.204 33.0021C162.269 33.0745 162.344 33.1373 162.427 33.1886L163.276 33.8901C163.548 34.1121 163.819 34.3341 164.09 34.5916C164.215 34.6893 164.317 34.7825 164.406 34.8669C164.495 34.9512 165.287 34.8269 165.384 34.9246Z" fill="white"/>
<path d="M187.789 43.8531C187.815 43.8797 187.824 43.8975 187.824 43.9108C187.824 43.9242 187.824 43.9419 187.864 43.9641V44.3326C187.864 44.4565 187.851 44.5801 187.824 44.7011C187.801 45.0444 187.746 45.3848 187.66 45.7179C187.575 46.0578 187.424 46.3776 187.215 46.6591C186.965 46.9983 186.665 47.2977 186.325 47.5471C185.978 47.8046 185.623 48.0444 185.253 48.2664C184.309 48.8243 183.303 49.2712 182.256 49.5984C181.811 49.7715 181.366 49.9225 180.921 50.0424C180.477 50.1622 180.032 50.3176 179.587 50.4864C178.947 50.735 178.288 51.0103 177.612 51.3211C176.952 51.615 176.356 52.0342 175.856 52.5554C175.635 52.7727 175.448 53.021 175.3 53.2924C175.131 53.59 175.026 53.9191 174.991 54.259C174.956 54.5989 174.991 54.9425 175.095 55.2682C175.201 55.6239 175.351 55.9653 175.54 56.2849C175.391 56.258 175.252 56.1939 175.135 56.0984C175.078 56.0432 175.015 55.9941 174.948 55.9519C174.882 55.9085 174.821 55.8579 174.766 55.801L173.876 55.1394C173.583 54.9174 173.298 54.6954 173.027 54.4734L172.195 53.7897C171.911 53.5588 171.635 53.319 171.363 53.0704C171.24 52.9739 171.123 52.8701 171.012 52.7596C170.905 52.6555 170.812 52.5375 170.736 52.4088C170.691 52.2927 170.634 52.1812 170.567 52.0759C170.502 51.9704 170.447 51.8589 170.403 51.7429C170.28 51.4294 170.199 51.1009 170.163 50.7661C170.125 50.4349 170.17 50.0996 170.292 49.7893C170.413 49.4974 170.575 49.2239 170.772 48.9768C170.967 48.7289 171.191 48.5054 171.439 48.3108C171.999 47.848 172.628 47.475 173.303 47.2053C173.985 46.9359 174.67 46.6769 175.357 46.4283C175.776 46.2817 176.207 46.1397 176.652 45.9843C177.096 45.8289 177.541 45.6912 177.986 45.5403C177.519 45.1185 177.065 44.7011 176.652 44.2838C176.238 43.8664 175.793 43.4358 175.375 42.9918L174.726 43.2138L174.117 43.4358L172.569 44.0929C172.065 44.3074 171.572 44.5474 171.092 44.8121C170.522 45.0785 169.967 45.3749 169.429 45.7001C168.884 46.0337 168.375 46.4236 167.912 46.8634C167.606 47.1724 167.351 47.5275 167.156 47.9156C167.049 48.1037 166.992 48.3164 166.992 48.5328C166.992 48.7492 167.049 48.9619 167.156 49.1499L167.227 49.2254C167.276 49.2965 167.289 49.3364 167.267 49.3364C167.22 49.3289 167.175 49.309 167.138 49.2787C167.079 49.2464 167.022 49.2092 166.969 49.1677C166.92 49.1322 166.898 49.1277 166.898 49.1677L165.453 48.0622C165.132 47.7913 164.821 47.5382 164.51 47.3029C164.198 47.0676 163.9 46.819 163.62 46.5481C163.473 46.4238 163.331 46.304 163.175 46.1796C163.02 46.0553 162.913 45.9354 162.788 45.8111L162.566 45.5891C162.429 45.4347 162.328 45.2519 162.27 45.0538C162.213 44.8557 162.2 44.6473 162.233 44.4436C162.321 44.0455 162.511 43.677 162.784 43.3736C163.152 42.9582 163.567 42.5872 164.02 42.2681C164.479 41.9467 164.954 41.6503 165.444 41.3801C165.986 41.087 166.529 40.8073 167.072 40.5498C167.614 40.2923 168.17 40.0392 168.735 39.795C169.3 39.5508 169.776 39.4087 170.305 39.2223C170.834 39.0358 171.372 38.8493 171.915 38.6495C171.595 38.1567 171.292 37.655 171.025 37.1355C170.759 36.616 170.465 36.0921 170.194 35.5504C169.88 34.9249 169.674 34.2509 169.584 33.5569C169.5 32.8711 169.582 32.1751 169.825 31.5279C170.034 30.8827 170.41 30.304 170.914 29.8496C171.418 29.4011 172.032 29.0946 172.693 28.9616L173.263 28.8861C173.455 28.8643 173.649 28.8778 173.836 28.9261C174.051 28.9475 174.262 28.9907 174.468 29.0548C174.664 29.117 174.859 29.1836 175.059 29.2591C175.331 29.379 175.575 29.5033 175.798 29.6276C176.02 29.7519 176.243 29.8851 176.465 30.0316C176.883 30.3291 177.301 30.6355 177.719 30.9551C178.137 31.2748 178.546 31.5945 178.938 31.9141C179.777 32.5801 180.566 33.2565 181.304 33.9432C181.477 34.1164 181.646 34.294 181.807 34.4804C182.29 35.0269 182.57 35.7232 182.598 36.4518C182.652 37.4178 182.412 38.3775 181.909 39.2045C181.495 39.9147 180.911 40.5112 180.21 40.9405C179.516 41.3693 178.787 41.7392 178.03 42.0461C177.608 42.2291 177.176 42.3892 176.736 42.5256C177.056 43.0184 177.381 43.4846 177.715 43.9286C178.048 44.3726 178.386 44.8166 178.733 45.2606C179.606 44.9095 180.437 44.4627 181.211 43.9286C181.507 43.7044 181.79 43.4643 182.06 43.2093C182.376 42.9333 182.673 42.6366 182.95 42.3213C183.212 42.0017 184.284 40.6786 184.337 40.2967C184.391 39.9149 184.391 39.5419 184.391 39.1734L184.8 39.4132L185.076 39.5775C185.16 39.6307 185.191 39.6529 185.169 39.6529L186.036 40.3189C186.321 40.5365 185.267 41.6909 185.538 41.9129C185.809 42.1349 186.125 42.3924 186.428 42.6144C186.73 42.8364 186.988 43.0584 187.259 43.3159L187.789 43.8531ZM174.406 37.6372C175.175 37.282 175.877 36.7951 176.478 36.1987C177.07 35.5535 177.478 34.7627 177.661 33.9077C177.709 33.7192 177.745 33.5279 177.768 33.3349C177.795 33.1467 177.809 32.9568 177.808 32.7666C177.188 32.8386 176.593 33.0528 176.069 33.3926C175.512 33.7781 175.071 34.3076 174.793 34.9244C174.514 35.5256 174.37 36.1801 174.37 36.8425C174.349 36.9764 174.349 37.1126 174.37 37.2465C174.371 37.3834 174.383 37.5199 174.406 37.655V37.6372ZM194.482 34.9067C194.504 34.9067 194.518 34.9466 194.518 34.9599C194.518 34.9733 194.518 34.991 194.553 35.0177H184.497C184.354 34.9626 184.227 34.8725 184.128 34.7557C184.013 34.6373 183.89 34.5275 183.759 34.4271L182.207 32.7666C181.937 32.4985 181.685 32.2138 181.451 31.9141C181.215 31.6211 180.975 31.3236 180.726 31.0262L180.468 30.6932C180.397 30.5955 180.308 30.4845 180.21 30.3602C180.212 30.3201 180.199 30.2806 180.174 30.2492H190.23C190.374 30.3204 190.5 30.4219 190.599 30.5467C190.716 30.6651 190.839 30.7763 190.969 30.8796L192.521 32.5402C192.765 32.811 193.015 33.0907 193.259 33.3882L194.002 34.2762C194.093 34.3707 194.179 34.47 194.26 34.5737C194.331 34.6891 194.407 34.8001 194.482 34.9244V34.9067Z" fill="white"/>
<path d="M192.924 34.8979C192.924 34.9246 192.951 34.9601 193 35.0089C192.924 35.0356 193 35.0356 192.924 35.0356C192.824 35.0381 192.725 35.0545 192.63 35.0844C192.02 35.2881 191.441 35.575 190.909 35.9369C190.513 36.2208 190.175 36.578 189.913 36.9891C189.669 37.3755 189.493 37.8004 189.393 38.2456C189.294 38.6838 189.234 39.1293 189.21 39.5776C189.183 40.0926 189.175 40.6166 189.175 41.1449V58.4606C189.033 58.3825 188.897 58.2965 188.765 58.2031C188.668 58.1276 188.583 58.0655 188.507 58.0166C188.432 57.9678 188.41 57.9545 188.432 57.9811L187.542 57.3151C187.247 57.0959 186.964 56.8618 186.693 56.6136L185.848 55.9432C185.563 55.7079 185.287 55.4681 185.016 55.2195C184.912 55.1461 184.812 55.066 184.718 54.9797C184.61 54.8858 184.512 54.7817 184.425 54.6689C184.425 54.6423 184.425 54.629 184.402 54.629C184.38 54.629 184.402 54.629 184.402 54.5935V38.3922C184.402 37.8993 184.402 37.3976 184.402 36.8781C184.39 36.3728 184.409 35.8671 184.46 35.3641C184.454 35.3095 184.454 35.2545 184.46 35.1998C184.466 35.1452 184.466 35.0902 184.46 35.0356H183.499C183.356 34.9805 183.229 34.8904 183.13 34.7736L182.797 34.4451C182.525 34.1742 182.259 33.8945 182.001 33.6148C181.743 33.3351 181.476 33.0554 181.204 32.7845C180.933 32.5137 180.715 32.2295 180.466 31.9321L179.728 31.0441C179.63 30.9198 179.541 30.8088 179.47 30.7111C179.388 30.6053 179.314 30.4941 179.247 30.3781C179.221 30.3559 179.212 30.3381 179.212 30.3248C179.212 30.3115 179.212 30.2937 179.172 30.2671H187.382C187.525 30.3383 187.651 30.4398 187.751 30.5646C187.867 30.683 187.991 30.7942 188.121 30.8976L189.673 32.5581C189.799 32.7138 189.934 32.862 190.077 33.0021C190.142 33.0745 190.217 33.1373 190.3 33.1886L191.149 33.8901C191.421 34.1121 191.692 34.3341 191.963 34.5916C192.074 34.6771 192.179 34.769 192.279 34.8669C192.364 34.9557 192.826 34.8003 192.924 34.8979Z" fill="white"/>
<path d="M203.502 35.1466C203.518 35.1598 203.529 35.1789 203.533 35.1999C203.538 35.2201 203.549 35.2386 203.564 35.2532C203.509 35.278 203.45 35.2916 203.39 35.2931C203.342 35.2933 203.295 35.3055 203.252 35.3287C202.833 35.4532 202.443 35.66 202.105 35.9369C201.753 36.2294 201.46 36.5866 201.242 36.9892C201.031 37.3833 200.881 37.8069 200.797 38.2457C200.712 38.6852 200.66 39.1304 200.642 39.5777C200.619 40.0927 200.615 40.6166 200.642 41.145C200.668 41.6733 200.642 42.1972 200.642 42.7167V58.474C200.521 58.3946 200.406 58.3086 200.295 58.2165C200.22 58.1494 200.141 58.0871 200.059 58.03C199.983 57.9812 199.961 57.9678 199.979 57.9945L199.227 57.3285C198.974 57.1072 198.732 56.8731 198.502 56.627L197.804 55.9432C197.559 55.7079 197.324 55.4682 197.097 55.2195C197.008 55.1444 196.923 55.0643 196.843 54.9798C196.754 54.8887 196.681 54.7837 196.625 54.669L196.585 54.6113V38.3922C196.585 37.8994 196.585 37.3977 196.585 36.8782C196.575 36.373 196.591 35.8676 196.634 35.3642C196.63 35.3095 196.63 35.2546 196.634 35.1999C196.64 35.1453 196.64 35.0902 196.634 35.0356H195.816C195.691 34.9774 195.583 34.887 195.505 34.7737L195.22 34.4451C194.746 33.9161 194.3 33.3618 193.886 32.7846C193.441 32.2163 192.996 31.6391 192.6 31.0486C192.516 30.9243 192.445 30.8133 192.382 30.7156C192.311 30.609 192.247 30.4977 192.191 30.3826C192.169 30.3499 192.158 30.311 192.16 30.2716H199.076L198.667 29.7921L198.542 29.6456L198.164 29.2016C198.018 29.055 197.875 28.9085 197.72 28.7576C197.564 28.6066 197.453 28.4645 197.328 28.3136H197.297L197.266 28.2736L197.079 28.0561C196.995 28.0065 196.92 27.9435 196.857 27.8696C196.8 27.802 196.738 27.7396 196.67 27.6831C196.395 27.4015 196.098 27.1431 195.78 26.9106C195.211 26.4365 194.617 25.9919 194.001 25.5786C193.858 25.483 193.71 25.3955 193.557 25.3166C193.41 25.2456 193.254 25.1701 193.085 25.0991C192.744 24.9068 192.387 24.7449 192.018 24.6151C191.662 24.4952 191.306 24.3842 190.95 24.2866C190.158 24.093 189.346 23.9932 188.531 23.9891C187.851 24.0232 187.181 24.1733 186.552 24.4331C185.904 24.69 185.292 25.0303 184.733 25.4454C184.183 25.8724 183.683 26.3594 183.243 26.8972C182.78 27.4493 182.399 28.0636 182.108 28.722C181.875 29.3865 181.746 30.0829 181.726 30.7866C181.641 31.537 182.028 32.3539 182.277 33.1131C182.322 33.2375 182.366 33.3618 182.42 33.4817C182.473 33.6015 182.531 33.7303 182.593 33.8546C182.628 33.8913 182.654 33.9353 182.669 33.9834C182.689 34.0302 182.716 34.0737 182.749 34.1121C182.822 34.2525 182.905 34.3875 182.998 34.5162C183.105 34.6627 183.145 34.7515 183.127 34.7737C183.109 34.7959 183.065 34.7737 182.998 34.7026L182.798 34.4629L182.531 34.1476C182.086 33.606 181.33 32.9933 180.899 32.4427C180.467 31.8922 179.885 31.3061 179.467 30.7156C179.173 30.2716 178.871 29.8897 178.608 29.4236C178.34 28.9383 178.145 28.4162 178.03 27.874C177.862 27.135 177.84 26.3706 177.963 25.623C178.064 24.8794 178.299 24.1603 178.657 23.5007C178.998 22.858 179.419 22.2612 179.911 21.7247C180.865 20.6516 182.096 19.8606 183.469 19.4382C184.193 19.2393 184.946 19.1702 185.693 19.2339C186.448 19.3029 187.194 19.4517 187.917 19.6779C188.645 19.9201 189.349 20.2277 190.021 20.597C190.695 20.9728 191.336 21.405 191.938 21.889C192.582 22.3915 193.189 22.9406 193.752 23.5318C194.328 24.1238 194.897 24.7394 195.46 25.3788L197.315 27.5543C197.436 27.7215 197.567 27.8816 197.706 28.0339C197.846 28.1869 197.978 28.347 198.102 28.5134C198.182 28.5889 198.258 28.6643 198.32 28.7354L198.542 28.9929L198.636 29.1039L198.698 29.1794L198.729 29.2149C199.171 29.7092 199.589 30.2198 199.983 30.7467C200.384 31.275 200.78 31.8122 201.18 32.3539C201.242 32.4516 201.358 32.607 201.522 32.7979L202.074 33.4772C202.274 33.7258 202.461 33.9523 202.639 34.161C202.76 34.3165 202.891 34.4648 203.03 34.605L203.502 35.1466ZM198.649 34.8136C198.709 34.8805 198.76 34.9552 198.8 35.0356H189.296C189.153 34.9805 189.026 34.8904 188.927 34.7737C188.81 34.655 188.686 34.5452 188.553 34.4451L187.001 32.7846C186.732 32.5153 186.48 32.2307 186.245 31.9321C186.009 31.6391 185.769 31.3416 185.524 31.0441C185.354 30.9002 185.215 30.7235 185.115 30.5247C185.034 30.4611 184.982 30.3687 184.968 30.2671H194.473C194.616 30.3384 194.742 30.4399 194.842 30.5646C194.958 30.683 195.081 30.7942 195.211 30.8976L196.763 32.5581C197.012 32.829 197.257 33.1087 197.506 33.4062L198.244 34.2942C198.317 34.37 198.386 34.45 198.449 34.5339C198.507 34.6316 198.578 34.716 198.649 34.8136Z" fill="white"/>
<mask id="mask0_1326_1060" style="mask-type:luminance" maskUnits="userSpaceOnUse" x="7" y="16" width="51" height="51">
<path d="M7.43555 16.6543V66.346H57.249V16.6543H7.43555ZM45.0091 37.6596C44.9057 37.9133 44.7412 38.1376 44.5302 38.3126C44.3191 38.4876 44.0681 38.608 43.7994 38.663L43.6215 38.7341C43.4989 38.7767 43.3722 38.8064 43.2434 38.8229C43.1693 38.8469 43.0989 38.8813 43.0344 38.925C42.9757 38.9634 42.9269 39.0151 42.8921 39.0759C42.8573 39.1338 42.8318 39.1967 42.8164 39.2624C42.7775 39.4286 42.7537 39.598 42.7453 39.7686C42.7453 40.0305 42.7453 40.3058 42.7453 40.5855V50.6375C42.7453 51.0756 42.571 51.4957 42.2607 51.8054C41.9504 52.1151 41.5296 52.2892 41.0908 52.2892C40.8024 52.2875 40.5193 52.2126 40.2679 52.0716C40.1278 51.991 39.9926 51.9021 39.8632 51.8052C39.8054 51.7697 39.7476 51.7342 39.6942 51.6942L39.1383 51.2946C38.9381 51.1437 38.7424 50.9838 38.5601 50.8195L38.1153 50.4421C37.9552 50.3089 37.7906 50.1669 37.6305 50.0248C37.5638 49.9715 37.4926 49.9138 37.4259 49.8516C37.2908 49.7349 37.1672 49.6056 37.0568 49.4654C36.6551 49.8799 36.1782 50.2144 35.6513 50.451C34.885 50.7996 34.0461 50.9595 33.2051 50.9172C32.3626 50.8791 31.5353 50.6802 30.7678 50.3312C30.1269 50.0424 29.5059 49.7116 28.9087 49.341L28.8064 49.2744L28.6418 49.1723L28.5218 49.0924C28.4268 49.0411 28.3373 48.9801 28.2549 48.9104C28.0813 48.8072 27.9175 48.6883 27.7657 48.5552C27.5878 48.4309 27.4143 48.3021 27.2408 48.1733C27.0674 48.0446 26.8272 47.867 26.6137 47.6983C26.4002 47.5296 26.08 47.2543 25.8087 47.0456L25.0437 46.4284L24.8614 46.313C24.8239 46.294 24.7881 46.2718 24.7546 46.2464L24.7012 46.2198C24.6019 46.1732 24.5066 46.1182 24.4166 46.0555L24.3365 46.0155C24.2053 45.944 24.0684 45.8831 23.9274 45.8335C23.6519 45.7523 23.3687 45.7002 23.0823 45.6781C22.9166 45.6606 22.7491 45.6819 22.5931 45.7403C22.4087 45.8173 22.2365 45.9205 22.0816 46.0466C21.8469 46.2355 21.6255 46.4402 21.4189 46.6593L21.3433 46.7348C21.1832 46.8813 21.032 47.0278 20.8985 47.1788L20.347 47.7382C20.1869 47.8981 20.0179 48.0461 19.84 48.1822C19.619 48.37 19.3807 48.5365 19.1284 48.6795L19.0839 48.7106C18.7634 48.8816 18.4206 49.0072 18.0654 49.0835C17.6734 49.1659 17.27 49.1794 16.8734 49.1235H16.8112C16.3598 49.0433 15.927 48.8807 15.5347 48.644L15.4813 48.6129L14.9654 48.2755C14.7741 48.1423 14.5873 48.0046 14.4139 47.867C13.7912 47.3875 13.1774 46.8858 12.6037 46.3885C12.4925 46.2953 12.3991 46.2109 12.3279 46.1399L12.199 46.0155C11.8746 45.6949 11.6907 45.2591 11.6875 44.8034C11.6882 44.5072 11.7678 44.2165 11.9182 43.9612C12.0686 43.7058 12.2843 43.495 12.5433 43.3504C12.8023 43.2058 13.0951 43.1325 13.3918 43.1382C13.6885 43.1439 13.9783 43.2282 14.2315 43.3827C14.3294 43.4404 14.4228 43.4981 14.5206 43.5691L14.7741 43.7601L14.832 43.8045C14.9956 43.721 15.1455 43.6132 15.2767 43.4848C15.5436 43.2273 15.8371 42.9298 16.1084 42.6323C16.4581 42.2485 16.8341 41.8895 17.2337 41.5578C17.4427 41.3891 17.6473 41.2337 17.8697 41.0828C18.1615 40.886 18.4767 40.7265 18.8081 40.6077C19.4393 40.3763 20.112 40.2795 20.7829 40.3235C21.5509 40.3714 22.3041 40.5564 23.0067 40.8697C23.6136 41.1451 24.1942 41.475 24.7413 41.8553C25.1712 42.1513 25.5893 42.4473 25.9955 42.7433C26.3958 43.0497 26.8005 43.3649 27.2008 43.689L27.2497 43.7334L27.5522 43.9954C27.6278 44.0575 27.7034 44.1197 27.7879 44.1818L27.9302 44.2973C27.9998 44.3339 28.0667 44.3754 28.1304 44.4216C28.1724 44.4451 28.2125 44.4718 28.2505 44.5015C28.2847 44.5196 28.3174 44.5404 28.3483 44.5637C28.4338 44.6082 28.5169 44.6571 28.5974 44.7102C28.8064 44.8256 29.0154 44.9366 29.2289 45.0432C29.4424 45.1497 29.6737 45.2519 29.9272 45.3451C30.2156 45.437 30.5145 45.4922 30.8167 45.5094C31.0497 45.5236 31.283 45.4888 31.5017 45.4073C31.7656 45.3175 32.0037 45.1652 32.1955 44.9633C32.242 44.9168 32.2824 44.8646 32.3156 44.8079C32.1555 44.8079 31.9954 44.8079 31.8397 44.7679C31.4189 44.7428 31.0163 44.5876 30.6878 44.3239L30.6166 44.2662C30.4164 44.1197 30.2519 43.9998 30.0918 43.8755C29.9317 43.7512 29.776 43.6313 29.607 43.4981C29.2912 43.2539 28.9799 42.9875 28.6774 42.7078C28.5151 42.5745 28.3662 42.4258 28.2327 42.2638C28.0313 42.0557 27.8882 41.7984 27.8178 41.5178C27.7473 41.2371 27.752 40.9429 27.8312 40.6646C27.9105 40.3863 28.0616 40.1337 28.2695 39.932C28.4773 39.7303 28.7345 39.5867 29.0154 39.5155H28.9888L28.8064 39.3912C28.7397 39.3556 28.6774 39.3157 28.6241 39.2802C28.5465 39.2286 28.4722 39.1723 28.4017 39.1114L28.0192 38.8051L27.5744 38.4366C27.3832 38.2945 27.2008 38.148 27.0274 37.9926C26.8539 37.8372 26.7872 37.7795 26.6582 37.6729C26.4672 37.5281 26.294 37.3612 26.1423 37.1756C25.8533 36.8678 25.6941 36.4608 25.6975 36.039C25.6936 35.434 25.882 34.8432 26.2357 34.3518C26.4956 33.996 26.8127 33.6854 27.1741 33.4328C27.497 33.1975 27.8481 33.0036 28.2193 32.8556C28.54 32.736 28.8703 32.6439 29.2067 32.5803C29.8191 32.4707 30.4451 32.4587 31.0614 32.5448C31.361 32.5791 31.6581 32.6324 31.9509 32.7046C32.3478 32.7992 32.7264 32.9582 33.0717 33.1753C33.2718 33.2907 33.4631 33.415 33.6454 33.5438C33.7844 33.2687 33.9975 33.0379 34.2607 32.8771C34.5239 32.7163 34.8268 32.632 35.1354 32.6336H40.9662C41.2239 32.6328 41.4783 32.6921 41.709 32.8068C41.9638 32.936 42.1929 33.1105 42.385 33.3218C42.4564 33.3739 42.522 33.4334 42.5807 33.4994L43.4702 34.4628C43.6437 34.6538 43.7994 34.8358 43.9595 35.0223L44.3464 35.4663C44.4303 35.5534 44.509 35.6453 44.5821 35.7415C44.6622 35.8481 44.7289 35.9458 44.7956 36.0523C44.8624 36.1589 44.8401 36.1456 44.8668 36.19V36.1367C44.8935 36.1811 44.9113 36.2299 44.9335 36.2743C45.0469 36.4857 45.1124 36.7192 45.1254 36.9586C45.1385 37.1979 45.0988 37.4372 45.0091 37.6596Z" fill="white"/>
</mask>
<g mask="url(#mask0_1326_1060)">
<mask id="mask1_1326_1060" style="mask-type:luminance" maskUnits="userSpaceOnUse" x="7" y="16" width="51" height="51">
<path d="M47.9496 36.6519L49.9599 38.6587L51.9702 36.6519C52.3685 36.2563 52.6402 35.7516 52.7508 35.2017C52.8614 34.6518 52.8061 34.0816 52.5917 33.5631C52.3774 33.0447 52.0137 32.6014 51.5467 32.2896C51.0798 31.9777 50.5306 31.8112 49.9688 31.8112C49.407 31.8112 48.8578 31.9777 48.3908 32.2896C47.9239 32.6014 47.5602 33.0447 47.3458 33.5631C47.1315 34.0816 47.0761 34.6518 47.1868 35.2017C47.2974 35.7516 47.5691 36.2563 47.9674 36.6519M35.1893 23.9182L37.1996 25.925C37.5962 26.3241 38.1025 26.5966 38.6545 26.7079C39.2064 26.8193 39.779 26.7645 40.2997 26.5504C40.8203 26.3364 41.2656 25.9727 41.5789 25.5057C41.8922 25.0386 42.0595 24.4892 42.0595 23.9271C42.0595 23.3649 41.8922 22.8155 41.5789 22.3484C41.2656 21.8814 40.8203 21.5178 40.2997 21.3037C39.779 21.0896 39.2064 21.0348 38.6545 21.1462C38.1025 21.2575 37.5962 21.53 37.1996 21.9291L35.1893 23.9182ZM27.4771 25.925L29.4874 23.9182L27.4771 21.9158C27.0808 21.5182 26.5753 21.247 26.0244 21.1365C25.4736 21.0261 24.9023 21.0813 24.383 21.2953C23.8637 21.5093 23.4197 21.8724 23.1072 22.3385C22.7948 22.8046 22.628 23.3529 22.628 23.9137C22.628 24.4746 22.7948 25.0228 23.1072 25.489C23.4197 25.9551 23.8637 26.3182 24.383 26.5321C24.9023 26.7461 25.4736 26.8014 26.0244 26.6909C26.5753 26.5805 27.0808 26.3093 27.4771 25.9117V25.925ZM28.0197 26.4578C27.5176 26.9584 26.878 27.2992 26.1819 27.4371C25.4858 27.575 24.7644 27.5038 24.1088 27.2325C23.4532 26.9611 22.8929 26.5019 22.4987 25.9128C22.1045 25.3236 21.8941 24.6311 21.8941 23.9226C21.8941 23.2142 22.1045 22.5216 22.4987 21.9325C22.8929 21.3433 23.4532 20.8841 24.1088 20.6128C24.7644 20.3414 25.4858 20.2702 26.1819 20.4081C26.878 20.546 27.5176 20.8868 28.0197 21.3874L30.0301 23.3898L31.8091 21.6138L27.526 17.316C27.4559 17.2459 27.4164 17.1509 27.4164 17.0518C27.4164 16.9527 27.4559 16.8577 27.526 16.7876C27.5962 16.7176 27.6914 16.6782 27.7907 16.6782C27.8899 16.6782 27.9851 16.7176 28.0553 16.7876L32.3384 21.0633L36.6214 16.7876C36.6916 16.7176 36.7868 16.6782 36.8861 16.6782C36.9352 16.6782 36.9839 16.6879 37.0293 16.7067C37.0747 16.7254 37.116 16.753 37.1507 16.7876C37.1855 16.8223 37.213 16.8635 37.2318 16.9089C37.2506 16.9542 37.2603 17.0028 37.2603 17.0518C37.2603 17.1009 37.2506 17.1495 37.2318 17.1948C37.213 17.2401 37.1855 17.2813 37.1507 17.316L32.8676 21.605L34.6467 23.3809L36.657 21.3785C37.1586 20.8809 37.7966 20.5427 38.4905 20.4066C39.1844 20.2705 39.9032 20.3426 40.5561 20.6138C41.209 20.885 41.7669 21.3431 42.1593 21.9304C42.5517 22.5177 42.7611 23.2078 42.7611 23.9137C42.7611 24.6197 42.5517 25.3098 42.1593 25.8971C41.7669 26.4844 41.209 26.9425 40.5561 27.2137C39.9032 27.4848 39.1844 27.5569 38.4905 27.4208C37.7966 27.2847 37.1586 26.9465 36.657 26.4489L32.325 22.1289L28.0197 26.4534V26.4578ZM51.9836 46.3487L49.9732 44.3418L47.9629 46.3487C47.5646 46.7443 47.293 47.249 47.1823 47.7989C47.0717 48.3487 47.127 48.919 47.3414 49.4374C47.5557 49.9559 47.9194 50.3991 48.3864 50.711C48.8533 51.0229 49.4025 51.1894 49.9643 51.1894C50.5262 51.1894 51.0753 51.0229 51.5423 50.711C52.0092 50.3991 52.3729 49.9559 52.5873 49.4374C52.8016 48.919 52.857 48.3487 52.7464 47.7989C52.6357 47.249 52.364 46.7443 51.9658 46.3487H51.9836ZM50.5025 43.8135L52.4817 45.8203C52.9832 46.3216 53.3246 46.96 53.4627 47.655C53.6008 48.3499 53.5295 49.0701 53.2577 49.7245C52.9859 50.379 52.5258 50.9383 51.9357 51.3318C51.3455 51.7253 50.6518 51.9353 49.9421 51.9353C49.2324 51.9353 48.5387 51.7253 47.9485 51.3318C47.3584 50.9383 46.8983 50.379 46.6265 49.7245C46.3547 49.0701 46.2834 48.3499 46.4215 47.655C46.5596 46.96 46.901 46.3216 47.4025 45.8203L48.5366 44.6882L51.7345 41.5003L47.4025 37.1802C46.7322 36.5079 46.3559 35.598 46.3559 34.6495C46.3559 33.7009 46.7322 32.791 47.4025 32.1187C48.0864 31.5053 48.9797 31.1769 49.8987 31.201C50.8177 31.2252 51.6926 31.6 52.3432 32.2483C52.9938 32.8967 53.3708 33.7694 53.3966 34.6867C53.4223 35.6041 53.0949 36.4965 52.4817 37.1802L50.4714 39.1826L52.2504 40.9586L56.5335 36.683C56.6037 36.6129 56.6989 36.5735 56.7981 36.5735C56.8974 36.5735 56.9926 36.6129 57.0628 36.683C57.1329 36.753 57.1724 36.8481 57.1724 36.9471C57.1724 37.0462 57.1329 37.1412 57.0628 37.2113L52.7797 41.487L57.0628 45.7626C57.0976 45.7973 57.1252 45.8384 57.1441 45.8838C57.1629 45.9291 57.1726 45.9777 57.1726 46.0268C57.1726 46.0759 57.1629 46.1245 57.1441 46.1698C57.1252 46.2151 57.0976 46.2563 57.0628 46.291C56.9915 46.3591 56.8967 46.3971 56.7981 46.3971C56.6995 46.3971 56.6047 46.3591 56.5335 46.291L52.2504 42.0153L50.5025 43.8135ZM35.2027 59.078L37.213 61.0848C37.6093 61.4824 38.1148 61.7536 38.6657 61.864C39.2165 61.9745 39.7878 61.9192 40.3071 61.7052C40.8264 61.4913 41.2704 61.1282 41.5829 60.6621C41.8953 60.1959 42.0621 59.6477 42.0621 59.0868C42.0621 58.526 41.8953 57.9777 41.5829 57.5116C41.2704 57.0455 40.8264 56.6824 40.3071 56.4684C39.7878 56.2544 39.2165 56.1992 38.6657 56.3096C38.1148 56.4201 37.6093 56.6913 37.213 57.0889L35.2027 59.078ZM30.0301 59.6063L28.0197 61.6132C27.5179 62.1123 26.8791 62.4518 26.1841 62.5888C25.4891 62.7257 24.769 62.6541 24.1147 62.3828C23.4605 62.1116 22.9014 61.6529 22.5081 61.0647C22.1148 60.4765 21.9049 59.7852 21.9049 59.078C21.9049 58.3708 22.1148 57.6794 22.5081 57.0912C22.9014 56.503 23.4605 56.0443 24.1147 55.7731C24.769 55.5018 25.4891 55.4302 26.1841 55.5672C26.8791 55.7041 27.5179 56.0436 28.0197 56.5428L30.2969 58.8116L32.3517 60.8628L34.4065 58.8116L36.6837 56.5428C37.1859 56.0421 37.8254 55.7013 38.5215 55.5634C39.2176 55.4256 39.9391 55.4968 40.5947 55.7681C41.2502 56.0394 41.8105 56.4987 42.2047 57.0878C42.5989 57.6769 42.8093 58.3695 42.8093 59.078C42.8093 59.7864 42.5989 60.479 42.2047 61.0681C41.8105 61.6572 41.2502 62.1165 40.5947 62.3878C39.9391 62.6591 39.2176 62.7303 38.5215 62.5925C37.8254 62.4546 37.1859 62.1138 36.6837 61.6132L34.6734 59.6063L32.8943 61.3823L37.1774 65.6579C37.2122 65.6926 37.2399 65.7338 37.2587 65.7791C37.2776 65.8244 37.2873 65.873 37.2873 65.9221C37.2873 65.9712 37.2776 66.0198 37.2587 66.0651C37.2399 66.1105 37.2122 66.1516 37.1774 66.1863C37.1062 66.2544 37.0114 66.2924 36.9128 66.2924C36.8141 66.2924 36.7193 66.2544 36.6481 66.1863L32.3651 61.9106L28.082 66.1863C28.0108 66.2544 27.916 66.2924 27.8174 66.2924C27.7187 66.2924 27.6239 66.2544 27.5527 66.1863C27.5179 66.1516 27.4903 66.1105 27.4714 66.0651C27.4526 66.0198 27.4428 65.9712 27.4428 65.9221C27.4428 65.873 27.4526 65.8244 27.4714 65.7791C27.4903 65.7338 27.5179 65.6926 27.5527 65.6579L31.8358 61.3823L30.0301 59.6063ZM29.5008 59.078L27.4905 57.0756C27.0942 56.678 26.5886 56.4068 26.0378 56.2963C25.487 56.1859 24.9157 56.2411 24.3963 56.4551C23.877 56.6691 23.433 57.0322 23.1206 57.4983C22.8081 57.9644 22.6414 58.5127 22.6414 59.0735C22.6414 59.6344 22.8081 60.1826 23.1206 60.6487C23.433 61.1149 23.877 61.478 24.3963 61.6919C24.9157 61.9059 25.487 61.9612 26.0378 61.8507C26.5886 61.7403 27.0942 61.4691 27.4905 61.0715L29.5008 59.078ZM16.7272 46.3487L14.7169 44.3418L12.7065 46.3487C12.3083 46.7443 12.0366 47.249 11.926 47.7989C11.8153 48.3487 11.8707 48.919 12.085 49.4374C12.2994 49.9559 12.6631 50.3991 13.13 50.711C13.597 51.0229 14.1461 51.1894 14.708 51.1894C15.2698 51.1894 15.819 51.0229 16.2859 50.711C16.7529 50.3991 17.1166 49.9559 17.3309 49.4374C17.5453 48.919 17.6006 48.3487 17.49 47.7989C17.3793 47.249 17.1077 46.7443 16.7094 46.3487H16.7272ZM14.1876 39.1826L12.1773 37.1802C11.6764 36.6787 11.3356 36.0403 11.198 35.3455C11.0604 34.6508 11.1321 33.9309 11.4041 33.2768C11.6761 32.6228 12.1361 32.0638 12.7262 31.6706C13.3162 31.2773 14.0097 31.0675 14.7191 31.0675C15.4285 31.0675 16.122 31.2773 16.712 31.6706C17.302 32.0638 17.7621 32.6228 18.0341 33.2768C18.3061 33.9309 18.3778 34.6508 18.2402 35.3455C18.1025 36.0403 17.7618 36.6787 17.2609 37.1802L12.9289 41.5003L17.2609 45.8203C17.7603 46.3216 18.0997 46.9593 18.2364 47.6529C18.3732 48.3465 18.301 49.0651 18.0291 49.7178C17.7572 50.3706 17.2977 50.9283 16.7086 51.3206C16.1195 51.713 15.4273 51.9224 14.7191 51.9224C14.0109 51.9224 13.3186 51.713 12.7295 51.3206C12.1405 50.9283 11.681 50.3706 11.4091 49.7178C11.1372 49.0651 11.065 48.3465 11.2017 47.6529C11.3385 46.9593 11.6779 46.3216 12.1773 45.8203L14.1876 43.8135L12.4085 42.0375L8.12548 46.3132C8.05427 46.3813 7.95947 46.4193 7.86085 46.4193C7.76223 46.4193 7.66742 46.3813 7.59621 46.3132C7.56138 46.2785 7.53375 46.2373 7.51489 46.192C7.49603 46.1467 7.48633 46.0981 7.48633 46.049C7.48633 45.9999 7.49603 45.9513 7.51489 45.906C7.53375 45.8606 7.56138 45.8195 7.59621 45.7848L11.8793 41.5092L7.59621 37.2335C7.52603 37.1635 7.4866 37.0684 7.4866 36.9693C7.4866 36.8703 7.52603 36.7752 7.59621 36.7052C7.6664 36.6351 7.76159 36.5957 7.86085 36.5957C7.9601 36.5957 8.0553 36.6351 8.12548 36.7052L12.4085 40.9808L14.1876 39.1826ZM14.7169 38.6587L16.7272 36.6519C17.1255 36.2563 17.3971 35.7516 17.5078 35.2017C17.6184 34.6518 17.5631 34.0816 17.3487 33.5631C17.1344 33.0447 16.7707 32.6014 16.3037 32.2896C15.8368 31.9777 15.2876 31.8112 14.7258 31.8112C14.1639 31.8112 13.6148 31.9777 13.1478 32.2896C12.6809 32.6014 12.3172 33.0447 12.1028 33.5631C11.8885 34.0816 11.8331 34.6518 11.9437 35.2017C12.0544 35.7516 12.3261 36.2563 12.7243 36.6519L14.7169 38.6587ZM45.9125 56.2719H47.1445V55.0554C47.1483 54.8105 47.0788 54.57 46.9448 54.3648C46.8108 54.1595 46.6185 53.9989 46.3925 53.9035C46.1665 53.8081 45.9171 53.7823 45.6763 53.8293C45.4354 53.8763 45.2142 53.994 45.0408 54.1674C44.8671 54.3405 44.7492 54.5614 44.7021 54.8018C44.655 55.0422 44.6809 55.2911 44.7765 55.5167C44.8721 55.7424 45.0329 55.9343 45.2385 56.0681C45.4441 56.2019 45.685 56.2713 45.9303 56.2675L45.9125 56.2719ZM17.5322 26.7242V27.9718C17.534 28.2136 17.6073 28.4495 17.7431 28.6497C17.8789 28.85 18.0709 29.0057 18.2951 29.0972C18.5193 29.1887 18.7656 29.212 19.003 29.1641C19.2404 29.1161 19.4583 28.9992 19.6293 28.8279C19.8003 28.6566 19.9166 28.4386 19.9638 28.2015C20.0109 27.9643 19.9868 27.7185 19.8943 27.495C19.8018 27.2716 19.6451 27.0804 19.4441 26.9456C19.243 26.8108 19.0064 26.7384 18.7642 26.7375L17.5322 26.7242ZM47.1445 27.9718V26.7242H45.9125C45.6663 26.7195 45.4242 26.7886 45.2177 26.9225C45.0111 27.0565 44.8495 27.2492 44.7538 27.4757C44.658 27.7023 44.6325 27.9523 44.6805 28.1935C44.7285 28.4346 44.8478 28.6559 45.023 28.8287C45.1944 29.0041 45.4142 29.1246 45.6544 29.1749C45.8946 29.2252 46.1444 29.2029 46.3719 29.111C46.5994 29.0192 46.7943 28.8617 46.9319 28.6589C47.0695 28.456 47.1436 28.2168 47.1445 27.9718ZM17.5322 56.2719H18.7642C19.0105 56.278 19.253 56.2099 19.46 56.0765C19.667 55.9431 19.829 55.7507 19.925 55.5241C20.0209 55.2976 20.0464 55.0474 19.998 54.8063C19.9496 54.5651 19.8297 54.344 19.6537 54.1718C19.4804 53.9985 19.2591 53.8808 19.0183 53.8337C18.7775 53.7867 18.5281 53.8126 18.3021 53.908C18.076 54.0034 17.8837 54.164 17.7497 54.3692C17.6158 54.5744 17.5462 54.8149 17.55 55.0598L17.5322 56.2719ZM44.8006 29.5924L42.8793 31.5238C43.3034 32.0582 43.5338 32.7201 43.5331 33.4019V37.0426C43.523 37.1351 43.479 37.2206 43.4097 37.2827C43.3403 37.3448 43.2504 37.3791 43.1572 37.3791C43.0641 37.3791 42.9742 37.3448 42.9048 37.2827C42.8354 37.2206 42.7915 37.1351 42.7814 37.0426V33.3885C42.7817 33.0859 42.7221 32.7862 42.6061 32.5065C42.4901 32.2269 42.3199 31.9729 42.1054 31.7591C41.8915 31.5441 41.6372 31.3734 41.3571 31.2569C41.077 31.1403 40.7766 31.0801 40.4731 31.0798H36.826C36.727 31.0798 36.6319 31.0405 36.5619 30.9705C36.4918 30.9006 36.4524 30.8057 36.4524 30.7068C36.4524 30.6079 36.4918 30.513 36.5619 30.4431C36.6319 30.3732 36.727 30.3339 36.826 30.3339H40.4731C41.1556 30.3312 41.8189 30.5597 42.3544 30.9821L44.2758 29.064C44.0752 28.7664 43.9593 28.4199 43.9406 28.0617C43.9219 27.7034 44.001 27.3468 44.1695 27.0299C44.338 26.713 44.5896 26.4478 44.8974 26.2626C45.2052 26.0774 45.5576 25.9791 45.917 25.9783H47.527C47.6258 25.9795 47.7201 26.0191 47.7899 26.0888C47.8597 26.1585 47.8995 26.2527 47.9006 26.3513V27.9718C47.9033 28.3344 47.806 28.6907 47.6194 29.0018C47.4328 29.3129 47.164 29.5667 46.8425 29.7354C46.521 29.9041 46.1592 29.9813 45.7967 29.9584C45.4342 29.9355 45.085 29.8135 44.7873 29.6057L44.8006 29.5924ZM44.2714 53.9321L42.35 52.0185C41.8146 52.4381 41.1538 52.6663 40.4731 52.6667H36.826C36.727 52.6667 36.6319 52.6274 36.5619 52.5575C36.4918 52.4875 36.4524 52.3927 36.4524 52.2937C36.4524 52.1948 36.4918 52.1 36.5619 52.03C36.6319 51.9601 36.727 51.9208 36.826 51.9208H40.4731C41.0861 51.9196 41.6737 51.676 42.1072 51.2433C42.5406 50.8106 42.7847 50.224 42.7859 49.612V45.9713C42.796 45.8788 42.8399 45.7933 42.9093 45.7312C42.9786 45.6691 43.0685 45.6348 43.1617 45.6348C43.2549 45.6348 43.3448 45.6691 43.4141 45.7312C43.4835 45.7933 43.5274 45.8788 43.5375 45.9713V49.612C43.5389 50.2987 43.3069 50.9656 42.8793 51.5034L44.8006 53.417C45.099 53.2107 45.4483 53.09 45.8106 53.0681C46.1729 53.0463 46.5343 53.124 46.8554 53.293C47.1765 53.462 47.4449 53.7156 47.6316 54.0264C47.8183 54.3371 47.9159 54.6931 47.914 55.0554V56.6582C47.914 56.7072 47.9043 56.7557 47.8855 56.8009C47.8668 56.8462 47.8392 56.8873 47.8046 56.9219C47.7699 56.9565 47.7287 56.984 47.6833 57.0028C47.638 57.0215 47.5894 57.0312 47.5404 57.0312H45.9303C45.5703 57.0318 45.217 56.9345 44.9083 56.7496C44.5996 56.5647 44.3472 56.2993 44.1784 55.9819C44.0096 55.6645 43.9307 55.3071 43.9502 54.9483C43.9697 54.5894 44.0869 54.2427 44.2892 53.9454L44.2714 53.9321ZM20.4054 29.0685L22.3268 30.9865C22.8623 30.5641 23.5256 30.3356 24.2081 30.3383H27.8552C27.9543 30.3383 28.0493 30.3776 28.1193 30.4475C28.1894 30.5175 28.2288 30.6123 28.2288 30.7113C28.2288 30.8102 28.1894 30.905 28.1193 30.975C28.0493 31.0449 27.9543 31.0842 27.8552 31.0842H24.2081C23.9049 31.084 23.6047 31.1434 23.3246 31.2592C23.0445 31.3751 22.79 31.5449 22.5758 31.7591C22.3613 31.9729 22.1911 32.2269 22.0751 32.5065C21.9591 32.7862 21.8995 33.0859 21.8998 33.3885V37.0293C21.8897 37.1217 21.8458 37.2072 21.7764 37.2693C21.707 37.3314 21.6171 37.3658 21.524 37.3658C21.4308 37.3658 21.3409 37.3314 21.2715 37.2693C21.2022 37.2072 21.1582 37.1217 21.1481 37.0293V33.3885C21.1479 32.7124 21.375 32.0557 21.793 31.5238L19.8717 29.6057C19.5446 29.8301 19.1566 29.9494 18.7598 29.9476C18.2356 29.9453 17.7335 29.7363 17.3628 29.3663C16.9922 28.9963 16.7829 28.4951 16.7806 27.9718V26.3513C16.7817 26.2519 16.8221 26.1571 16.8929 26.0873C16.9636 26.0174 17.0591 25.9783 17.1586 25.9783H18.7642C19.1242 25.9776 19.4776 26.0749 19.7863 26.2598C20.095 26.4447 20.3473 26.7101 20.5161 27.0275C20.685 27.345 20.7639 27.7023 20.7443 28.0612C20.7248 28.42 20.6076 28.7667 20.4054 29.064V29.0685ZM19.8761 53.4082L21.793 51.5034C21.3699 50.9686 21.1396 50.3069 21.1392 49.6253V45.9846C21.1493 45.8921 21.1933 45.8067 21.2626 45.7445C21.332 45.6824 21.4219 45.6481 21.5151 45.6481C21.6082 45.6481 21.6981 45.6824 21.7675 45.7445C21.8369 45.8067 21.8808 45.8921 21.8909 45.9846V49.6253C21.8906 49.928 21.9502 50.2277 22.0662 50.5073C22.1822 50.787 22.3524 51.041 22.5669 51.2548C22.7811 51.469 23.0356 51.6388 23.3157 51.7546C23.5958 51.8704 23.896 51.9299 24.1992 51.9297H27.8463C27.9454 51.9297 28.0404 51.969 28.1104 52.0389C28.1805 52.1088 28.2199 52.2037 28.2199 52.3026C28.2199 52.4015 28.1805 52.4964 28.1104 52.5663C28.0404 52.6363 27.9454 52.6756 27.8463 52.6756H24.1992C23.517 52.6762 22.8544 52.4479 22.3179 52.0274L20.3965 53.941C20.6182 54.2689 20.7374 54.6553 20.739 55.0509C20.7378 55.5754 20.5283 56.0779 20.1564 56.4483C19.7845 56.8187 19.2806 57.0267 18.7553 57.0267H17.1586C17.1092 57.0273 17.0601 57.0181 17.0143 56.9996C16.9684 56.9811 16.9267 56.9538 16.8916 56.9191C16.8564 56.8844 16.8285 56.8431 16.8094 56.7975C16.7904 56.752 16.7806 56.7031 16.7806 56.6538V55.0554C16.7786 54.6931 16.8763 54.3371 17.0629 54.0264C17.2496 53.7156 17.5181 53.462 17.8392 53.293C18.1603 53.124 18.5216 53.0463 18.8839 53.0681C19.2462 53.09 19.5956 53.2107 19.8939 53.417L19.8761 53.4082ZM33.775 28.5135L33.01 29.2772C33.4624 29.3929 33.8755 29.6275 34.2064 29.9565L36.3813 32.132C36.416 32.1663 36.4435 32.2071 36.4623 32.2521C36.4811 32.297 36.4908 32.3453 36.4908 32.394C36.4908 32.4427 36.4811 32.491 36.4623 32.5359C36.4435 32.5809 36.416 32.6217 36.3813 32.656C36.3466 32.6907 36.3053 32.7183 36.2599 32.7371C36.2145 32.756 36.1658 32.7656 36.1166 32.7656C36.0675 32.7656 36.0188 32.756 35.9734 32.7371C35.928 32.7183 35.8867 32.6907 35.852 32.656L33.6771 30.4848C33.5018 30.3101 33.2938 30.1715 33.0648 30.077C32.8359 29.9826 32.5906 29.9341 32.3428 29.9343C31.8429 29.9358 31.3636 30.1335 31.0085 30.4848L28.8336 32.656C28.7989 32.6907 28.7577 32.7183 28.7123 32.7371C28.6669 32.756 28.6182 32.7656 28.569 32.7656C28.5198 32.7656 28.4712 32.756 28.4257 32.7371C28.3803 32.7183 28.3391 32.6907 28.3044 32.656C28.2697 32.6217 28.2421 32.5809 28.2233 32.5359C28.2045 32.491 28.1949 32.4427 28.1949 32.394C28.1949 32.3453 28.2045 32.297 28.2233 32.2521C28.2421 32.2071 28.2697 32.1663 28.3044 32.132L30.4793 29.9565C30.8237 29.6137 31.2561 29.3725 31.7291 29.2594L30.9819 28.5135C30.7055 28.237 30.5174 27.885 30.4414 27.5018C30.3654 27.1187 30.4048 26.7216 30.5547 26.3608C30.7046 26.0001 30.9583 25.6917 31.2837 25.4748C31.6091 25.2579 31.9916 25.1422 32.3829 25.1422C32.7741 25.1422 33.1566 25.2579 33.482 25.4748C33.8074 25.6917 34.0611 26.0001 34.211 26.3608C34.3609 26.7216 34.4004 27.1187 34.3243 27.5018C34.2483 27.885 34.0602 28.237 33.7839 28.5135H33.775ZM32.374 28.8598L33.2635 27.9718C33.4356 27.7998 33.5528 27.5806 33.6002 27.3421C33.6476 27.1036 33.6231 26.8564 33.5298 26.6317C33.4365 26.4071 33.2786 26.2151 33.076 26.0801C32.8735 25.945 32.6353 25.8729 32.3918 25.8729C32.1482 25.8729 31.91 25.945 31.7075 26.0801C31.5049 26.2151 31.347 26.4071 31.2537 26.6317C31.1604 26.8564 31.1359 27.1036 31.1833 27.3421C31.2307 27.5806 31.3479 27.7998 31.52 27.9718L32.374 28.8598ZM41.2025 37.9927C41.1323 37.9227 41.0929 37.8277 41.0929 37.7286C41.0929 37.6295 41.1323 37.5345 41.2025 37.4644C41.2727 37.3943 41.3679 37.355 41.4671 37.355C41.5664 37.355 41.6616 37.3943 41.7318 37.4644L43.9067 39.6355C44.256 39.9843 44.4996 40.4245 44.6094 40.9053L45.3655 40.1372C45.6424 39.8613 45.9951 39.6736 46.3789 39.5977C46.7627 39.5218 47.1605 39.5612 47.5219 39.7108C47.8833 39.8605 48.1921 40.1137 48.4094 40.4386C48.6267 40.7634 48.7427 41.1452 48.7427 41.5358C48.7427 41.9264 48.6267 42.3082 48.4094 42.633C48.1921 42.9579 47.8833 43.2111 47.5219 43.3608C47.1605 43.5104 46.7627 43.5498 46.3789 43.4739C45.9951 43.398 45.6424 43.2103 45.3655 42.9344L44.5827 42.153C44.4684 42.6111 44.2298 43.0289 43.8933 43.3606L41.7184 45.5362C41.6837 45.5709 41.6424 45.5984 41.597 45.6172C41.5516 45.6359 41.5029 45.6456 41.4538 45.6456C41.4046 45.6456 41.356 45.6359 41.3106 45.6172C41.2652 45.5984 41.2239 45.5709 41.1892 45.5362C41.1544 45.5015 41.1268 45.4603 41.108 45.415C41.0892 45.3696 41.0795 45.3211 41.0795 45.272C41.0795 45.2229 41.0892 45.1744 41.108 45.129C41.1268 45.0837 41.1544 45.0425 41.1892 45.0078L43.3641 42.8367C43.5391 42.6617 43.6779 42.454 43.7726 42.2255C43.8672 41.9969 43.9158 41.752 43.9156 41.5047C43.9158 41.2574 43.8672 41.0125 43.7726 40.784C43.6779 40.5554 43.5391 40.3477 43.3641 40.1727L41.2025 37.9927ZM18.7687 42.3794L19.6582 41.4914L18.7687 40.6034C18.5963 40.4316 18.3768 40.3146 18.1378 40.2673C17.8989 40.22 17.6513 40.2444 17.4262 40.3376C17.2012 40.4307 17.0089 40.5883 16.8736 40.7905C16.7383 40.9928 16.6661 41.2305 16.6661 41.4736C16.6661 41.7168 16.7383 41.9545 16.8736 42.1567C17.0089 42.359 17.2012 42.5166 17.4262 42.6097C17.6513 42.7029 17.8989 42.7273 18.1378 42.68C18.3768 42.6327 18.5963 42.5157 18.7687 42.3439V42.3794ZM20.0763 42.1308L19.2979 42.9077C19.021 43.1836 18.6683 43.3714 18.2845 43.4473C17.9007 43.5232 17.5029 43.4838 17.1415 43.3341C16.7801 43.1845 16.4713 42.9312 16.254 42.6064C16.0367 42.2816 15.9207 41.8998 15.9207 41.5092C15.9207 41.1186 16.0367 40.7367 16.254 40.4119C16.4713 40.0871 16.7801 39.8339 17.1415 39.6842C17.5029 39.5345 17.9007 39.4952 18.2845 39.5711C18.6683 39.6469 19.021 39.8347 19.2979 40.1106L20.0718 40.8831C20.1851 40.411 20.4267 39.9793 20.7701 39.6355L22.9494 37.4644C22.9841 37.4296 23.0254 37.402 23.0708 37.3832C23.1162 37.3644 23.1649 37.3547 23.2141 37.3547C23.2632 37.3547 23.3119 37.3644 23.3573 37.3832C23.4027 37.402 23.444 37.4296 23.4787 37.4644C23.5469 37.5355 23.585 37.6301 23.585 37.7286C23.585 37.827 23.5469 37.9217 23.4787 37.9927L21.2994 40.1639C20.9484 40.5187 20.7517 40.9972 20.7517 41.4958C20.7517 41.9945 20.9484 42.473 21.2994 42.8278L23.4787 44.9989C23.5469 45.07 23.585 45.1647 23.585 45.2631C23.585 45.3616 23.5469 45.4562 23.4787 45.5273C23.444 45.5621 23.4027 45.5897 23.3573 45.6085C23.3119 45.6273 23.2632 45.637 23.2141 45.637C23.1649 45.637 23.1162 45.6273 23.0708 45.6085C23.0254 45.5897 22.9841 45.5621 22.9494 45.5273L20.7701 43.3517C20.4315 43.0156 20.1915 42.5933 20.0763 42.1308ZM33.2235 55.0065L32.3339 54.1186L31.4444 55.0065C31.2714 55.1791 31.1535 55.3991 31.1058 55.6385C31.058 55.878 31.0824 56.1262 31.176 56.3518C31.2695 56.5774 31.428 56.7702 31.6313 56.9059C31.8347 57.0415 32.0738 57.114 32.3184 57.114C32.5629 57.114 32.802 57.0415 33.0054 56.9059C33.2087 56.7702 33.3672 56.5774 33.4608 56.3518C33.5543 56.1262 33.5788 55.878 33.531 55.6385C33.4832 55.3991 33.3653 55.1791 33.1923 55.0065H33.2235ZM32.9922 53.7234L33.7527 54.4782C34.03 54.7552 34.2187 55.108 34.2951 55.4921C34.3716 55.8762 34.3322 56.2743 34.182 56.636C34.0318 56.9977 33.7776 57.3069 33.4514 57.5244C33.1252 57.7419 32.7418 57.858 32.3495 57.858C31.9572 57.858 31.5738 57.7419 31.2476 57.5244C30.9214 57.3069 30.6672 56.9977 30.517 56.636C30.3668 56.2743 30.3274 55.8762 30.4038 55.4921C30.4803 55.108 30.669 54.7552 30.9463 54.4782L31.7024 53.7278C31.2358 53.6143 30.8095 53.3746 30.4704 53.0352L28.2955 50.8641C28.2253 50.794 28.1859 50.699 28.1859 50.5999C28.1859 50.5008 28.2253 50.4058 28.2955 50.3357C28.3657 50.2657 28.4609 50.2263 28.5601 50.2263C28.6594 50.2263 28.7546 50.2657 28.8247 50.3357L30.9996 52.5113C31.3552 52.8614 31.8345 53.0576 32.3339 53.0574C32.8339 53.0559 33.3131 52.8582 33.6682 52.5069L35.8431 50.3313C35.9133 50.2612 36.0085 50.2219 36.1077 50.2219C36.207 50.2219 36.3022 50.2612 36.3724 50.3313C36.4426 50.4014 36.482 50.4964 36.482 50.5955C36.482 50.6946 36.4426 50.7896 36.3724 50.8597L34.1975 53.0308C33.8658 53.3662 33.4493 53.6056 32.9922 53.7234ZM37.1374 36.714C36.024 35.6088 34.5611 34.9232 32.998 34.7739C31.435 34.6246 29.8685 35.021 28.5653 35.8955C27.2622 36.7699 26.3031 38.0684 25.8515 39.5696C25.3998 41.0708 25.4836 42.6819 26.0885 44.1284C26.6933 45.5749 27.7819 46.7673 29.1687 47.5024C30.5555 48.2376 32.1547 48.4699 33.6939 48.16C35.2331 47.85 36.617 47.0169 37.6098 45.8025C38.6027 44.5882 39.143 43.0677 39.1388 41.5003C39.1374 40.6102 38.9598 39.7292 38.6164 38.9079C38.2729 38.0865 37.7703 37.3409 37.1374 36.714ZM32.3384 33.9835C34.0879 33.9792 35.7847 34.5807 37.1397 35.6855C38.4947 36.7902 39.424 38.3299 39.7692 40.042C40.1144 41.7542 39.8542 43.5328 39.0328 45.0749C38.2115 46.6169 36.8799 47.8269 35.265 48.4986C33.65 49.1703 31.8517 49.2622 30.1766 48.7586C28.5014 48.255 27.053 47.187 26.0782 45.7367C25.1035 44.2864 24.6627 42.5436 24.831 40.8052C24.9993 39.0668 25.7663 37.4405 27.0012 36.2035C27.7003 35.5004 28.5317 34.9424 29.4477 34.5614C30.3637 34.1804 31.3461 33.984 32.3384 33.9835ZM45.0364 41.5314L45.9259 42.4193C46.0983 42.5912 46.3178 42.7082 46.5567 42.7555C46.7957 42.8028 47.0433 42.7783 47.2683 42.6852C47.4933 42.5921 47.6856 42.4344 47.8209 42.2322C47.9562 42.03 48.0285 41.7923 48.0285 41.5491C48.0285 41.306 47.9562 41.0682 47.8209 40.866C47.6856 40.6638 47.4933 40.5062 47.2683 40.413C47.0433 40.3199 46.7957 40.2955 46.5567 40.3428C46.3178 40.3901 46.0983 40.5071 45.9259 40.6789L45.0364 41.5314Z" fill="white"/>
</mask>
<g mask="url(#mask1_1326_1060)">
<path d="M57.2401 16.6543H7.43555V66.3415H57.2401V16.6543Z" fill="url(#paint0_linear_1326_1060)"/>
</g>
</g>
<path d="M40.5793 41.4733C40.646 41.5161 40.7072 41.5668 40.7617 41.6243C40.8684 41.7264 40.9218 41.7885 40.9218 41.8196C40.895 42.0056 40.8299 42.184 40.7305 42.3435C40.6331 42.498 40.5262 42.6463 40.4103 42.7875C40.2813 42.9474 40.139 43.0983 39.9922 43.2315C39.8421 43.3808 39.6714 43.5079 39.4852 43.6089L39.2406 43.7155C39.1544 43.7431 39.0643 43.7565 38.9737 43.7554C38.8444 43.7703 38.7135 43.7627 38.5868 43.7332L38.2221 43.6489C37.9877 43.5678 37.7589 43.4714 37.5371 43.3603C37.3192 43.2537 37.0924 43.1516 36.8478 43.0495C36.7813 43.0248 36.7196 42.9887 36.6654 42.9429C36.6165 42.8985 36.5631 42.8586 36.5053 42.8142C36.4511 42.7879 36.4003 42.7551 36.3541 42.7165C36.3141 42.6815 36.2709 42.6503 36.2251 42.6233L35.7359 42.2237C35.5624 42.0905 35.3978 41.9573 35.2422 41.8285L35.1354 41.7663L35.0242 41.6687C34.9412 41.7989 34.8523 41.9232 34.7574 42.0416C34.6622 42.1673 34.5582 42.286 34.446 42.3968L34.2548 42.5877C34.4535 42.7476 34.6492 42.9118 34.8419 43.0806L35.4334 43.5956C35.5491 43.6933 35.6602 43.7998 35.7759 43.9064C35.8912 44.0127 35.9862 44.139 36.0561 44.2793C36.2639 44.6401 36.414 45.0311 36.5009 45.4382C36.5847 45.8425 36.6205 46.2553 36.6076 46.668C36.5902 47.0857 36.4561 47.4901 36.2207 47.8357C35.9185 48.3253 35.4751 48.7123 34.9486 48.9457C34.421 49.1873 33.8428 49.2984 33.263 49.2698C32.6294 49.24 32.0074 49.0893 31.4306 48.8258C30.8582 48.5644 30.3027 48.2679 29.7671 47.9378C29.737 47.9058 29.7007 47.8801 29.6604 47.8624L29.5314 47.7869L29.5003 47.7558L29.5937 47.8091L29.5225 47.778C29.493 47.7651 29.4671 47.7453 29.4469 47.7203L29.3713 47.6803L29.2957 47.6359C29.214 47.5694 29.1278 47.5086 29.0377 47.4539C28.9516 47.4036 28.8724 47.3424 28.802 47.2719L28.2105 46.8279L27.6234 46.3839C27.3654 46.1841 27.1075 45.9754 26.8495 45.7623C26.5915 45.5492 26.3291 45.3183 26.0578 45.1185L26.0133 45.0741L25.6931 44.8832C25.6806 44.8699 25.6654 44.8593 25.6486 44.8521L25.6086 44.821L25.5197 44.7766L25.4351 44.7322C25.3788 44.7065 25.3252 44.6752 25.275 44.639C25.2189 44.5985 25.1575 44.5656 25.0927 44.5413C24.8729 44.4224 24.6438 44.3214 24.4077 44.2394C24.0156 44.1267 23.6134 44.0524 23.2069 44.0174C22.7997 43.9804 22.3893 44.035 22.006 44.1772C21.653 44.3163 21.3231 44.5079 21.0275 44.7455C20.7355 44.9788 20.4606 45.2325 20.2047 45.5048C20.0179 45.6735 19.84 45.8466 19.6755 46.0198L19.1506 46.5526C19.0217 46.6813 18.8882 46.8057 18.7459 46.9255C18.5991 47.0504 18.4413 47.1619 18.2745 47.2585C18.0922 47.3587 17.8958 47.4306 17.6918 47.4717C17.4874 47.517 17.2763 47.5245 17.0692 47.4939C16.8126 47.4475 16.5668 47.3542 16.3442 47.2186L15.8683 46.9078C15.7126 46.8012 15.5614 46.6902 15.4235 46.5748C14.7964 46.0908 14.2004 45.6024 13.6445 45.1185C13.5733 45.0608 13.5155 45.0119 13.471 44.9675L13.3554 44.8521C13.3198 44.8166 13.3065 44.7899 13.3243 44.7766C13.342 44.7633 13.3465 44.7766 13.3999 44.7766C13.4508 44.8045 13.4998 44.8356 13.5466 44.8699C13.6 44.9054 13.6578 44.9542 13.729 45.0119L13.9869 45.2029C14.0783 45.2652 14.1811 45.309 14.2894 45.3316C14.6745 45.461 15.0938 45.4452 15.468 45.2872C15.8056 45.1313 16.1163 44.923 16.3887 44.6701C16.7178 44.3548 17.0336 44.0352 17.3316 43.7066C17.6334 43.3787 17.9557 43.0702 18.2967 42.7831C18.4568 42.6543 18.6214 42.53 18.8037 42.4101C18.9819 42.3105 19.1716 42.233 19.3686 42.1793C19.7942 42.0195 20.2492 41.9529 20.7029 41.9839C21.268 42.0244 21.8218 42.1626 22.3396 42.3924C22.856 42.6228 23.349 42.9023 23.8118 43.2271C24.2269 43.5231 24.6272 43.8191 25.0126 44.1151C25.3996 44.4081 25.7821 44.7145 26.169 45.0031L26.4937 45.2828C26.5915 45.3671 26.6983 45.4559 26.8139 45.5403L26.8984 45.6158C26.9297 45.6372 26.9581 45.6626 26.9829 45.6912C27.0141 45.6912 27.0318 45.6912 27.0363 45.7223L27.0941 45.7534C27.1146 45.7811 27.1448 45.8001 27.1786 45.8067C27.2105 45.8178 27.2394 45.836 27.2631 45.86C27.2774 45.8654 27.2933 45.8654 27.3076 45.86L27.3476 45.9044L27.4366 45.9443C27.4476 45.9573 27.4613 45.9679 27.4766 45.9754L27.5211 46.0109C27.5484 46.037 27.5822 46.0554 27.6189 46.0642C27.6557 46.0695 27.6891 46.0886 27.7123 46.1175C27.9822 46.2744 28.2579 46.4224 28.5396 46.5615C28.8213 46.7006 29.1104 46.8249 29.4069 46.9344C29.8384 47.0783 30.287 47.1649 30.7412 47.1919C31.224 47.2142 31.7062 47.1353 32.1567 46.9601C32.6071 46.785 33.0158 46.5176 33.3564 46.1752C33.7311 45.8005 33.9691 45.3112 34.0324 44.7855C34.0548 44.5789 34.0548 44.3705 34.0324 44.1639C34.0205 43.9548 33.9922 43.747 33.9479 43.5423C33.9212 43.4313 33.8945 43.3248 33.8723 43.2226C33.8501 43.1205 33.8278 43.0228 33.7967 42.9252C33.6549 43.0029 33.506 43.0669 33.3519 43.1161C33.1259 43.1868 32.8905 43.2227 32.6537 43.2226C32.4216 43.2236 32.1898 43.2088 31.9598 43.1782C31.8712 43.1711 31.7879 43.1335 31.7241 43.0717C31.6617 43.0192 31.5963 42.9703 31.5284 42.9252C31.3727 42.8097 31.2171 42.6943 31.0836 42.5789C30.9502 42.4634 30.7768 42.3435 30.6389 42.2148C30.3287 41.9828 30.0318 41.7338 29.7493 41.4689C29.636 41.3831 29.5356 41.2814 29.4514 41.167L29.4069 41.1226C29.6637 41.1521 29.9223 41.164 30.1808 41.1581C30.4359 41.1513 30.6882 41.1033 30.928 41.016C31.137 40.9351 31.3333 40.8244 31.5106 40.6874C32.1476 40.167 32.6317 39.4843 32.9116 38.7117C33.0703 38.3222 33.1751 37.9129 33.2229 37.4951C33.2723 37.0732 33.2543 36.6461 33.1696 36.2298H32.7248C32.3172 36.2324 31.9123 36.2968 31.524 36.4207C31.3416 36.4962 31.1504 36.5805 30.9591 36.6782C30.7702 36.7747 30.594 36.894 30.4343 37.0334C30.2779 37.1657 30.1468 37.3251 30.0473 37.504C29.9438 37.6898 29.8916 37.8997 29.8961 38.1123C29.8116 38.059 29.7405 38.0057 29.6826 37.9658C29.6305 37.9391 29.5801 37.9095 29.5314 37.877C29.4869 37.8503 29.4736 37.837 29.4869 37.837L29.0422 37.4951C28.891 37.3797 28.7353 37.2598 28.5974 37.1311C28.4595 37.0023 28.2905 36.8957 28.1526 36.767C28.0148 36.6382 27.8591 36.5095 27.7079 36.3807C27.5921 36.2962 27.4901 36.1944 27.4054 36.0788L27.361 36.0388C27.3529 35.7824 27.4278 35.5302 27.5745 35.3196C27.7259 35.1129 27.9108 34.9328 28.1215 34.7868C28.3371 34.6351 28.5719 34.5126 28.8198 34.4227C29.0518 34.333 29.2915 34.2647 29.5359 34.2185C29.7554 34.1735 29.9789 34.1512 30.203 34.1519C30.4246 34.1529 30.6459 34.1678 30.8657 34.1963C31.1081 34.2255 31.3487 34.2685 31.5862 34.325C31.8183 34.3812 32.0392 34.4757 32.24 34.6047C32.4383 34.7155 32.6286 34.8402 32.8093 34.9777C32.9872 35.1168 33.1696 35.2648 33.3564 35.4217C33.6277 35.6215 33.8945 35.8302 34.157 36.0522C34.4194 36.2742 34.6773 36.4962 34.9219 36.7492C35.1356 36.9469 35.3159 37.1778 35.4557 37.433C35.5843 37.7197 35.6884 38.0168 35.767 38.321C35.8463 38.6206 35.8793 38.9305 35.8648 39.24C35.8395 39.8433 35.688 40.4347 35.4201 40.976C35.3909 41.053 35.3552 41.1272 35.3133 41.198C35.2689 41.278 35.2288 41.3534 35.1844 41.4245L35.7003 41.6154C35.8629 41.6754 36.0313 41.7186 36.2029 41.7441C36.3724 41.7759 36.5474 41.7621 36.7099 41.7042C36.9737 41.5942 37.2138 41.4344 37.4171 41.2336C37.6488 41.0126 37.8575 40.7686 38.0397 40.5054C38.1095 40.3904 38.1734 40.2718 38.231 40.1502C38.2893 40.024 38.3326 39.8914 38.36 39.7551C38.4578 39.8128 38.5334 39.8572 38.5823 39.8927L38.7247 39.9904C38.7647 40.017 38.7869 40.0259 38.7869 39.9904C38.947 40.1058 39.0983 40.2213 39.2317 40.3411L39.6765 40.7185C39.9914 40.9529 40.2929 41.2049 40.5793 41.4733ZM43.4347 36.9801C43.4376 36.9903 43.4376 37.001 43.4347 37.0112C43.4347 37.0112 43.4347 37.0112 43.4347 37.0423H37.6439C37.5603 37.012 37.4855 36.9617 37.426 36.8957C37.36 36.8252 37.2886 36.7599 37.2125 36.7004L36.3229 35.7369C36.163 35.5836 36.0143 35.4189 35.8782 35.2441C35.7403 35.0754 35.6024 34.9022 35.4601 34.7335L35.3089 34.5381L35.1354 34.3472C35.1432 34.3257 35.1432 34.3021 35.1354 34.2806H40.9663C41.0485 34.3232 41.1211 34.3822 41.1798 34.4538C41.248 34.5223 41.3208 34.5861 41.3977 34.6447L42.2872 35.6082L42.732 36.101L43.1767 36.616C43.2346 36.6738 43.2835 36.7315 43.328 36.7847L43.4347 36.9801Z" fill="white"/>
<path d="M43.1862 37.0022C43.1862 37.0022 43.4486 37.0022 43.4753 37.0421C43.4353 37.0421 43.5109 37.0421 43.4753 37.0421C43.2724 37.0586 43.0731 37.105 42.8838 37.1798C42.6049 37.2753 42.3389 37.405 42.0921 37.566C41.857 37.7304 41.6573 37.9403 41.505 38.1832C41.3615 38.406 41.2591 38.6526 41.2026 38.9113C41.1455 39.1639 41.1098 39.4209 41.0958 39.6795C41.0958 39.9814 41.0736 40.2833 41.0736 40.5674V50.6194C40.9922 50.5736 40.9135 50.5232 40.8379 50.4685L40.6866 50.3619C40.6466 50.3353 40.6333 50.3264 40.6466 50.3619L40.1307 49.9756C39.9593 49.8479 39.7946 49.7115 39.637 49.5672L39.1389 49.172C38.9743 49.0344 38.8097 48.8967 38.6541 48.7547C38.5963 48.7103 38.5384 48.6659 38.4851 48.617C38.4229 48.5606 38.3649 48.4998 38.3116 48.435C38.3116 48.435 38.3116 48.435 38.3116 48.4128V38.9913C38.3116 38.7071 38.3116 38.4141 38.3116 38.1033C38.3034 37.8069 38.3138 37.5103 38.3427 37.2153C38.3408 37.1828 38.3408 37.1501 38.3427 37.1176C38.3468 37.0852 38.3468 37.0524 38.3427 37.0199H37.8046C37.723 36.9883 37.6499 36.9381 37.5911 36.8734L37.3998 36.6781C37.2397 36.5227 37.0885 36.3628 36.9551 36.1985C36.8217 36.0343 36.6526 35.8744 36.5103 35.7146C36.368 35.5548 36.2257 35.3949 36.0656 35.2218L35.6208 34.7112L35.4696 34.5158C35.4251 34.4581 35.3851 34.3959 35.3406 34.3249C35.3308 34.3165 35.3231 34.3058 35.3184 34.2938C35.3184 34.2938 35.3184 34.2938 35.3184 34.2583H40.0284C40.1106 34.3009 40.1833 34.3598 40.2419 34.4315C40.3131 34.5046 40.3905 34.5714 40.4732 34.6313L41.3627 35.5947C41.4347 35.6863 41.5135 35.7724 41.5984 35.8522C41.6354 35.8945 41.6789 35.9305 41.7274 35.9588L42.2211 36.3673C42.3767 36.496 42.5324 36.6292 42.6925 36.7713C42.7562 36.8228 42.817 36.8777 42.8749 36.9356C42.9371 36.9977 43.1417 36.9445 43.1862 37.0022Z" fill="white"/>
<defs>
<linearGradient id="paint0_linear_1326_1060" x1="19.4708" y1="70.706" x2="45.0503" y2="12.4392" gradientUnits="userSpaceOnUse">
<stop stop-color="#AA825F"/>
<stop offset="1" stop-color="#DDBC91"/>
</linearGradient>
</defs>
</svg>
