<svg id="Layer_1" data-name="Layer 1" xmlns="http://www.w3.org/2000/svg" xmlns:xlink="http://www.w3.org/1999/xlink" viewBox="0 0 454.23 332.87"><defs><style>.cls-1,.cls-2{fill:none;}.cls-2{clip-rule:evenodd;}.cls-3{fill:#fff;}.cls-4{clip-path:url(#clip-path);}.cls-5{clip-path:url(#clip-path-2);}.cls-6{fill:url(#linear-gradient);}</style><clipPath id="clip-path"><path id="SVGID" class="cls-1" d="M168.76,20.48v166H334.87v-166ZM294.07,90.67A5.51,5.51,0,0,1,290,94a5.19,5.19,0,0,1-.59.24,7,7,0,0,1-1.26.3,2.37,2.37,0,0,0-.7.33,1.81,1.81,0,0,0-.48.51,2.23,2.23,0,0,0-.25.62,11.22,11.22,0,0,0-.24,1.7c0,.87-.06,1.79-.06,2.73V134a5.53,5.53,0,0,1-5.51,5.52,5.57,5.57,0,0,1-2.74-.73,12.58,12.58,0,0,1-1.36-.88l-.07-.06a4.83,4.83,0,0,1-.56-.36l-1.73-1.3c-.67-.5-1.32-1-1.93-1.58L271,133.36c-.54-.44-1.08-.91-1.61-1.39q-.35-.27-.69-.57a10.86,10.86,0,0,1-1.23-1.29,15.18,15.18,0,0,1-4.68,3.28,17.44,17.44,0,0,1-8.17,1.56,21.79,21.79,0,0,1-8.13-1.95,56.71,56.71,0,0,1-6.17-3.31l-.34-.23a6.16,6.16,0,0,1-.55-.33l-.4-.27a6.68,6.68,0,0,1-.89-.61,10.59,10.59,0,0,1-1.62-1.18l-1.76-1.28c-.67-.5-1.37-1-2.08-1.59-.89-.69-1.8-1.42-2.7-2.18s-1.67-1.37-2.54-2.06h0l-.61-.37-.35-.23-.18-.08a8.08,8.08,0,0,1-1-.56,2.1,2.1,0,0,1-.26-.13,10.91,10.91,0,0,0-1.38-.61,14.48,14.48,0,0,0-2.82-.52,3.7,3.7,0,0,0-1.62.21,7.35,7.35,0,0,0-1.71,1,23.63,23.63,0,0,0-2.21,2l-.26.26c-.53.49-1,1-1.51,1.48s-1.19,1.22-1.83,1.87-1.1,1-1.69,1.55a16.38,16.38,0,0,1-2.38,1.68l-.16.09a12.83,12.83,0,0,1-3.39,1.25,11.42,11.42,0,0,1-4,.14l-.22,0a12.81,12.81,0,0,1-4.26-1.6l-.18-.11c-.57-.37-1.14-.74-1.71-1.13s-1.27-.89-1.85-1.37c-2.07-1.59-4.12-3.27-6-4.93-.38-.31-.69-.59-.93-.83l-.42-.42a5.69,5.69,0,0,1-1.71-4.05,5.34,5.34,0,0,1,.46-2.23,5.56,5.56,0,0,1,8.06-2.55,10.1,10.1,0,0,1,1,.61l.85.64.2.15a5.91,5.91,0,0,0,1.54-1.07c.9-.86,1.87-1.85,2.77-2.84a41.29,41.29,0,0,1,3.76-3.6c.69-.56,1.39-1.08,2.12-1.58a14.25,14.25,0,0,1,3.14-1.59,15.94,15.94,0,0,1,6.57-1,21.83,21.83,0,0,1,7.38,1.84,36.62,36.62,0,0,1,5.79,3.29c1.43,1,2.83,2,4.18,3s2.68,2.07,4,3.16l.16.14,1,.87c.25.22.51.42.78.63a3.6,3.6,0,0,1,.47.39l.08.06a6.58,6.58,0,0,1,.67.4c.14.09.28.18.41.28a2.2,2.2,0,0,1,.32.21,5.32,5.32,0,0,1,.83.49c.69.39,1.39.76,2.1,1.1s1.52.7,2.34,1a11.82,11.82,0,0,0,2.89.55,6.07,6.07,0,0,0,4.59-1.8,2.52,2.52,0,0,0,.41-.53c-.54,0-1.07-.07-1.59-.13a6.74,6.74,0,0,1-3.82-1.62l-.24-.19c-.68-.49-1.22-.9-1.76-1.31s-1.05-.81-1.61-1.27a38,38,0,0,1-3.1-2.64A10.19,10.19,0,0,1,238,106a5.51,5.51,0,0,1,2.7-9.15l-.1-.06-.6-.42-.62-.37a9,9,0,0,1-.74-.57l-1.24-.94q-.76-.57-1.56-1.23c-.64-.47-1.25-1-1.83-1.48-.38-.35-.8-.71-1.23-1.06A10.87,10.87,0,0,1,231.1,89a5.53,5.53,0,0,1-1.51-3.8,9.49,9.49,0,0,1,1.8-5.63,13,13,0,0,1,3.12-3.07,16.17,16.17,0,0,1,3.57-1.87,21,21,0,0,1,3.29-.93,20,20,0,0,1,6.19-.12,26.38,26.38,0,0,1,3,.54,12.59,12.59,0,0,1,3.74,1.57c.66.39,1.31.8,1.92,1.24a5.51,5.51,0,0,1,5-3.11h19.45a5.49,5.49,0,0,1,2.48.59,7.83,7.83,0,0,1,2.26,1.72.19.19,0,0,0,.07.06,5.31,5.31,0,0,1,.65.6l3,3.22c.58.64,1.1,1.24,1.63,1.88l1.3,1.55c.29.31.55.62.78.92s.49.68.71,1a5.06,5.06,0,0,1,.24.46,1,1,0,0,0-.08-.18,4,4,0,0,1,.23.46A5.49,5.49,0,0,1,294.07,90.67Z"/></clipPath><clipPath id="clip-path-2"><path id="SVGID-2" data-name="SVGID" class="cls-2" d="M303.88,87.29l6.71,6.7,6.7-6.7a9.47,9.47,0,1,0-13.41,0M261.32,44.75l6.7,6.7a9.46,9.46,0,1,0,0-13.4Zm-25.72,6.7,6.71-6.7-6.71-6.7a9.46,9.46,0,1,0,0,13.4Zm1.76,1.77a12,12,0,1,1,0-16.93l6.7,6.7,6-6L235.76,22.73A1.24,1.24,0,1,1,237.52,21l14.29,14.28L266.1,21a1.25,1.25,0,0,1,1.77,1.76L253.58,37l6,6,6.71-6.7a12,12,0,1,1,0,16.93h0L251.81,38.78,237.37,53.22Zm79.93,66.47-6.7-6.7-6.71,6.7a9.47,9.47,0,1,0,13.41,0Zm-4.94-8.47,6.7,6.71a12,12,0,1,1-16.93,0l3.77-3.78h0l10.66-10.65L302.12,89.05l0,0a12,12,0,1,1,16.95,0l-6.7,6.7,6,6,14.29-14.29a1.25,1.25,0,1,1,1.76,1.77l-14.29,14.28,14.29,14.28a1.25,1.25,0,0,1-1.76,1.77l-14.29-14.29Zm-51,51,6.7,6.7a9.46,9.46,0,1,0,0-13.4ZM244.07,164l-6.7,6.7a12,12,0,1,1,0-16.94h0l7.58,7.59,6.86,6.85,6.86-6.85,7.59-7.59h0a12,12,0,1,1,0,16.94l-6.71-6.7-6,6,14.29,14.29A1.25,1.25,0,0,1,266.1,186l-14.29-14.28L237.52,186a1.24,1.24,0,1,1-1.76-1.76L250.05,170Zm-1.76-1.76-6.71-6.7a9.46,9.46,0,1,0,0,13.4Zm-42.57-42.54L193,113l-6.7,6.7a9.47,9.47,0,1,0,13.4,0Zm-8.46-23.94-6.71-6.7a12,12,0,1,1,17,0l0,0-14.45,14.44,14.45,14.44h0a12,12,0,1,1-17,0l6.71-6.71-6-6L171,119.54a1.25,1.25,0,0,1-1.77-1.77l14.3-14.28-14.3-14.28a1.27,1.27,0,0,1,0-1.77,1.25,1.25,0,0,1,1.77,0l14.29,14.29ZM193,94l6.7-6.7a9.47,9.47,0,1,0-13.4,0Zm104,58.86h4.11v-4.11a4.11,4.11,0,0,0-7-2.91h0a4.11,4.11,0,0,0-1.21,2.91,4.06,4.06,0,0,0,1.21,2.9A4.11,4.11,0,0,0,297.09,152.85ZM202.42,54.13v4.11a4.12,4.12,0,0,0,8.24,0,4.13,4.13,0,0,0-4.12-4.11Zm98.78,4.11V54.13h-4.11a4.11,4.11,0,0,0-2.91,1.21,4.06,4.06,0,0,0-1.21,2.9,4.11,4.11,0,0,0,1.21,2.91h0a4.15,4.15,0,0,0,2.91,1.21,4.15,4.15,0,0,0,4.12-4.12Zm-98.78,94.61h4.12a4.13,4.13,0,0,0,4.12-4.11,4.15,4.15,0,0,0-1.21-2.91h0a4.12,4.12,0,0,0-7,2.91Zm91-89.14-6.4,6.4a10.18,10.18,0,0,1,2.17,6.27V88.55a1.25,1.25,0,1,1-2.5,0V76.38a7.71,7.71,0,0,0-2.26-5.44h0a7.72,7.72,0,0,0-5.44-2.26H266.76a1.25,1.25,0,1,1,0-2.49h12.18a10.12,10.12,0,0,1,6.27,2.17l6.41-6.4a6.61,6.61,0,0,1,5.47-10.32h5.36a1.25,1.25,0,0,1,1.25,1.25v5.36h0a6.6,6.6,0,0,1-10.31,5.47ZM291.62,145l-6.41-6.4a10.12,10.12,0,0,1-6.27,2.17H266.76a1.25,1.25,0,1,1,0-2.49h12.18a7.75,7.75,0,0,0,7.71-7.71V118.43a1.25,1.25,0,0,1,2.5,0V130.6a10.18,10.18,0,0,1-2.17,6.27l6.4,6.4a6.61,6.61,0,0,1,10.32,5.47v5.36a1.25,1.25,0,0,1-1.25,1.25h-5.36A6.6,6.6,0,0,1,291.62,145ZM212,62l6.4,6.4a10.17,10.17,0,0,1,6.28-2.17h12.18a1.25,1.25,0,0,1,0,2.49H224.69a7.71,7.71,0,0,0-5.44,2.26h0A7.68,7.68,0,0,0,217,76.38V88.55a1.25,1.25,0,0,1-2.5,0V76.38a10.12,10.12,0,0,1,2.17-6.27l-6.41-6.4a6.61,6.61,0,0,1-10.31-5.47V52.88a1.24,1.24,0,0,1,1.24-1.25h5.37A6.61,6.61,0,0,1,212,62Zm-1.77,81.32,6.41-6.4a10.12,10.12,0,0,1-2.17-6.27V118.43a1.25,1.25,0,1,1,2.5,0V130.6a7.64,7.64,0,0,0,2.26,5.43h0a7.71,7.71,0,0,0,5.44,2.26h12.18a1.25,1.25,0,0,1,0,2.49H224.69a10.17,10.17,0,0,1-6.28-2.17L212,145a6.61,6.61,0,0,1-5.47,10.32h-5.37a1.24,1.24,0,0,1-1.24-1.25v-5.36a6.6,6.6,0,0,1,10.31-5.47ZM256.6,60.1l-2.54,2.55a8.72,8.72,0,0,1,4,2.28l7.26,7.25A1.25,1.25,0,0,1,263.54,74l-7.26-7.26a6.3,6.3,0,0,0-4.47-1.84h0a6.27,6.27,0,0,0-4.46,1.84L240.09,74a1.25,1.25,0,1,1-1.77-1.77l7.26-7.25a8.71,8.71,0,0,1,4.17-2.33l-2.5-2.5a6.61,6.61,0,1,1,9.35,0Zm-4.67,1.15,2.91-2.91a4.11,4.11,0,1,0-5.82,0Zm29.44,30.52A1.25,1.25,0,0,1,283.14,90l7.26,7.25a8.86,8.86,0,0,1,2.34,4.24l2.57-2.56a6.6,6.6,0,1,1,0,9.35l-2.61-2.61a8.78,8.78,0,0,1-2.3,4L283.14,117a1.25,1.25,0,1,1-1.77-1.76l7.26-7.26a6.27,6.27,0,0,0,1.84-4.46h0A6.28,6.28,0,0,0,288.63,99Zm-74.82,14.66,2.91-2.91-2.91-2.91a4.11,4.11,0,1,0,0,5.82Zm4.36-.83-2.59,2.59a6.6,6.6,0,1,1,0-9.34l2.58,2.58a8.71,8.71,0,0,1,2.33-4.17L220.49,90a1.24,1.24,0,0,1,1.76,1.76L215,99a6.33,6.33,0,0,0,0,8.92l7.26,7.26a1.24,1.24,0,1,1-1.76,1.76l-7.26-7.26A8.67,8.67,0,0,1,210.91,105.6Zm43.85,43-2.91-2.91-2.91,2.91a4.11,4.11,0,1,0,5.82,0Zm-.76-4.29,2.53,2.53a6.61,6.61,0,1,1-9.36,0l2.52-2.52a8.71,8.71,0,0,1-4.1-2.31l-7.27-7.26a1.25,1.25,0,1,1,1.77-1.76l7.26,7.26a6.32,6.32,0,0,0,4.46,1.84h0a6.3,6.3,0,0,0,4.47-1.84l7.26-7.26a1.24,1.24,0,0,1,1.76,1.76L258,142.05A8.72,8.72,0,0,1,254,144.35ZM267.81,87.5a22.6,22.6,0,1,0,6.63,16A22.56,22.56,0,0,0,267.81,87.5Zm-16-9.12a25.11,25.11,0,1,1-17.76,7.35A25.08,25.08,0,0,1,251.81,78.38Zm42.35,25.23,2.91,2.91a4.11,4.11,0,1,0,0-5.82Z"/></clipPath><linearGradient id="linear-gradient" x1="208.9" y1="201.07" x2="294.46" y2="6.5" gradientUnits="userSpaceOnUse"><stop offset="0" stop-color="#aa825f"/><stop offset="1" stop-color="#ddbc91"/></linearGradient></defs><path class="cls-3" d="M152.18,264.74a4.36,4.36,0,0,1,.91.75c.53.5.8.82.8,1a7.17,7.17,0,0,1-1,2.62,21.77,21.77,0,0,1-1.6,2.3,29.74,29.74,0,0,1-2.09,2.3,10.91,10.91,0,0,1-2.51,1.88,12.33,12.33,0,0,1-1.23.53,3.77,3.77,0,0,1-1.34.22,6,6,0,0,1-1.93-.11c-.64-.14-1.25-.29-1.82-.43a31.35,31.35,0,0,1-3.42-1.44c-1.07-.54-2.22-1.06-3.43-1.56a3.21,3.21,0,0,1-.91-.53c-.25-.22-.52-.43-.8-.64a3.89,3.89,0,0,1-.75-.49c-.21-.17-.43-.33-.64-.48l-2.46-2q-1.29-1-2.46-2l-.54-.48-.54-.48c-.42.64-.87,1.27-1.33,1.87a18.18,18.18,0,0,1-1.55,1.77l-1,1c1,.79,2,1.61,3,2.46s1.94,1.72,2.94,2.57c.57.5,1.14,1,1.71,1.55a6.8,6.8,0,0,1,1.39,1.88,19.82,19.82,0,0,1,2.25,5.78,25.26,25.26,0,0,1,.53,6.15,11.23,11.23,0,0,1-1.92,5.83,14.34,14.34,0,0,1-6.37,5.57,18,18,0,0,1-8.4,1.61,24.58,24.58,0,0,1-9.15-2.2,73.89,73.89,0,0,1-8.3-4.44,1.92,1.92,0,0,0-.53-.37,6,6,0,0,1-.64-.38c-.15-.14-.2-.2-.16-.16a2.16,2.16,0,0,0,.48.27,2.63,2.63,0,0,0-.38-.16,1.21,1.21,0,0,1-.37-.27,3.24,3.24,0,0,1-.38-.21,3,3,0,0,0-.37-.22,9.25,9.25,0,0,0-1.29-.91,5.67,5.67,0,0,1-1.17-.91c-1-.71-2-1.42-3-2.14s-1.94-1.46-2.94-2.25c-1.28-1-2.57-2-3.85-3.1s-2.61-2.14-4-3.21l-.22-.22-1.6-1a1,1,0,0,0-.22-.16.73.73,0,0,1-.21-.16l-.43-.21-.43-.22a5.84,5.84,0,0,1-.8-.48,4.07,4.07,0,0,0-.91-.48,23.21,23.21,0,0,0-3.42-1.5,30.43,30.43,0,0,0-6-1.12,13.66,13.66,0,0,0-6,.8,18.62,18.62,0,0,0-4.87,2.84A40.06,40.06,0,0,0,50.5,285c-.93.85-1.8,1.71-2.62,2.56s-1.7,1.75-2.63,2.68c-.64.64-1.32,1.27-2,1.87a16.2,16.2,0,0,1-2.35,1.66A10.87,10.87,0,0,1,38,294.81a9,9,0,0,1-3.11.11,11.21,11.21,0,0,1-3.64-1.39c-.78-.5-1.57-1-2.35-1.55s-1.54-1.09-2.25-1.66q-4.71-3.65-8.88-7.28c-.36-.29-.64-.54-.86-.75l-.59-.59c-.18-.18-.23-.3-.16-.37s.13,0,.38.1.49.31.75.49.55.41.91.69l1.28,1a4.22,4.22,0,0,0,1.5.65,8.36,8.36,0,0,0,5.88-.22,18.12,18.12,0,0,0,4.61-3.1q2.46-2.36,4.71-4.82a48.66,48.66,0,0,1,4.81-4.6c.79-.64,1.62-1.27,2.52-1.87a12.41,12.41,0,0,1,2.83-1.45,16,16,0,0,1,6.53-1,23.94,23.94,0,0,1,8.19,2,45.43,45.43,0,0,1,7.33,4.18c2.07,1.42,4.07,2.87,6,4.33s3.85,3,5.78,4.55l1.6,1.39c.5.43,1,.86,1.61,1.29a4.64,4.64,0,0,0,.42.37,3.67,3.67,0,0,1,.43.37l.27.16a.82.82,0,0,0,.27.17.86.86,0,0,0,.43.26,1,1,0,0,1,.42.27.33.33,0,0,0,.22.11l.21.21.43.22a1,1,0,0,0,.21.16.77.77,0,0,1,.22.16.88.88,0,0,0,.48.26,1,1,0,0,1,.48.27q2,1.19,4.12,2.2c1.39.67,2.84,1.3,4.34,1.87a25.91,25.91,0,0,0,6.58,1.28,16.44,16.44,0,0,0,6.69-1,16.86,16.86,0,0,0,6.58-4.17,11.93,11.93,0,0,0,3.37-7,15.14,15.14,0,0,0,.11-3.1,22.18,22.18,0,0,0-.43-3.11c-.14-.57-.27-1.1-.37-1.6s-.24-1-.38-1.5a11.17,11.17,0,0,1-2.25,1,11.48,11.48,0,0,1-3.47.54,26.65,26.65,0,0,1-3.48-.22,2,2,0,0,1-1.18-.53q-.64-.54-1-.75c-.79-.57-1.56-1.14-2.3-1.71s-1.52-1.18-2.31-1.82a52.15,52.15,0,0,1-4.38-3.75,7.35,7.35,0,0,1-1.5-1.5l-.22-.21a29.32,29.32,0,0,0,3.86.16,12.25,12.25,0,0,0,3.74-.7,11.4,11.4,0,0,0,2.89-1.66,19.58,19.58,0,0,0,2.46-2.3,23.84,23.84,0,0,0,4.61-7.49,23.46,23.46,0,0,0,1.55-6.1,19.67,19.67,0,0,0-.27-6.32H113a19.54,19.54,0,0,0-6,1,29.09,29.09,0,0,0-2.84,1.28,13.68,13.68,0,0,0-2.62,1.77,8.69,8.69,0,0,0-1.93,2.35,6.16,6.16,0,0,0-.75,3.05c-.42-.28-.78-.53-1.07-.75a7,7,0,0,1-.74-.42c-.22-.15-.29-.22-.22-.22-.78-.57-1.55-1.14-2.3-1.71S93,243.65,92.24,243A26.67,26.67,0,0,1,90,241.19c-.71-.64-1.46-1.28-2.25-1.93a7,7,0,0,1-1.49-1.49l-.22-.22A5.94,5.94,0,0,1,87.16,234a11.17,11.17,0,0,1,2.72-2.68,15.57,15.57,0,0,1,3.48-1.82,23.13,23.13,0,0,1,3.59-1,17.15,17.15,0,0,1,3.32-.32,23.8,23.8,0,0,1,3.31.22,28.68,28.68,0,0,1,3.59.64,10.74,10.74,0,0,1,3.26,1.39,26.79,26.79,0,0,1,2.84,1.87c.89.68,1.8,1.41,2.73,2.2q2,1.5,4,3.15t3.8,3.48a13.23,13.23,0,0,1,2.68,3.43A27.94,27.94,0,0,1,128,248.9a15.43,15.43,0,0,1,.48,4.6,21.14,21.14,0,0,1-2.14,8.67,10.14,10.14,0,0,1-.53,1.12c-.22.4-.43.77-.65,1.13l2.57,1a13.28,13.28,0,0,0,2.52.64,4.91,4.91,0,0,0,2.51-.21,11,11,0,0,0,3.54-2.36,22,22,0,0,0,3.1-3.64,15.85,15.85,0,0,0,1-1.76,8.35,8.35,0,0,0,.64-2c.5.28.88.52,1.13.69l.69.48c.22.15.32.18.32.11q1.19.86,2.31,1.77l2.3,1.87A52.26,52.26,0,0,1,152.18,264.74Zm14.23-22.48a.34.34,0,0,1,.11.16s0,.09.1.16H137.51a2.67,2.67,0,0,1-1.07-.75,9.65,9.65,0,0,0-1.07-1l-4.49-4.82a26.85,26.85,0,0,1-2.2-2.46c-.68-.85-1.37-1.71-2.08-2.57q-.43-.53-.75-1l-.75-1a.43.43,0,0,0-.11-.32H154.1a3.1,3.1,0,0,1,1.07.85,10.65,10.65,0,0,0,1.07,1l4.5,4.82c.71.79,1.42,1.61,2.14,2.46l2.14,2.57a9.6,9.6,0,0,1,.75.86A10,10,0,0,1,166.41,242.26Z"/><path class="cls-3" d="M166.41,242.26c0,.07.07.18.21.32a1.9,1.9,0,0,1-.58.11c-.18,0-2.27.68-2.41.75a11.84,11.84,0,0,0-3.91,1.76,11,11,0,0,0-2.94,3.05,11.41,11.41,0,0,0-1.5,3.64,23.28,23.28,0,0,0-.54,3.86c-.07,1.49-.1,3-.1,4.55v50.25a12.72,12.72,0,0,1-1.18-.75q-.44-.33-.75-.54c-.21-.14-.29-.18-.21-.11l-2.57-1.92c-.86-.65-1.68-1.32-2.46-2l-2.41-2c-.82-.67-1.63-1.37-2.41-2.08-.29-.22-.57-.45-.86-.7a6.88,6.88,0,0,1-.85-.91c0-.07,0-.11-.06-.11s0,0,0-.1v-47c0-1.42,0-2.89-.05-4.39a33.24,33.24,0,0,1,.16-4.38,2.2,2.2,0,0,1,.05-.49,2.06,2.06,0,0,0,0-.48h-2.78a2.67,2.67,0,0,1-1.07-.75l-1-1c-.79-.79-1.55-1.59-2.3-2.41s-1.52-1.62-2.3-2.41-1.43-1.6-2.15-2.46L127.34,231l-.75-1c-.21-.28-.42-.61-.64-1a.29.29,0,0,1-.1-.16s0-.09-.11-.16H149.5a3.2,3.2,0,0,1,1.07.85,9.65,9.65,0,0,0,1.07,1l4.49,4.82a15.7,15.7,0,0,0,1.18,1.29,3.32,3.32,0,0,0,.64.53l2.47,2c.78.65,1.56,1.32,2.35,2a9.74,9.74,0,0,1,.91.8C163.93,242.35,166.12,242,166.41,242.26Z"/><path class="cls-3" d="M176.79,241.83a10.65,10.65,0,0,0-1.07-1l-4.5-4.82a28.3,28.3,0,0,1-2.19-2.46c-.68-.85-1.37-1.71-2.09-2.57l-.75-1c-.21-.28-.46-.61-.74-1a.43.43,0,0,0-.11-.32h64.43a3.2,3.2,0,0,1,1.07.85,9.65,9.65,0,0,0,1.07,1l4.5,4.82c.71.79,1.42,1.61,2.14,2.46l2.14,2.57a9.6,9.6,0,0,1,.75.86c.21.28.42.6.64,1a.29.29,0,0,1,.1.16s0,.09.11.16H177.86A2.61,2.61,0,0,1,176.79,241.83ZM204,276.51v25.58a.29.29,0,0,1,.1.21,2.7,2.7,0,0,1-.1,1.29,3.19,3.19,0,0,1-.75,1.18,2.4,2.4,0,0,1-2,.42,8.57,8.57,0,0,1-2.51-.59,20.21,20.21,0,0,1-2.41-1.12,9.88,9.88,0,0,1-1.71-1.71,7.3,7.3,0,0,1-.75-.64l-.64-.65c-.79-.92-1.59-1.81-2.41-2.67s-1.63-1.75-2.41-2.68a11.25,11.25,0,0,0-1.18-1.39,11.25,11.25,0,0,1-1.18-1.39l-.32-.32q-2-2.14-4-4.6c-.35-.36-.71-.73-1.07-1.13s-.71-.8-1.07-1.23a1,1,0,0,0-.21-.16.58.58,0,0,1-.22-.27.19.19,0,0,1-.21-.21l-.11-.11-1.92-1.92c-.64-.65-1.29-1.32-1.93-2q-2.46-2.67-4.71-5.35l-1.07-1.28-1.07-1.29a1.55,1.55,0,0,1-.32-.43l-.21-.42a16.49,16.49,0,0,1-.91-2.57,6.15,6.15,0,0,1-.16-2.68,3.76,3.76,0,0,1,2.67-3.21,8,8,0,0,1,2.14-.53c.71-.07,1.46-.11,2.25-.11s1.57.11,2.35.11H221a3.1,3.1,0,0,1,1.07.85,5.49,5.49,0,0,0,.54.48,6.78,6.78,0,0,1,.53.49l4.5,4.81a31.58,31.58,0,0,1,2.19,2.46c.68.86,1.38,1.72,2.09,2.57a6.35,6.35,0,0,1,.75.91q.32.48.75,1a.4.4,0,0,0,.11.32ZM191,290.64a2.53,2.53,0,0,0,.53-1.07V276.51h-1.39a10.08,10.08,0,0,1-1.39-.11h-3.11a17.81,17.81,0,0,0-3,.27,4.47,4.47,0,0,0-2.62,1.45,4,4,0,0,0-1.07,2.46,7.57,7.57,0,0,0,.32,2.78,3.87,3.87,0,0,0,.48.59,4,4,0,0,1,.49.59l2,2.24c.64.72,1.28,1.47,1.93,2.25.28.29.53.56.74.8a8.94,8.94,0,0,0,.65.7,9.67,9.67,0,0,0,1.82.7,5,5,0,0,0,1.92.16A2.15,2.15,0,0,0,191,290.64Z"/><path class="cls-3" d="M244.65,242.9c0,.09.13.11.21.23a1.46,1.46,0,0,1-.33.12l-.74.19a15.84,15.84,0,0,0-3.91,1.76,11.09,11.09,0,0,0-2.94,3.05,11.64,11.64,0,0,0-1.5,3.64,23.26,23.26,0,0,0-.53,3.86c-.08,1.49-.11,3-.11,4.55v50.25c-.5-.29-.89-.54-1.18-.75s-.53-.4-.75-.54-.28-.18-.21-.11l-2.57-1.92c-.86-.65-1.68-1.32-2.46-2l-2.41-2c-.82-.67-1.62-1.37-2.41-2.08-.28-.22-.57-.45-.85-.7a6.31,6.31,0,0,1-.86-.91c0-.07,0-.11,0-.11s-.06,0-.06-.1v-47c0-1.42,0-2.89-.05-4.39a35.06,35.06,0,0,1,.16-4.38,3,3,0,0,1,.05-.49,2.1,2.1,0,0,0,.06-.48h-2.79a2.67,2.67,0,0,1-1.07-.75l-1-1c-.78-.79-1.55-1.59-2.3-2.41s-1.52-1.62-2.3-2.41-1.43-1.6-2.14-2.46-1.43-1.71-2.14-2.57q-.44-.53-.75-1a11.41,11.41,0,0,1-.65-1,.29.29,0,0,1-.1-.16s0-.09-.11-.16h23.76c.43.21.2,0,.48.31a10.65,10.65,0,0,0,1.07,1l4.5,4.82a14,14,0,0,0,1.18,1.29,12,12,0,0,0,1.23,1.07c.85.71,1.67,1.39,2.46,2s1.57,1.32,2.35,2a9.74,9.74,0,0,1,.91.8C244.09,242.35,244.6,242.82,244.65,242.9Z"/><path class="cls-3" d="M233.94,209v1.29a8,8,0,0,1-.8,2.41,9.84,9.84,0,0,1-1.45,2.08,18.91,18.91,0,0,1-1.87,2q-1,1-2,1.92c-.64.58-1.27,1.16-1.87,1.77a20.41,20.41,0,0,0-1.66,1.87,5.94,5.94,0,0,0-.86,1.39,2.45,2.45,0,0,0-.1,1.61.19.19,0,0,0,.05.16.21.21,0,0,1,0,.16c.15.22.2.32.16.32a.75.75,0,0,1-.26-.16,3.67,3.67,0,0,1-.43-.37c-.14-.15-.25-.25-.32-.32-.72-.65-1.4-1.29-2-1.93a25.08,25.08,0,0,1-1.82-2l-2.4-2.63c-.82-.89-1.63-1.8-2.41-2.73-.43-.57-.88-1.14-1.34-1.71s-.91-1.14-1.34-1.71a3.87,3.87,0,0,1-.37-.7,1.51,1.51,0,0,1-.06-.91,2.91,2.91,0,0,1,.59-1.76,11.87,11.87,0,0,1,1.23-1.45,16.75,16.75,0,0,1,1.88-2l2-1.76a34.75,34.75,0,0,0,3.53-3.91,6.42,6.42,0,0,0,1.39-4.87,3.23,3.23,0,0,1,1.07.86,10.65,10.65,0,0,0,1.07,1l4.49,4.82c.72.78,1.43,1.6,2.15,2.46l2.14,2.57a10.2,10.2,0,0,1,1.39,1.92c.07.08.1.13.1.16S233.87,208.9,233.94,209Z"/><path class="cls-3" d="M327.59,242.26a.34.34,0,0,1,.11.16s0,.09.11.16H249.89a2.61,2.61,0,0,1-1.07-.75l-1-1a55.79,55.79,0,0,1-4.49-4.82c-1.57-1.64-3-3.31-4.39-5a6.91,6.91,0,0,0-.69-1,6.41,6.41,0,0,1-.7-1,.44.44,0,0,1-.11-.32h77.81a3.1,3.1,0,0,1,1.07.85,10.65,10.65,0,0,0,1.07,1l4.5,4.82c.71.79,1.43,1.61,2.14,2.46l2.14,2.57a8.23,8.23,0,0,1,.75.86A10,10,0,0,1,327.59,242.26Zm-15.52,22.26c.29.36.55.68.8,1a5.93,5.93,0,0,1,.7,1,.25.25,0,0,0,.05.16.21.21,0,0,1,.06.16H295.91c-1.57,0-3.14,0-4.71.05s-3.17,0-4.81-.05q-3.54-.21-7.12-.53a33.87,33.87,0,0,0-7.12.1A26,26,0,0,0,269,267a8.33,8.33,0,0,0-2.83,1.4,8.62,8.62,0,0,0-2.41,2.56,14,14,0,0,0-1.45,3.32,19,19,0,0,0-.48,3.64,26,26,0,0,0,.16,3.64,33,33,0,0,0,.64,3.64,24.47,24.47,0,0,0,1.18,3.64,36.83,36.83,0,0,0,3.43,6.31c0,.07.1.22.32.43a1,1,0,0,0,.16.27,1.41,1.41,0,0,1,.16.27c.14.14.21.25.21.32l1.93,1.92q2.67,2.9,5.24,5.78c1.72,1.93,3.39,3.93,5,6l.86,1c.21.25.41.5.59.75s.23.41.16.48-.21,0-.43-.21l-.69-.7-.91-.9q-1.94-1.94-3.7-3.91l-3.58-4a8.82,8.82,0,0,1-1-1.07l-2.15-2.35c-.71-.78-1.42-1.57-2.14-2.35q-2.67-2.79-5.19-5.73c-1.67-2-3.3-4-4.87-6.05a55.31,55.31,0,0,1-4.55-7.12,28.52,28.52,0,0,1-2.83-8,31.51,31.51,0,0,1-.48-7.22,10.68,10.68,0,0,1,2.62-6.69,9.31,9.31,0,0,1,5.78-3.27,35.07,35.07,0,0,1,6.85-.48l3.64.22,3.64.21a38.9,38.9,0,0,0,4,.21h25.31a1.61,1.61,0,0,1,1,.75,12.47,12.47,0,0,1,1.07,1q2.34,2.46,4.49,4.81c.79.86,1.52,1.7,2.2,2.52S311.36,263.67,312.07,264.52Zm-40.24,37.14a5.77,5.77,0,0,1-.75-.85,5.26,5.26,0,0,0,.64.74A.1.1,0,0,0,271.83,301.66Z"/><path class="cls-3" d="M327.59,242.26c0,.07.07.18.22.32a2,2,0,0,1-.59.11c-.18,0-2.38.68-2.52.75a11.84,11.84,0,0,0-3.91,1.76,11.23,11.23,0,0,0-2.94,3.05,11.88,11.88,0,0,0-1.5,3.64,24.36,24.36,0,0,0-.53,3.86c-.07,1.49-.11,3-.11,4.55v50.25c-.5-.29-.89-.54-1.18-.75s-.53-.4-.75-.54-.28-.18-.21-.11L311,307.23c-.86-.65-1.68-1.32-2.46-2l-2.41-2c-.82-.67-1.62-1.37-2.41-2.08-.28-.22-.57-.45-.85-.7a6.91,6.91,0,0,1-.86-.91c0-.07,0-.11-.05-.11s-.06,0-.06-.1v-47c0-1.42,0-2.89,0-4.39a37.08,37.08,0,0,1,.16-4.38,3,3,0,0,1,.05-.49,2.1,2.1,0,0,0,.06-.48h-2.79a2.67,2.67,0,0,1-1.07-.75l-1-1c-.78-.79-1.55-1.59-2.3-2.41s-1.51-1.62-2.3-2.41-1.43-1.6-2.14-2.46L288.42,231q-.44-.53-.75-1a9.41,9.41,0,0,1-.64-1,.34.34,0,0,1-.11-.16s0-.09-.11-.16h23.76a3.1,3.1,0,0,1,1.07.85,10.65,10.65,0,0,0,1.07,1l4.5,4.82a12.68,12.68,0,0,0,1.18,1.29,2.81,2.81,0,0,0,.64.53c.85.71,1.67,1.39,2.46,2s1.57,1.32,2.35,2a9.74,9.74,0,0,1,.91.8C325,242.35,327.31,242,327.59,242.26Z"/><path class="cls-3" d="M392.45,268.16a.34.34,0,0,1,.11.16s0,.09.1.16v1.07a5.46,5.46,0,0,1-.1,1.07,17.3,17.3,0,0,1-.49,2.95,7.86,7.86,0,0,1-1.33,2.73,12,12,0,0,1-2.57,2.62c-1,.75-2,1.44-3.11,2.09a40.77,40.77,0,0,1-8.67,3.85c-1.28.5-2.58.94-3.9,1.34s-2.62.8-3.91,1.23c-1.86.71-3.76,1.51-5.72,2.4a16.28,16.28,0,0,0-5.09,3.59,9.2,9.2,0,0,0-1.6,2.14,7.08,7.08,0,0,0-.59,5.73,12.57,12.57,0,0,0,1.34,2.94,2.53,2.53,0,0,1-1.18-.53,3.09,3.09,0,0,0-.54-.43,4.26,4.26,0,0,1-.53-.43l-2.57-1.93q-1.29-1-2.46-1.92l-2.41-2c-.82-.68-1.62-1.38-2.41-2.09-.36-.29-.69-.59-1-.91a5.44,5.44,0,0,1-.8-1,6.14,6.14,0,0,0-.48-1,6.14,6.14,0,0,1-.48-1,11.46,11.46,0,0,1-.7-2.84,6,6,0,0,1,.38-2.84,9.58,9.58,0,0,1,1.39-2.35,12.15,12.15,0,0,1,1.93-1.93,20.52,20.52,0,0,1,5.4-3.21q2.94-1.17,5.94-2.25,1.81-.63,3.75-1.23c1.28-.39,2.56-.84,3.85-1.34q-2-1.81-3.91-3.63t-3.69-3.75l-1.87.64-1.77.64-4.39,1.88a46.65,46.65,0,0,0-4.28,2.08,51.07,51.07,0,0,0-4.81,2.63,25.87,25.87,0,0,0-4.39,3.37,12,12,0,0,0-2.2,3.05,3.65,3.65,0,0,0,.06,3.58l.21.22c.14.21.18.32.11.32a.91.91,0,0,1-.38-.16l-.48-.32q-.21-.17-.21-.06l-4.18-3.21q-1.38-1.17-2.73-2.19c-.89-.68-1.76-1.41-2.62-2.2-.43-.35-.84-.71-1.23-1.07s-.77-.71-1.12-1.07l-.64-.64a4,4,0,0,1-1-3.32,6.87,6.87,0,0,1,1.61-3.1,20.6,20.6,0,0,1,3.58-3.21A45.81,45.81,0,0,1,327.8,261q2.35-1.29,4.71-2.41t4.82-2.19c1.5-.57,3-1.13,4.55-1.66l4.65-1.66c-.92-1.43-1.8-2.89-2.62-4.39s-1.62-3-2.41-4.6a17.66,17.66,0,0,1-1.76-5.78,12.37,12.37,0,0,1,.69-5.89,11.32,11.32,0,0,1,3.16-4.87,11,11,0,0,1,5.19-2.62l1.66-.21a4.47,4.47,0,0,1,1.66.1,10.29,10.29,0,0,1,1.82.38c.57.18,1.14.37,1.71.59.79.36,1.5.71,2.14,1.07s1.29.75,1.93,1.18c1.21.85,2.42,1.75,3.64,2.67s2.39,1.86,3.53,2.78q3.63,2.9,6.85,5.89c.5.5,1,1,1.44,1.55a10,10,0,0,1,1.23,1.77,10.34,10.34,0,0,1,1.07,4,13.88,13.88,0,0,1-2,8,14.44,14.44,0,0,1-4.92,5,41.31,41.31,0,0,1-6.32,3.21,38.22,38.22,0,0,1-3.74,1.39c.92,1.43,1.87,2.78,2.83,4.07s2,2.56,3,3.85a37.1,37.1,0,0,0,7.17-3.85,31.14,31.14,0,0,0,2.46-2.09,27.7,27.7,0,0,0,2.57-2.61c.75-.94,3.9-4.76,4-5.87s.16-2.19.16-3.26c.5.28.89.52,1.18.69s.55.34.8.48.34.22.27.22c.85.64,1.69,1.28,2.51,1.93s-2.23,4-1.44,4.62,1.69,1.39,2.52,2,1.62,1.32,2.4,2Zm-38.75-18a20.93,20.93,0,0,0,6-4.17,14.18,14.18,0,0,0,3.42-6.64,13.08,13.08,0,0,0,.32-1.66,12.74,12.74,0,0,0,.11-1.66,12,12,0,0,0-5,1.82,10.74,10.74,0,0,0-3.69,4.39,13.21,13.21,0,0,0-1.23,5.57,4.43,4.43,0,0,0-.06,1.17C353.58,249.43,353.63,249.82,353.7,250.18Zm58.12-7.92a.34.34,0,0,1,.11.16s0,.09.11.16H382.92a2.67,2.67,0,0,1-1.07-.75,9.65,9.65,0,0,0-1.07-1l-4.49-4.82a26.85,26.85,0,0,1-2.2-2.46c-.68-.85-1.37-1.71-2.08-2.57q-.43-.53-.75-1l-.75-1a.43.43,0,0,0-.11-.32h29.11a3.1,3.1,0,0,1,1.07.85,10.65,10.65,0,0,0,1.07,1l4.5,4.82c.71.79,1.42,1.61,2.14,2.46l2.14,2.57a9.6,9.6,0,0,1,.75.86A10,10,0,0,1,411.82,242.26Z"/><path class="cls-3" d="M407.32,242.19c0,.07.08.18.22.32-.22.08,0,.08-.22.08a3.36,3.36,0,0,0-.85.14,19.79,19.79,0,0,0-5,2.47,11,11,0,0,0-2.94,3.05,11.41,11.41,0,0,0-1.5,3.64,23.26,23.26,0,0,0-.53,3.86c-.08,1.49-.11,3-.11,4.55v50.25c-.5-.29-.89-.54-1.18-.75s-.53-.4-.75-.54-.28-.18-.21-.11l-2.57-1.92c-.86-.65-1.68-1.32-2.46-2l-2.41-2c-.82-.67-1.62-1.37-2.41-2.08-.29-.22-.57-.45-.86-.7a6.88,6.88,0,0,1-.85-.91c0-.07,0-.11-.06-.11s0,0,0-.1v-47c0-1.42,0-2.89-.05-4.39a35.06,35.06,0,0,1,.16-4.38,3,3,0,0,1,.05-.49,2.1,2.1,0,0,0,.06-.48H380a2.67,2.67,0,0,1-1.07-.75l-1-1c-.79-.79-1.55-1.59-2.3-2.41s-1.52-1.62-2.3-2.41-1.43-1.6-2.14-2.46-1.43-1.71-2.14-2.57q-.44-.53-.75-1a11.41,11.41,0,0,1-.65-1,.29.29,0,0,1-.1-.16s0-.09-.11-.16h23.76a3.2,3.2,0,0,1,1.07.85,10.65,10.65,0,0,0,1.07,1l4.5,4.82a13.54,13.54,0,0,0,1.17,1.29,3,3,0,0,0,.65.53c.85.71,1.67,1.39,2.46,2s1.57,1.32,2.35,2a9.74,9.74,0,0,1,.91.8C405.7,242.35,407,241.91,407.32,242.19Z"/><path class="cls-3" d="M437.94,242.9a.33.33,0,0,1,.09.16.29.29,0,0,0,.09.16,1.23,1.23,0,0,1-.5.11.81.81,0,0,0-.41.11,9.42,9.42,0,0,0-3.32,1.76,10.54,10.54,0,0,0-2.5,3.05,13,13,0,0,0-1.27,3.64,28.19,28.19,0,0,0-.45,3.86c-.06,1.49-.08,3-.05,4.55s.05,3.05.05,4.54v45.71a10.28,10.28,0,0,1-1-.75,5.74,5.74,0,0,0-.69-.54c-.21-.14-.28-.18-.22-.11l-2.19-1.92c-.72-.65-1.42-1.32-2.09-2s-1.35-1.3-2-2-1.38-1.37-2.05-2.08c-.24-.22-.48-.45-.73-.7a3.66,3.66,0,0,1-.63-.91l-.18-.21v-47c0-1.42,0-2.89-.05-4.39a42,42,0,0,1,.14-4.38,2.93,2.93,0,0,1,0-.49,2.8,2.8,0,0,0,0-.48h-2.37a2.23,2.23,0,0,1-.9-.75l-.82-1a51.37,51.37,0,0,1-3.82-4.82c-1.33-1.64-2.58-3.31-3.73-5l-.64-1c-.18-.28-.36-.61-.54-1a.49.49,0,0,1-.09-.32h20l-1.18-1.4-.37-.42-1.09-1.29c-.42-.43-.83-.86-1.22-1.28s-.78-.86-1.14-1.29H420l-.09-.1-.55-.65a2.47,2.47,0,0,1-.63-.53,4.61,4.61,0,0,0-.55-.54,20.83,20.83,0,0,0-2.55-2.24,61.65,61.65,0,0,0-5.18-3.86,14,14,0,0,0-1.27-.75c-.42-.21-.88-.42-1.36-.64a19.69,19.69,0,0,0-3.1-1.39q-1.54-.54-3.09-1a30.5,30.5,0,0,0-7-.86,17,17,0,0,0-5.73,1.23,23.72,23.72,0,0,0-5.27,2.94A28,28,0,0,0,379.3,219a22.24,22.24,0,0,0-3.28,5.3c-.84,1.93-.87,3.8-1.11,6s.87,4.55,1.6,6.76c.12.35.26.71.41,1.07s.32.71.5,1.07a1,1,0,0,1,.22.37,1.36,1.36,0,0,0,.23.38,9.76,9.76,0,0,0,.73,1.17q.45.64.36.75t-.36-.21l-.59-.7-.77-.91c-1.34-1.57-3.48-3.34-4.72-4.95s-2.94-3.29-4.15-5c-.85-1.28-1.72-2.39-2.48-3.75a16.5,16.5,0,0,1-1.69-4.49,17.2,17.2,0,0,1-.18-6.53,17.93,17.93,0,0,1,2-6.15,25.21,25.21,0,0,1,3.64-5.09,22.66,22.66,0,0,1,10.27-6.63,18.59,18.59,0,0,1,6.41-.59,31,31,0,0,1,6.41,1.23,36,36,0,0,1,6.09,2.67,37,37,0,0,1,5.55,3.75,48.31,48.31,0,0,1,5.32,4.71c1.67,1.71,3.32,3.5,5,5.35l5.37,6.31a14.46,14.46,0,0,0,1.14,1.4,14.51,14.51,0,0,1,1.13,1.39,6.44,6.44,0,0,1,.64.64l.63.75.28.32.18.21.09.11q1.9,2.15,3.64,4.44t3.45,4.66c.18.28.52.73,1,1.34s1,1.26,1.59,2,1.12,1.37,1.64,2a13.3,13.3,0,0,0,1.14,1.23Zm-14.05-1a2.28,2.28,0,0,1,.43.64H396.81a2.61,2.61,0,0,1-1.07-.75,10.65,10.65,0,0,0-1.07-1l-4.5-4.82a28.3,28.3,0,0,1-2.19-2.46c-.68-.85-1.37-1.71-2.09-2.57a4.76,4.76,0,0,1-1.18-1.5,1.1,1.1,0,0,1-.42-.74H411.8a3.1,3.1,0,0,1,1.07.85,10.65,10.65,0,0,0,1.07,1l4.5,4.82c.71.79,1.42,1.61,2.14,2.46l2.14,2.57a5.53,5.53,0,0,1,.58.7Z"/><g class="cls-4"><g class="cls-5"><rect class="cls-6" x="168.76" y="20.48" width="166.11" height="166.02"/></g></g><path class="cls-3" d="M279.31,103.41a3,3,0,0,1,.6.5c.36.33.54.55.54.64a4.91,4.91,0,0,1-.64,1.76,14.84,14.84,0,0,1-1.08,1.53,19.92,19.92,0,0,1-1.39,1.54,7.07,7.07,0,0,1-1.68,1.25,5.8,5.8,0,0,1-.83.36,2.48,2.48,0,0,1-.89.14,3.74,3.74,0,0,1-1.29-.07l-1.21-.28a19.94,19.94,0,0,1-2.29-1c-.72-.36-1.48-.7-2.29-1a2.12,2.12,0,0,1-.61-.35c-.17-.15-.35-.29-.54-.43a3.06,3.06,0,0,1-.5-.32,4.46,4.46,0,0,0-.43-.33c-.52-.43-1.07-.87-1.64-1.32l-1.65-1.32a3.89,3.89,0,0,0-.35-.33,2.38,2.38,0,0,1-.36-.32c-.29.43-.59.85-.9,1.25a11.3,11.3,0,0,1-1,1.18l-.65.65c.67.52,1.33,1.07,2,1.64s1.3,1.15,2,1.72c.38.33.76.68,1.14,1a4.43,4.43,0,0,1,.93,1.25,13,13,0,0,1,1.5,3.86,17,17,0,0,1,.36,4.12,7.54,7.54,0,0,1-1.29,3.89,9.53,9.53,0,0,1-4.25,3.72,12.09,12.09,0,0,1-5.62,1.08A16.45,16.45,0,0,1,248.8,128a49.06,49.06,0,0,1-5.55-3,1.37,1.37,0,0,0-.35-.25,2.67,2.67,0,0,1-.43-.25c-.1-.09-.14-.13-.11-.11a1.26,1.26,0,0,0,.32.18l-.25-.1a1,1,0,0,1-.25-.18l-.25-.15-.25-.14a6.5,6.5,0,0,0-.86-.61,3.8,3.8,0,0,1-.79-.61c-.66-.47-1.32-1-2-1.43s-1.3-1-2-1.5c-.86-.67-1.72-1.36-2.57-2.07s-1.75-1.43-2.65-2.15l-.14-.14-1.08-.65a.61.61,0,0,0-.14-.1.49.49,0,0,1-.14-.11l-.29-.14-.29-.15a3.11,3.11,0,0,1-.53-.32,3.15,3.15,0,0,0-.61-.32,15.06,15.06,0,0,0-2.29-1,20.3,20.3,0,0,0-4-.75,9.21,9.21,0,0,0-4,.53,12.77,12.77,0,0,0-3.26,1.9,28.73,28.73,0,0,0-2.75,2.54c-.62.57-1.2,1.14-1.75,1.72s-1.14,1.16-1.75,1.78c-.43.43-.89.85-1.36,1.26a10.8,10.8,0,0,1-1.58,1.1,6.94,6.94,0,0,1-1.93.72,6,6,0,0,1-2.07.07,7.28,7.28,0,0,1-2.44-.93c-.52-.33-1-.68-1.57-1s-1-.72-1.5-1.1q-3.15-2.45-5.94-4.87a6.69,6.69,0,0,1-.57-.5l-.39-.39c-.12-.12-.16-.21-.11-.25s.08,0,.25.07a4.65,4.65,0,0,1,.5.32l.61.46.86.65a2.83,2.83,0,0,0,1,.43,5.56,5.56,0,0,0,3.93-.15,11.73,11.73,0,0,0,3.08-2.07q1.63-1.58,3.15-3.22a33.26,33.26,0,0,1,3.21-3.07c.53-.43,1.09-.85,1.69-1.26a8.41,8.41,0,0,1,1.89-1,10.58,10.58,0,0,1,4.36-.65,16.35,16.35,0,0,1,5.48,1.36,31.93,31.93,0,0,1,4.9,2.79c1.38,1,2.71,1.92,4,2.9s2.58,2,3.86,3l1.08.93c.33.29.69.57,1.07.86a2.15,2.15,0,0,0,.29.25,2.1,2.1,0,0,1,.28.25.56.56,0,0,1,.18.11.8.8,0,0,0,.18.1.58.58,0,0,0,.29.18.74.74,0,0,1,.28.18.21.21,0,0,0,.15.07l.14.15.28.14a.72.72,0,0,0,.15.11l.14.1a.58.58,0,0,0,.32.18.68.68,0,0,1,.32.18q1.37.79,2.76,1.47c.93.45,1.89.87,2.9,1.25a17.33,17.33,0,0,0,4.4.86,11.65,11.65,0,0,0,8.87-3.44,7.93,7.93,0,0,0,2.25-4.64,10.22,10.22,0,0,0,.07-2.08,13.76,13.76,0,0,0-.29-2.07c-.09-.38-.18-.74-.25-1.08s-.15-.66-.25-1a7.92,7.92,0,0,1-1.5.65,8,8,0,0,1-2.32.35,17.89,17.89,0,0,1-2.33-.14,1.29,1.29,0,0,1-.79-.36c-.28-.24-.5-.4-.64-.5l-1.54-1.14c-.5-.38-1-.79-1.54-1.22a37.35,37.35,0,0,1-2.93-2.5,5.26,5.26,0,0,1-1-1l-.14-.15a17,17,0,0,0,2.57.11,8.3,8.3,0,0,0,2.51-.46,8,8,0,0,0,1.93-1.11,14.76,14.76,0,0,0,1.64-1.54,16,16,0,0,0,3.08-5,15.78,15.78,0,0,0,1-4.08,13.56,13.56,0,0,0-.18-4.22h-1.51a13,13,0,0,0-4,.65,18.42,18.42,0,0,0-1.9.86,8.8,8.8,0,0,0-1.75,1.18,5.92,5.92,0,0,0-1.29,1.57,4.16,4.16,0,0,0-.5,2l-.71-.5a4.43,4.43,0,0,1-.5-.29c-.15-.09-.19-.14-.15-.14-.52-.38-1-.76-1.53-1.15s-1-.78-1.54-1.21a16.27,16.27,0,0,1-1.5-1.22c-.48-.43-1-.86-1.51-1.28a5,5,0,0,1-1-1l-.14-.14a4,4,0,0,1,.75-2.4,7.7,7.7,0,0,1,1.82-1.78A10.34,10.34,0,0,1,240,79.84a14.1,14.1,0,0,1,2.4-.68,11.43,11.43,0,0,1,2.21-.21,16.14,16.14,0,0,1,2.22.14,19.45,19.45,0,0,1,2.4.43,7.14,7.14,0,0,1,2.18.93,16.71,16.71,0,0,1,1.89,1.25q.9.67,1.83,1.47c.9.66,1.8,1.37,2.68,2.11s1.73,1.51,2.54,2.32a9,9,0,0,1,1.79,2.29,18.2,18.2,0,0,1,1,2.93,10.26,10.26,0,0,1,.33,3.08,14.31,14.31,0,0,1-1.43,5.79q-.15.36-.36.75c-.14.27-.29.52-.43.75l1.72.65a9.38,9.38,0,0,0,1.68.43,3.28,3.28,0,0,0,1.68-.15,7.33,7.33,0,0,0,2.36-1.57,14.42,14.42,0,0,0,2.07-2.43,11.33,11.33,0,0,0,.65-1.18,6.19,6.19,0,0,0,.43-1.32c.33.19.58.34.75.46l.46.32c.15.1.22.12.22.07.52.39,1,.78,1.53,1.18l1.54,1.26A35.43,35.43,0,0,1,279.31,103.41Zm9.51-15c.05,0,.07.08.07.11a.16.16,0,0,0,.07.1H269.51a1.64,1.64,0,0,1-.72-.5,8,8,0,0,0-.72-.64l-3-3.22a20.87,20.87,0,0,1-1.47-1.65c-.45-.57-.91-1.14-1.39-1.71l-.5-.65c-.14-.19-.31-.4-.5-.64a.34.34,0,0,0-.07-.22h19.45a2.17,2.17,0,0,1,.72.58,6.86,6.86,0,0,0,.71.64l3,3.22c.47.52,1,1.07,1.43,1.65l1.43,1.71a5.1,5.1,0,0,1,.5.57C288.53,87.94,288.68,88.15,288.82,88.39Z"/><path class="cls-3" d="M288,88.46c0,.05.87.05,1,.14-.14.05.12,0,0,0a6.79,6.79,0,0,0-2,.46,10.48,10.48,0,0,0-2.64,1.3,7.19,7.19,0,0,0-2,2,7.72,7.72,0,0,0-1,2.44A16.06,16.06,0,0,0,281,97.4c0,1-.07,2-.07,3V134a7,7,0,0,1-.79-.5c-.19-.14-.35-.26-.5-.35s-.19-.12-.14-.08l-1.72-1.28c-.57-.43-1.12-.88-1.64-1.36l-1.61-1.33c-.55-.45-1.09-.91-1.61-1.39-.19-.14-.38-.3-.57-.46a4.9,4.9,0,0,1-.58-.61s0-.07,0-.07,0,0,0-.08V95.11c0-1,0-1.93,0-2.93a23.57,23.57,0,0,1,.1-2.93,2.11,2.11,0,0,1,0-.33,1.87,1.87,0,0,0,0-.32H270a1.69,1.69,0,0,1-.72-.5l-.64-.64c-.53-.53-1-1.06-1.54-1.61s-1-1.09-1.54-1.61-.95-1.07-1.43-1.65l-1.43-1.71-.5-.65a7.1,7.1,0,0,1-.43-.64s-.07-.08-.07-.11a.3.3,0,0,0-.07-.11h15.88a2.24,2.24,0,0,1,.71.58,8,8,0,0,0,.72.64l3,3.22a9.08,9.08,0,0,0,.79.86,2,2,0,0,0,.43.36l1.64,1.36c.53.42,1.05.88,1.58,1.35.23.2.44.37.6.54S287.81,88.27,288,88.46Z"/></svg>